  0
SECTION
  2
HEADER
  9
$ACADVER
  1
AC1014
  9
$HANDSEED
  5
FFFF
  9
$MEASUREMENT
 70
     1
  0
ENDSEC
  0
SECTION
  2
TABLES
  0
TABLE
  2
VPORT
  5
8
330
0
100
AcDbSymbolTable
 70
     4
  0
VPORT
  5
2E
330
8
100
AcDbSymbolTableRecord
100
AcDbViewportTableRecord
  2
*ACTIVE
 70
     0
 10
0.0
 20
0.0
 11
1.0
 21
1.0
 12
210.0
 22
148.5
 13
0.0
 23
0.0
 14
10.0
 24
10.0
 15
10.0
 25
10.0
 16
0.0
 26
0.0
 36
1.0
 17
0.0
 27
0.0
 37
0.0
 40
341.0
 41
1.24
 42
50.0
 43
0.0
 44
0.0
 50
0.0
 51
0.0
 71
     0
 72
   100
 73
     1
 74
     3
 75
     0
 76
     0
 77
     0
 78
     0
  0
ENDTAB
  0
TABLE
  2
LTYPE
  5
5
330
0
100
AcDbSymbolTable
 70
     1
  0
LTYPE
  5
14
330
5
100
AcDbSymbolTableRecord
100
AcDbLinetypeTableRecord
  2
BYBLOCK
 70
     0
  3

 72
    65
 73
     0
 40
0.0
  0
LTYPE
  5
15
330
5
100
AcDbSymbolTableRecord
100
AcDbLinetypeTableRecord
  2
BYLAYER
 70
     0
  3

 72
    65
 73
     0
 40
0.0
  0
LTYPE
  5
16
330
5
100
AcDbSymbolTableRecord
100
AcDbLinetypeTableRecord
  2
CONTINUOUS
 70
     0
  3
Solid line
 72
    65
 73
     0
 40
0.0
  0
ENDTAB
  0
TABLE
  2
LAYER
  5
2
100
AcDbSymbolTable
 70
1
  0
LAYER
  5
50
100
AcDbSymbolTableRecord
100
AcDbLayerTableRecord
  2
0
 70
0
  6
CONTINUOUS
  0
ENDTAB
  0
TABLE
  2
STYLE
  5
3
330
0
100
AcDbSymbolTable
 70
     1
  0
STYLE
  5
11
330
3
100
AcDbSymbolTableRecord
100
AcDbTextStyleTableRecord
  2
STANDARD
 70
     0
 40
0.0
 41
1.0
 50
0.0
 71
     0
 42
2.5
  3
txt
  4

  0
ENDTAB
  0
TABLE
  2
VIEW
  5
6
330
0
100
AcDbSymbolTable
 70
     0
  0
ENDTAB
  0
TABLE
  2
UCS
  5
7
330
0
100
AcDbSymbolTable
 70
     0
  0
ENDTAB
  0
TABLE
  2
APPID
  5
9
330
0
100
AcDbSymbolTable
 70
     2
  0
APPID
  5
12
330
9
100
AcDbSymbolTableRecord
100
AcDbRegAppTableRecord
  2
ACAD
 70
     0
  0
ENDTAB
  0
TABLE
  2
DIMSTYLE
  5
A
330
0
100
AcDbSymbolTable
 70
     1
  0
DIMSTYLE
105
27
330
A
100
AcDbSymbolTableRecord
100
AcDbDimStyleTableRecord
  2
ISO-25
 70
     0
  3

  4

  5

  6

  7

 40
1.0
 41
2.5
 42
0.625
 43
3.75
 44
1.25
 45
0.0
 46
0.0
 47
0.0
 48
0.0
140
2.5
141
2.5
142
0.0
143
0.03937007874016
144
1.0
145
0.0
146
1.0
147
0.625
 71
     0
 72
     0
 73
     0
 74
     0
 75
     0
 76
     0
 77
     1
 78
     8
170
     0
171
     3
172
     1
173
     0
174
     0
175
     0
176
     0
177
     0
178
     0
270
     2
271
     2
272
     2
273
     2
274
     3
340
11
275
     0
280
     0
281
     0
282
     0
283
     0
284
     8
285
     0
286
     0
287
     3
288
     0
  0
ENDTAB
  0
TABLE
  2
BLOCK_RECORD
  5
1
330
0
100
AcDbSymbolTable
 70
     1
  0
BLOCK_RECORD
  5
1F
330
1
100
AcDbSymbolTableRecord
100
AcDbBlockTableRecord
  2
*MODEL_SPACE
  0
BLOCK_RECORD
  5
1B
330
1
100
AcDbSymbolTableRecord
100
AcDbBlockTableRecord
  2
*PAPER_SPACE
  0
ENDTAB
  0
ENDSEC
  0
SECTION
  2
BLOCKS
  0
BLOCK
  5
20
330
1F
100
AcDbEntity
  8
0
100
AcDbBlockBegin
  2
*MODEL_SPACE
 70
     0
 10
0.0
 20
0.0
 30
0.0
  3
*MODEL_SPACE
  1

  0
ENDBLK
  5
21
330
1F
100
AcDbEntity
  8
0
100
AcDbBlockEnd
  0
BLOCK
  5
1C
330
1B
100
AcDbEntity
 67
     1
  8
0
100
AcDbBlockBegin
  2
*PAPER_SPACE
  1

  0
ENDBLK
  5
1D
330
1B
100
AcDbEntity
 67
     1
  8
0
100
AcDbBlockEnd
  0
ENDSEC
  0
SECTION
  2
ENTITIES
  0
LINE
  5
100
100
AcDbEntity
  8
0
 62
7
100
AcDbLine
 10
0.333808
 20
-11.628607
 30
0.0
 11
0.333808
 21
-11.628607
 31
0.0
  0
LINE
  5
101
100
AcDbEntity
  8
0
 62
7
100
AcDbLine
 10
0.333808
 20
-11.628607
 30
0.0
 11
0.333808
 21
-11.628607
 31
0.0
  0
LINE
  5
102
100
AcDbEntity
  8
0
 62
7
100
AcDbLine
 10
0.333808
 20
-11.628607
 30
0.0
 11
0.333808
 21
-11.628607
 31
0.0
  0
LINE
  5
103
100
AcDbEntity
  8
0
 62
7
100
AcDbLine
 10
0.333808
 20
-11.628607
 30
0.0
 11
0.333808
 21
-11.628607
 31
0.0
  0
LINE
  5
104
100
AcDbEntity
  8
0
 62
7
100
AcDbLine
 10
120.333766
 20
-29.341801
 30
0.0
 11
120.333766
 21
20.658182
 31
0.0
  0
SPLINE
  5
105
100
AcDbEntity
  8
0
 62
7
100
AcDbSpline
 70
8
 71
3
 72
8
 73
4
 74
0
 40
0
 40
0
 40
0
 40
0
 40
1
 40
1
 40
1
 40
1
 10
120.333766
 20
20.658182
 30
0.0
 10
120.333766
 20
21.210482
 30
0.0
 10
119.885766
 20
21.658182
 30
0.0
 10
119.333767
 20
21.658182
 30
0.0
  0
LINE
  5
106
100
AcDbEntity
  8
0
 62
7
100
AcDbLine
 10
119.333767
 20
21.658182
 30
0.0
 11
102.833772
 21
21.658182
 31
0.0
  0
SPLINE
  5
107
100
AcDbEntity
  8
0
 62
7
100
AcDbSpline
 70
8
 71
3
 72
8
 73
4
 74
0
 40
0
 40
0
 40
0
 40
0
 40
1
 40
1
 40
1
 40
1
 10
102.833772
 20
21.658182
 30
0.0
 10
102.557772
 20
21.658182
 30
0.0
 10
102.333773
 20
21.882082
 30
0.0
 10
102.333773
 20
22.158181
 30
0.0
  0
LINE
  5
108
100
AcDbEntity
  8
0
 62
7
100
AcDbLine
 10
102.333773
 20
22.158181
 30
0.0
 11
102.333773
 21
30.158179
 31
0.0
  0
SPLINE
  5
109
100
AcDbEntity
  8
0
 62
7
100
AcDbSpline
 70
8
 71
3
 72
8
 73
4
 74
0
 40
0
 40
0
 40
0
 40
0
 40
1
 40
1
 40
1
 40
1
 10
102.333773
 20
30.158179
 30
0.0
 10
102.333773
 20
30.434279
 30
0.0
 10
102.109773
 20
30.658178
 30
0.0
 10
101.833773
 20
30.658178
 30
0.0
  0
LINE
  5
10a
100
AcDbEntity
  8
0
 62
7
100
AcDbLine
 10
101.833773
 20
30.658178
 30
0.0
 11
84.833779
 21
30.658178
 31
0.0
  0
SPLINE
  5
10b
100
AcDbEntity
  8
0
 62
7
100
AcDbSpline
 70
8
 71
3
 72
8
 73
4
 74
0
 40
0
 40
0
 40
0
 40
0
 40
1
 40
1
 40
1
 40
1
 10
84.833779
 20
30.658178
 30
0.0
 10
84.557679
 20
30.658178
 30
0.0
 10
84.333779
 20
30.882078
 30
0.0
 10
84.333779
 20
31.158178
 30
0.0
  0
LINE
  5
10c
100
AcDbEntity
  8
0
 62
7
100
AcDbLine
 10
84.333779
 20
31.158178
 30
0.0
 11
84.333779
 21
33.158178
 31
0.0
  0
SPLINE
  5
10d
100
AcDbEntity
  8
0
 62
7
100
AcDbSpline
 70
8
 71
3
 72
8
 73
4
 74
0
 40
0
 40
0
 40
0
 40
0
 40
1
 40
1
 40
1
 40
1
 10
84.333779
 20
33.158178
 30
0.0
 10
84.333779
 20
33.434278
 30
0.0
 10
84.109879
 20
33.658177
 30
0.0
 10
83.833779
 20
33.658177
 30
0.0
  0
LINE
  5
10e
100
AcDbEntity
  8
0
 62
7
100
AcDbLine
 10
83.833779
 20
33.658177
 30
0.0
 11
66.833785
 21
33.658177
 31
0.0
  0
SPLINE
  5
10f
100
AcDbEntity
  8
0
 62
7
100
AcDbSpline
 70
8
 71
3
 72
8
 73
4
 74
0
 40
0
 40
0
 40
0
 40
0
 40
1
 40
1
 40
1
 40
1
 10
66.833785
 20
33.658177
 30
0.0
 10
66.557685
 20
33.658177
 30
0.0
 10
66.333785
 20
33.434278
 30
0.0
 10
66.333785
 20
33.158178
 30
0.0
  0
LINE
  5
110
100
AcDbEntity
  8
0
 62
7
100
AcDbLine
 10
66.333785
 20
33.158178
 30
0.0
 11
66.333785
 21
31.158178
 31
0.0
  0
SPLINE
  5
111
100
AcDbEntity
  8
0
 62
7
100
AcDbSpline
 70
8
 71
3
 72
8
 73
4
 74
0
 40
0
 40
0
 40
0
 40
0
 40
1
 40
1
 40
1
 40
1
 10
66.333785
 20
31.158178
 30
0.0
 10
66.333785
 20
30.882078
 30
0.0
 10
66.109885
 20
30.658178
 30
0.0
 10
65.833785
 20
30.658178
 30
0.0
  0
LINE
  5
112
100
AcDbEntity
  8
0
 62
7
100
AcDbLine
 10
65.833785
 20
30.658178
 30
0.0
 11
48.833791
 21
30.658178
 31
0.0
  0
SPLINE
  5
113
100
AcDbEntity
  8
0
 62
7
100
AcDbSpline
 70
8
 71
3
 72
8
 73
4
 74
0
 40
0
 40
0
 40
0
 40
0
 40
1
 40
1
 40
1
 40
1
 10
48.833791
 20
30.658178
 30
0.0
 10
48.557691
 20
30.658178
 30
0.0
 10
48.333791
 20
30.434279
 30
0.0
 10
48.333791
 20
30.158179
 30
0.0
  0
LINE
  5
114
100
AcDbEntity
  8
0
 62
7
100
AcDbLine
 10
48.333791
 20
30.158179
 30
0.0
 11
48.333791
 21
28.658179
 31
0.0
  0
SPLINE
  5
115
100
AcDbEntity
  8
0
 62
7
100
AcDbSpline
 70
8
 71
3
 72
8
 73
4
 74
0
 40
0
 40
0
 40
0
 40
0
 40
1
 40
1
 40
1
 40
1
 10
48.333791
 20
28.658179
 30
0.0
 10
48.333791
 20
28.382079
 30
0.0
 10
48.109891
 20
28.158179
 30
0.0
 10
47.833791
 20
28.158179
 30
0.0
  0
LINE
  5
116
100
AcDbEntity
  8
0
 62
7
100
AcDbLine
 10
47.833791
 20
28.158179
 30
0.0
 11
31.333797
 21
28.158179
 31
0.0
  0
SPLINE
  5
117
100
AcDbEntity
  8
0
 62
7
100
AcDbSpline
 70
8
 71
3
 72
8
 73
4
 74
0
 40
0
 40
0
 40
0
 40
0
 40
1
 40
1
 40
1
 40
1
 10
31.333797
 20
28.158179
 30
0.0
 10
30.781497
 20
28.158179
 30
0.0
 10
30.333797
 20
27.710480
 30
0.0
 10
30.333797
 20
27.158180
 30
0.0
  0
LINE
  5
118
100
AcDbEntity
  8
0
 62
7
100
AcDbLine
 10
30.333797
 20
27.158180
 30
0.0
 11
30.333797
 21
-14.847646
 31
0.0
  0
LINE
  5
119
100
AcDbEntity
  8
0
 62
7
100
AcDbLine
 10
30.333797
 20
-14.847646
 30
0.0
 11
2.760307
 21
-34.880999
 31
0.0
  0
SPLINE
  5
11a
100
AcDbEntity
  8
0
 62
7
100
AcDbSpline
 70
8
 71
3
 72
8
 73
4
 74
0
 40
0
 40
0
 40
0
 40
0
 40
1
 40
1
 40
1
 40
1
 10
2.760307
 20
-34.880999
 30
0.0
 10
2.313497
 20
-35.205599
 30
0.0
 10
2.214447
 20
-35.830998
 30
0.0
 10
2.539067
 20
-36.277798
 30
0.0
  0
LINE
  5
11b
100
AcDbEntity
  8
0
 62
7
100
AcDbLine
 10
2.539067
 20
-36.277798
 30
0.0
 11
17.233702
 21
-56.503191
 31
0.0
  0
SPLINE
  5
11c
100
AcDbEntity
  8
0
 62
7
100
AcDbSpline
 70
8
 71
3
 72
8
 73
4
 74
0
 40
0
 40
0
 40
0
 40
0
 40
1
 40
1
 40
1
 40
1
 10
17.233702
 20
-56.503191
 30
0.0
 10
17.558302
 20
-56.949991
 30
0.0
 10
18.183702
 20
-57.048991
 30
0.0
 10
18.630502
 20
-56.724391
 30
0.0
  0
LINE
  5
11d
100
AcDbEntity
  8
0
 62
7
100
AcDbLine
 10
18.630502
 20
-56.724391
 30
0.0
 11
31.412997
 21
-47.437394
 31
0.0
  0
LINE
  5
11e
100
AcDbEntity
  8
0
 62
7
100
AcDbLine
 10
31.412997
 20
-47.437394
 30
0.0
 11
69.287184
 21
-43.456696
 31
0.0
  0
LINE
  5
11f
100
AcDbEntity
  8
0
 62
7
100
AcDbLine
 10
69.287184
 20
-43.456696
 30
0.0
 11
78.470381
 21
-30.341800
 31
0.0
  0
LINE
  5
120
100
AcDbEntity
  8
0
 62
7
100
AcDbLine
 10
78.470381
 20
-30.341800
 30
0.0
 11
119.333767
 21
-30.341800
 31
0.0
  0
SPLINE
  5
121
100
AcDbEntity
  8
0
 62
7
100
AcDbSpline
 70
8
 71
3
 72
8
 73
4
 74
0
 40
0
 40
0
 40
0
 40
0
 40
1
 40
1
 40
1
 40
1
 10
119.333767
 20
-30.341800
 30
0.0
 10
119.885766
 20
-30.341800
 30
0.0
 10
120.333766
 20
-29.894101
 30
0.0
 10
120.333766
 20
-29.341801
 30
0.0
  0
LINE
  5
122
100
AcDbEntity
  8
0
 62
7
100
AcDbLine
 10
0.333808
 20
-11.628607
 30
0.0
 11
0.333808
 21
-11.628607
 31
0.0
  0
LINE
  5
123
100
AcDbEntity
  8
0
 62
7
100
AcDbLine
 10
0.333808
 20
-11.628607
 30
0.0
 11
0.333808
 21
-11.628607
 31
0.0
  0
LINE
  5
124
100
AcDbEntity
  8
0
 62
7
100
AcDbLine
 10
0.333808
 20
-11.628607
 30
0.0
 11
0.333808
 21
-11.628607
 31
0.0
  0
LINE
  5
125
100
AcDbEntity
  8
0
 62
7
100
AcDbLine
 10
0.333808
 20
-11.628607
 30
0.0
 11
0.333808
 21
-11.628607
 31
0.0
  0
LINE
  5
126
100
AcDbEntity
  8
0
 62
7
100
AcDbLine
 10
100.333773
 20
-2.341800
 30
0.0
 11
100.333773
 21
11.658185
 31
0.0
  0
LINE
  5
127
100
AcDbEntity
  8
0
 62
7
100
AcDbLine
 10
100.333773
 20
11.658185
 30
0.0
 11
86.333778
 21
11.658185
 31
0.0
  0
LINE
  5
128
100
AcDbEntity
  8
0
 62
7
100
AcDbLine
 10
86.333778
 20
11.658185
 30
0.0
 11
86.333778
 21
-2.341800
 31
0.0
  0
LINE
  5
129
100
AcDbEntity
  8
0
 62
7
100
AcDbLine
 10
86.333778
 20
-2.341800
 30
0.0
 11
100.333773
 21
-2.341800
 31
0.0
  0
LINE
  5
12a
100
AcDbEntity
  8
0
 62
7
100
AcDbLine
 10
0.333808
 20
-11.628607
 30
0.0
 11
0.333808
 21
-11.628607
 31
0.0
  0
LINE
  5
12b
100
AcDbEntity
  8
0
 62
7
100
AcDbLine
 10
0.333808
 20
-11.628607
 30
0.0
 11
0.333808
 21
-11.628607
 31
0.0
  0
LINE
  5
12c
100
AcDbEntity
  8
0
 62
7
100
AcDbLine
 10
0.333808
 20
-11.628607
 30
0.0
 11
0.333808
 21
-11.628607
 31
0.0
  0
LINE
  5
12d
100
AcDbEntity
  8
0
 62
7
100
AcDbLine
 10
0.333808
 20
-11.628607
 30
0.0
 11
0.333808
 21
-11.628607
 31
0.0
  0
LINE
  5
12e
100
AcDbEntity
  8
0
 62
7
100
AcDbLine
 10
0.333808
 20
-11.628607
 30
0.0
 11
0.333808
 21
-11.628607
 31
0.0
  0
LINE
  5
12f
100
AcDbEntity
  8
0
 62
7
100
AcDbLine
 10
0.333808
 20
-11.628607
 30
0.0
 11
0.333808
 21
-11.628607
 31
0.0
  0
LINE
  5
130
100
AcDbEntity
  8
0
 62
7
100
AcDbLine
 10
0.333808
 20
-11.628607
 30
0.0
 11
0.333808
 21
-11.628607
 31
0.0
  0
LINE
  5
131
100
AcDbEntity
  8
0
 62
7
100
AcDbLine
 10
0.333808
 20
-11.628607
 30
0.0
 11
0.333808
 21
-11.628607
 31
0.0
  0
LINE
  5
132
100
AcDbEntity
  8
0
 62
7
100
AcDbLine
 10
0.333808
 20
-11.628607
 30
0.0
 11
0.333808
 21
-11.628607
 31
0.0
  0
LINE
  5
133
100
AcDbEntity
  8
0
 62
7
100
AcDbLine
 10
0.333808
 20
-11.628607
 30
0.0
 11
0.333808
 21
-11.628607
 31
0.0
  0
LINE
  5
134
100
AcDbEntity
  8
0
 62
7
100
AcDbLine
 10
0.333808
 20
-11.628607
 30
0.0
 11
0.333808
 21
-11.628607
 31
0.0
  0
LINE
  5
135
100
AcDbEntity
  8
0
 62
7
100
AcDbLine
 10
0.333808
 20
-11.628607
 30
0.0
 11
0.333808
 21
-11.628607
 31
0.0
  0
LINE
  5
136
100
AcDbEntity
  8
0
 62
7
100
AcDbLine
 10
0.333808
 20
-11.628607
 30
0.0
 11
0.333808
 21
-11.628607
 31
0.0
  0
LINE
  5
137
100
AcDbEntity
  8
0
 62
7
100
AcDbLine
 10
0.333808
 20
-11.628607
 30
0.0
 11
0.333808
 21
-11.628607
 31
0.0
  0
LINE
  5
138
100
AcDbEntity
  8
0
 62
7
100
AcDbLine
 10
0.333808
 20
-11.628607
 30
0.0
 11
0.333808
 21
-11.628607
 31
0.0
  0
LINE
  5
139
100
AcDbEntity
  8
0
 62
7
100
AcDbLine
 10
0.333808
 20
-11.628607
 30
0.0
 11
0.333808
 21
-11.628607
 31
0.0
  0
LINE
  5
13a
100
AcDbEntity
  8
0
 62
7
100
AcDbLine
 10
118.333767
 20
-11.341802
 30
0.0
 11
118.333767
 21
2.658188
 31
0.0
  0
LINE
  5
13b
100
AcDbEntity
  8
0
 62
7
100
AcDbLine
 10
118.333767
 20
2.658188
 30
0.0
 11
104.333772
 21
2.658188
 31
0.0
  0
LINE
  5
13c
100
AcDbEntity
  8
0
 62
7
100
AcDbLine
 10
104.333772
 20
2.658188
 30
0.0
 11
104.333772
 21
-11.341802
 31
0.0
  0
LINE
  5
13d
100
AcDbEntity
  8
0
 62
7
100
AcDbLine
 10
104.333772
 20
-11.341802
 30
0.0
 11
118.333767
 21
-11.341802
 31
0.0
  0
LINE
  5
13e
100
AcDbEntity
  8
0
 62
7
100
AcDbLine
 10
0.333808
 20
-11.628607
 30
0.0
 11
0.333808
 21
-11.628607
 31
0.0
  0
LINE
  5
13f
100
AcDbEntity
  8
0
 62
7
100
AcDbLine
 10
0.333808
 20
-11.628607
 30
0.0
 11
0.333808
 21
-11.628607
 31
0.0
  0
LINE
  5
140
100
AcDbEntity
  8
0
 62
7
100
AcDbLine
 10
0.333808
 20
-11.628607
 30
0.0
 11
0.333808
 21
-11.628607
 31
0.0
  0
LINE
  5
141
100
AcDbEntity
  8
0
 62
7
100
AcDbLine
 10
0.333808
 20
-11.628607
 30
0.0
 11
0.333808
 21
-11.628607
 31
0.0
  0
LINE
  5
142
100
AcDbEntity
  8
0
 62
7
100
AcDbLine
 10
0.333808
 20
-11.628607
 30
0.0
 11
0.333808
 21
-11.628607
 31
0.0
  0
LINE
  5
143
100
AcDbEntity
  8
0
 62
7
100
AcDbLine
 10
0.333808
 20
-11.628607
 30
0.0
 11
0.333808
 21
-11.628607
 31
0.0
  0
LINE
  5
144
100
AcDbEntity
  8
0
 62
7
100
AcDbLine
 10
0.333808
 20
-11.628607
 30
0.0
 11
0.333808
 21
-11.628607
 31
0.0
  0
LINE
  5
145
100
AcDbEntity
  8
0
 62
7
100
AcDbLine
 10
0.333808
 20
-11.628607
 30
0.0
 11
0.333808
 21
-11.628607
 31
0.0
  0
LINE
  5
146
100
AcDbEntity
  8
0
 62
7
100
AcDbLine
 10
82.333779
 20
0.658189
 30
0.0
 11
82.333779
 21
14.658184
 31
0.0
  0
LINE
  5
147
100
AcDbEntity
  8
0
 62
7
100
AcDbLine
 10
82.333779
 20
14.658184
 30
0.0
 11
68.333784
 21
14.658184
 31
0.0
  0
LINE
  5
148
100
AcDbEntity
  8
0
 62
7
100
AcDbLine
 10
68.333784
 20
14.658184
 30
0.0
 11
68.333784
 21
0.658189
 31
0.0
  0
LINE
  5
149
100
AcDbEntity
  8
0
 62
7
100
AcDbLine
 10
68.333784
 20
0.658189
 30
0.0
 11
82.333779
 21
0.658189
 31
0.0
  0
LINE
  5
14a
100
AcDbEntity
  8
0
 62
7
100
AcDbLine
 10
0.333808
 20
-11.628607
 30
0.0
 11
0.333808
 21
-11.628607
 31
0.0
  0
LINE
  5
14b
100
AcDbEntity
  8
0
 62
7
100
AcDbLine
 10
0.333808
 20
-11.628607
 30
0.0
 11
0.333808
 21
-11.628607
 31
0.0
  0
LINE
  5
14c
100
AcDbEntity
  8
0
 62
7
100
AcDbLine
 10
0.333808
 20
-11.628607
 30
0.0
 11
0.333808
 21
-11.628607
 31
0.0
  0
LINE
  5
14d
100
AcDbEntity
  8
0
 62
7
100
AcDbLine
 10
0.333808
 20
-11.628607
 30
0.0
 11
0.333808
 21
-11.628607
 31
0.0
  0
LINE
  5
14e
100
AcDbEntity
  8
0
 62
7
100
AcDbLine
 10
0.333808
 20
-11.628607
 30
0.0
 11
0.333808
 21
-11.628607
 31
0.0
  0
LINE
  5
14f
100
AcDbEntity
  8
0
 62
7
100
AcDbLine
 10
0.333808
 20
-11.628607
 30
0.0
 11
0.333808
 21
-11.628607
 31
0.0
  0
LINE
  5
150
100
AcDbEntity
  8
0
 62
7
100
AcDbLine
 10
0.333808
 20
-11.628607
 30
0.0
 11
0.333808
 21
-11.628607
 31
0.0
  0
LINE
  5
151
100
AcDbEntity
  8
0
 62
7
100
AcDbLine
 10
0.333808
 20
-11.628607
 30
0.0
 11
0.333808
 21
-11.628607
 31
0.0
  0
LINE
  5
152
100
AcDbEntity
  8
0
 62
7
100
AcDbLine
 10
0.333808
 20
-11.628607
 30
0.0
 11
0.333808
 21
-11.628607
 31
0.0
  0
LINE
  5
153
100
AcDbEntity
  8
0
 62
7
100
AcDbLine
 10
0.333808
 20
-11.628607
 30
0.0
 11
0.333808
 21
-11.628607
 31
0.0
  0
LINE
  5
154
100
AcDbEntity
  8
0
 62
7
100
AcDbLine
 10
0.333808
 20
-11.628607
 30
0.0
 11
0.333808
 21
-11.628607
 31
0.0
  0
LINE
  5
155
100
AcDbEntity
  8
0
 62
7
100
AcDbLine
 10
0.333808
 20
-11.628607
 30
0.0
 11
0.333808
 21
-11.628607
 31
0.0
  0
LINE
  5
156
100
AcDbEntity
  8
0
 62
7
100
AcDbLine
 10
0.333808
 20
-11.628607
 30
0.0
 11
0.333808
 21
-11.628607
 31
0.0
  0
LINE
  5
157
100
AcDbEntity
  8
0
 62
7
100
AcDbLine
 10
0.333808
 20
-11.628607
 30
0.0
 11
0.333808
 21
-11.628607
 31
0.0
  0
LINE
  5
158
100
AcDbEntity
  8
0
 62
7
100
AcDbLine
 10
0.333808
 20
-11.628607
 30
0.0
 11
0.333808
 21
-11.628607
 31
0.0
  0
LINE
  5
159
100
AcDbEntity
  8
0
 62
7
100
AcDbLine
 10
0.333808
 20
-11.628607
 30
0.0
 11
0.333808
 21
-11.628607
 31
0.0
  0
LINE
  5
15a
100
AcDbEntity
  8
0
 62
7
100
AcDbLine
 10
0.333808
 20
-11.628607
 30
0.0
 11
0.333808
 21
-11.628607
 31
0.0
  0
LINE
  5
15b
100
AcDbEntity
  8
0
 62
7
100
AcDbLine
 10
0.333808
 20
-11.628607
 30
0.0
 11
0.333808
 21
-11.628607
 31
0.0
  0
LINE
  5
15c
100
AcDbEntity
  8
0
 62
7
100
AcDbLine
 10
0.333808
 20
-11.628607
 30
0.0
 11
0.333808
 21
-11.628607
 31
0.0
  0
LINE
  5
15d
100
AcDbEntity
  8
0
 62
7
100
AcDbLine
 10
0.333808
 20
-11.628607
 30
0.0
 11
0.333808
 21
-11.628607
 31
0.0
  0
LINE
  5
15e
100
AcDbEntity
  8
0
 62
7
100
AcDbLine
 10
0.333808
 20
-11.628607
 30
0.0
 11
0.333808
 21
-11.628607
 31
0.0
  0
LINE
  5
15f
100
AcDbEntity
  8
0
 62
7
100
AcDbLine
 10
0.333808
 20
-11.628607
 30
0.0
 11
0.333808
 21
-11.628607
 31
0.0
  0
LINE
  5
160
100
AcDbEntity
  8
0
 62
7
100
AcDbLine
 10
0.333808
 20
-11.628607
 30
0.0
 11
0.333808
 21
-11.628607
 31
0.0
  0
LINE
  5
161
100
AcDbEntity
  8
0
 62
7
100
AcDbLine
 10
0.333808
 20
-11.628607
 30
0.0
 11
0.333808
 21
-11.628607
 31
0.0
  0
LINE
  5
162
100
AcDbEntity
  8
0
 62
7
100
AcDbLine
 10
46.333792
 20
12.158185
 30
0.0
 11
46.333792
 21
26.158180
 31
0.0
  0
LINE
  5
163
100
AcDbEntity
  8
0
 62
7
100
AcDbLine
 10
46.333792
 20
26.158180
 30
0.0
 11
32.333797
 21
26.158180
 31
0.0
  0
LINE
  5
164
100
AcDbEntity
  8
0
 62
7
100
AcDbLine
 10
32.333797
 20
26.158180
 30
0.0
 11
32.333797
 21
12.158185
 31
0.0
  0
LINE
  5
165
100
AcDbEntity
  8
0
 62
7
100
AcDbLine
 10
32.333797
 20
12.158185
 30
0.0
 11
46.333792
 21
12.158185
 31
0.0
  0
LINE
  5
166
100
AcDbEntity
  8
0
 62
7
100
AcDbLine
 10
0.333808
 20
-11.628607
 30
0.0
 11
0.333808
 21
-11.628607
 31
0.0
  0
LINE
  5
167
100
AcDbEntity
  8
0
 62
7
100
AcDbLine
 10
0.333808
 20
-11.628607
 30
0.0
 11
0.333808
 21
-11.628607
 31
0.0
  0
LINE
  5
168
100
AcDbEntity
  8
0
 62
7
100
AcDbLine
 10
0.333808
 20
-11.628607
 30
0.0
 11
0.333808
 21
-11.628607
 31
0.0
  0
LINE
  5
169
100
AcDbEntity
  8
0
 62
7
100
AcDbLine
 10
0.333808
 20
-11.628607
 30
0.0
 11
0.333808
 21
-11.628607
 31
0.0
  0
LINE
  5
16a
100
AcDbEntity
  8
0
 62
7
100
AcDbLine
 10
46.333792
 20
-21.841803
 30
0.0
 11
46.333792
 21
-7.841798
 31
0.0
  0
LINE
  5
16b
100
AcDbEntity
  8
0
 62
7
100
AcDbLine
 10
46.333792
 20
-7.841798
 30
0.0
 11
32.333797
 21
-7.841798
 31
0.0
  0
LINE
  5
16c
100
AcDbEntity
  8
0
 62
7
100
AcDbLine
 10
32.333797
 20
-7.841798
 30
0.0
 11
32.333797
 21
-21.841803
 31
0.0
  0
LINE
  5
16d
100
AcDbEntity
  8
0
 62
7
100
AcDbLine
 10
32.333797
 20
-21.841803
 30
0.0
 11
46.333792
 21
-21.841803
 31
0.0
  0
LINE
  5
16e
100
AcDbEntity
  8
0
 62
7
100
AcDbLine
 10
0.333808
 20
-11.628607
 30
0.0
 11
0.333808
 21
-11.628607
 31
0.0
  0
LINE
  5
16f
100
AcDbEntity
  8
0
 62
7
100
AcDbLine
 10
0.333808
 20
-11.628607
 30
0.0
 11
0.333808
 21
-11.628607
 31
0.0
  0
LINE
  5
170
100
AcDbEntity
  8
0
 62
7
100
AcDbLine
 10
0.333808
 20
-11.628607
 30
0.0
 11
0.333808
 21
-11.628607
 31
0.0
  0
LINE
  5
171
100
AcDbEntity
  8
0
 62
7
100
AcDbLine
 10
0.333808
 20
-11.628607
 30
0.0
 11
0.333808
 21
-11.628607
 31
0.0
  0
LINE
  5
172
100
AcDbEntity
  8
0
 62
7
100
AcDbLine
 10
100.333773
 20
-19.341794
 30
0.0
 11
100.333773
 21
-5.341799
 31
0.0
  0
LINE
  5
173
100
AcDbEntity
  8
0
 62
7
100
AcDbLine
 10
100.333773
 20
-5.341799
 30
0.0
 11
86.333778
 21
-5.341799
 31
0.0
  0
LINE
  5
174
100
AcDbEntity
  8
0
 62
7
100
AcDbLine
 10
86.333778
 20
-5.341799
 30
0.0
 11
86.333778
 21
-19.341794
 31
0.0
  0
LINE
  5
175
100
AcDbEntity
  8
0
 62
7
100
AcDbLine
 10
86.333778
 20
-19.341794
 30
0.0
 11
100.333773
 21
-19.341794
 31
0.0
  0
LINE
  5
176
100
AcDbEntity
  8
0
 62
7
100
AcDbLine
 10
0.333808
 20
-11.628607
 30
0.0
 11
0.333808
 21
-11.628607
 31
0.0
  0
LINE
  5
177
100
AcDbEntity
  8
0
 62
7
100
AcDbLine
 10
0.333808
 20
-11.628607
 30
0.0
 11
0.333808
 21
-11.628607
 31
0.0
  0
LINE
  5
178
100
AcDbEntity
  8
0
 62
7
100
AcDbLine
 10
0.333808
 20
-11.628607
 30
0.0
 11
0.333808
 21
-11.628607
 31
0.0
  0
LINE
  5
179
100
AcDbEntity
  8
0
 62
7
100
AcDbLine
 10
0.333808
 20
-11.628607
 30
0.0
 11
0.333808
 21
-11.628607
 31
0.0
  0
LINE
  5
17a
100
AcDbEntity
  8
0
 62
7
100
AcDbLine
 10
100.333773
 20
14.658184
 30
0.0
 11
100.333773
 21
28.658179
 31
0.0
  0
LINE
  5
17b
100
AcDbEntity
  8
0
 62
7
100
AcDbLine
 10
100.333773
 20
28.658179
 30
0.0
 11
86.333778
 21
28.658179
 31
0.0
  0
LINE
  5
17c
100
AcDbEntity
  8
0
 62
7
100
AcDbLine
 10
86.333778
 20
28.658179
 30
0.0
 11
86.333778
 21
14.658184
 31
0.0
  0
LINE
  5
17d
100
AcDbEntity
  8
0
 62
7
100
AcDbLine
 10
86.333778
 20
14.658184
 30
0.0
 11
100.333773
 21
14.658184
 31
0.0
  0
LINE
  5
17e
100
AcDbEntity
  8
0
 62
7
100
AcDbLine
 10
0.333808
 20
-11.628607
 30
0.0
 11
0.333808
 21
-11.628607
 31
0.0
  0
LINE
  5
17f
100
AcDbEntity
  8
0
 62
7
100
AcDbLine
 10
0.333808
 20
-11.628607
 30
0.0
 11
0.333808
 21
-11.628607
 31
0.0
  0
LINE
  5
180
100
AcDbEntity
  8
0
 62
7
100
AcDbLine
 10
0.333808
 20
-11.628607
 30
0.0
 11
0.333808
 21
-11.628607
 31
0.0
  0
LINE
  5
181
100
AcDbEntity
  8
0
 62
7
100
AcDbLine
 10
0.333808
 20
-11.628607
 30
0.0
 11
0.333808
 21
-11.628607
 31
0.0
  0
LINE
  5
182
100
AcDbEntity
  8
0
 62
7
100
AcDbLine
 10
64.333786
 20
-19.341794
 30
0.0
 11
64.333786
 21
-5.341799
 31
0.0
  0
LINE
  5
183
100
AcDbEntity
  8
0
 62
7
100
AcDbLine
 10
64.333786
 20
-5.341799
 30
0.0
 11
50.333791
 21
-5.341799
 31
0.0
  0
LINE
  5
184
100
AcDbEntity
  8
0
 62
7
100
AcDbLine
 10
50.333791
 20
-5.341799
 30
0.0
 11
50.333791
 21
-19.341794
 31
0.0
  0
LINE
  5
185
100
AcDbEntity
  8
0
 62
7
100
AcDbLine
 10
50.333791
 20
-19.341794
 30
0.0
 11
64.333786
 21
-19.341794
 31
0.0
  0
LINE
  5
186
100
AcDbEntity
  8
0
 62
7
100
AcDbLine
 10
0.333808
 20
-11.628607
 30
0.0
 11
0.333808
 21
-11.628607
 31
0.0
  0
LINE
  5
187
100
AcDbEntity
  8
0
 62
7
100
AcDbLine
 10
0.333808
 20
-11.628607
 30
0.0
 11
0.333808
 21
-11.628607
 31
0.0
  0
LINE
  5
188
100
AcDbEntity
  8
0
 62
7
100
AcDbLine
 10
0.333808
 20
-11.628607
 30
0.0
 11
0.333808
 21
-11.628607
 31
0.0
  0
LINE
  5
189
100
AcDbEntity
  8
0
 62
7
100
AcDbLine
 10
0.333808
 20
-11.628607
 30
0.0
 11
0.333808
 21
-11.628607
 31
0.0
  0
LINE
  5
18a
100
AcDbEntity
  8
0
 62
7
100
AcDbLine
 10
0.333808
 20
-11.628607
 30
0.0
 11
0.333808
 21
-11.628607
 31
0.0
  0
LINE
  5
18b
100
AcDbEntity
  8
0
 62
7
100
AcDbLine
 10
0.333808
 20
-11.628607
 30
0.0
 11
0.333808
 21
-11.628607
 31
0.0
  0
LINE
  5
18c
100
AcDbEntity
  8
0
 62
7
100
AcDbLine
 10
0.333808
 20
-11.628607
 30
0.0
 11
0.333808
 21
-11.628607
 31
0.0
  0
LINE
  5
18d
100
AcDbEntity
  8
0
 62
7
100
AcDbLine
 10
0.333808
 20
-11.628607
 30
0.0
 11
0.333808
 21
-11.628607
 31
0.0
  0
LINE
  5
18e
100
AcDbEntity
  8
0
 62
7
100
AcDbLine
 10
64.333786
 20
14.658184
 30
0.0
 11
64.333786
 21
28.658179
 31
0.0
  0
LINE
  5
18f
100
AcDbEntity
  8
0
 62
7
100
AcDbLine
 10
64.333786
 20
28.658179
 30
0.0
 11
50.333791
 21
28.658179
 31
0.0
  0
LINE
  5
190
100
AcDbEntity
  8
0
 62
7
100
AcDbLine
 10
50.333791
 20
28.658179
 30
0.0
 11
50.333791
 21
14.658184
 31
0.0
  0
LINE
  5
191
100
AcDbEntity
  8
0
 62
7
100
AcDbLine
 10
50.333791
 20
14.658184
 30
0.0
 11
64.333786
 21
14.658184
 31
0.0
  0
LINE
  5
192
100
AcDbEntity
  8
0
 62
7
100
AcDbLine
 10
0.333808
 20
-11.628607
 30
0.0
 11
0.333808
 21
-11.628607
 31
0.0
  0
LINE
  5
193
100
AcDbEntity
  8
0
 62
7
100
AcDbLine
 10
0.333808
 20
-11.628607
 30
0.0
 11
0.333808
 21
-11.628607
 31
0.0
  0
LINE
  5
194
100
AcDbEntity
  8
0
 62
7
100
AcDbLine
 10
0.333808
 20
-11.628607
 30
0.0
 11
0.333808
 21
-11.628607
 31
0.0
  0
LINE
  5
195
100
AcDbEntity
  8
0
 62
7
100
AcDbLine
 10
0.333808
 20
-11.628607
 30
0.0
 11
0.333808
 21
-11.628607
 31
0.0
  0
LINE
  5
196
100
AcDbEntity
  8
0
 62
7
100
AcDbLine
 10
46.333792
 20
-4.841799
 30
0.0
 11
46.333792
 21
9.158186
 31
0.0
  0
LINE
  5
197
100
AcDbEntity
  8
0
 62
7
100
AcDbLine
 10
46.333792
 20
9.158186
 30
0.0
 11
32.333797
 21
9.158186
 31
0.0
  0
LINE
  5
198
100
AcDbEntity
  8
0
 62
7
100
AcDbLine
 10
32.333797
 20
9.158186
 30
0.0
 11
32.333797
 21
-4.841799
 31
0.0
  0
LINE
  5
199
100
AcDbEntity
  8
0
 62
7
100
AcDbLine
 10
32.333797
 20
-4.841799
 30
0.0
 11
46.333792
 21
-4.841799
 31
0.0
  0
LINE
  5
19a
100
AcDbEntity
  8
0
 62
7
100
AcDbLine
 10
0.333808
 20
-11.628607
 30
0.0
 11
0.333808
 21
-11.628607
 31
0.0
  0
LINE
  5
19b
100
AcDbEntity
  8
0
 62
7
100
AcDbLine
 10
0.333808
 20
-11.628607
 30
0.0
 11
0.333808
 21
-11.628607
 31
0.0
  0
LINE
  5
19c
100
AcDbEntity
  8
0
 62
7
100
AcDbLine
 10
0.333808
 20
-11.628607
 30
0.0
 11
0.333808
 21
-11.628607
 31
0.0
  0
LINE
  5
19d
100
AcDbEntity
  8
0
 62
7
100
AcDbLine
 10
0.333808
 20
-11.628607
 30
0.0
 11
0.333808
 21
-11.628607
 31
0.0
  0
LINE
  5
19e
100
AcDbEntity
  8
0
 62
7
100
AcDbLine
 10
82.333779
 20
-16.341795
 30
0.0
 11
82.333779
 21
-2.341800
 31
0.0
  0
LINE
  5
19f
100
AcDbEntity
  8
0
 62
7
100
AcDbLine
 10
82.333779
 20
-2.341800
 30
0.0
 11
68.333784
 21
-2.341800
 31
0.0
  0
LINE
  5
1a0
100
AcDbEntity
  8
0
 62
7
100
AcDbLine
 10
68.333784
 20
-2.341800
 30
0.0
 11
68.333784
 21
-16.341795
 31
0.0
  0
LINE
  5
1a1
100
AcDbEntity
  8
0
 62
7
100
AcDbLine
 10
68.333784
 20
-16.341795
 30
0.0
 11
82.333779
 21
-16.341795
 31
0.0
  0
LINE
  5
1a2
100
AcDbEntity
  8
0
 62
7
100
AcDbLine
 10
0.333808
 20
-11.628607
 30
0.0
 11
0.333808
 21
-11.628607
 31
0.0
  0
LINE
  5
1a3
100
AcDbEntity
  8
0
 62
7
100
AcDbLine
 10
0.333808
 20
-11.628607
 30
0.0
 11
0.333808
 21
-11.628607
 31
0.0
  0
LINE
  5
1a4
100
AcDbEntity
  8
0
 62
7
100
AcDbLine
 10
0.333808
 20
-11.628607
 30
0.0
 11
0.333808
 21
-11.628607
 31
0.0
  0
LINE
  5
1a5
100
AcDbEntity
  8
0
 62
7
100
AcDbLine
 10
0.333808
 20
-11.628607
 30
0.0
 11
0.333808
 21
-11.628607
 31
0.0
  0
LINE
  5
1a6
100
AcDbEntity
  8
0
 62
7
100
AcDbLine
 10
48.333791
 20
-41.345297
 30
0.0
 11
44.710293
 21
-27.822301
 31
0.0
  0
LINE
  5
1a7
100
AcDbEntity
  8
0
 62
7
100
AcDbLine
 10
44.710293
 20
-27.822301
 30
0.0
 11
31.187397
 21
-31.445800
 31
0.0
  0
LINE
  5
1a8
100
AcDbEntity
  8
0
 62
7
100
AcDbLine
 10
31.187397
 20
-31.445800
 30
0.0
 11
34.810796
 21
-44.968695
 31
0.0
  0
LINE
  5
1a9
100
AcDbEntity
  8
0
 62
7
100
AcDbLine
 10
34.810796
 20
-44.968695
 30
0.0
 11
48.333791
 21
-41.345297
 31
0.0
  0
LINE
  5
1aa
100
AcDbEntity
  8
0
 62
7
100
AcDbLine
 10
0.333808
 20
-11.628607
 30
0.0
 11
0.333808
 21
-11.628607
 31
0.0
  0
LINE
  5
1ab
100
AcDbEntity
  8
0
 62
7
100
AcDbLine
 10
0.333808
 20
-11.628607
 30
0.0
 11
0.333808
 21
-11.628607
 31
0.0
  0
LINE
  5
1ac
100
AcDbEntity
  8
0
 62
7
100
AcDbLine
 10
0.333808
 20
-11.628607
 30
0.0
 11
0.333808
 21
-11.628607
 31
0.0
  0
LINE
  5
1ad
100
AcDbEntity
  8
0
 62
7
100
AcDbLine
 10
0.333808
 20
-11.628607
 30
0.0
 11
0.333808
 21
-11.628607
 31
0.0
  0
LINE
  5
1ae
100
AcDbEntity
  8
0
 62
7
100
AcDbLine
 10
0.333808
 20
-11.628607
 30
0.0
 11
0.333808
 21
-11.628607
 31
0.0
  0
LINE
  5
1af
100
AcDbEntity
  8
0
 62
7
100
AcDbLine
 10
0.333808
 20
-11.628607
 30
0.0
 11
0.333808
 21
-11.628607
 31
0.0
  0
LINE
  5
1b0
100
AcDbEntity
  8
0
 62
7
100
AcDbLine
 10
0.333808
 20
-11.628607
 30
0.0
 11
0.333808
 21
-11.628607
 31
0.0
  0
LINE
  5
1b1
100
AcDbEntity
  8
0
 62
7
100
AcDbLine
 10
0.333808
 20
-11.628607
 30
0.0
 11
0.333808
 21
-11.628607
 31
0.0
  0
LINE
  5
1b2
100
AcDbEntity
  8
0
 62
7
100
AcDbLine
 10
0.333808
 20
-11.628607
 30
0.0
 11
0.333808
 21
-11.628607
 31
0.0
  0
LINE
  5
1b3
100
AcDbEntity
  8
0
 62
7
100
AcDbLine
 10
0.333808
 20
-11.628607
 30
0.0
 11
0.333808
 21
-11.628607
 31
0.0
  0
LINE
  5
1b4
100
AcDbEntity
  8
0
 62
7
100
AcDbLine
 10
0.333808
 20
-11.628607
 30
0.0
 11
0.333808
 21
-11.628607
 31
0.0
  0
LINE
  5
1b5
100
AcDbEntity
  8
0
 62
7
100
AcDbLine
 10
0.333808
 20
-11.628607
 30
0.0
 11
0.333808
 21
-11.628607
 31
0.0
  0
LINE
  5
1b6
100
AcDbEntity
  8
0
 62
7
100
AcDbLine
 10
26.945099
 20
-42.648996
 30
0.0
 11
18.716202
 21
-31.322800
 31
0.0
  0
LINE
  5
1b7
100
AcDbEntity
  8
0
 62
7
100
AcDbLine
 10
18.716202
 20
-31.322800
 30
0.0
 11
7.389925
 21
-39.551797
 31
0.0
  0
LINE
  5
1b8
100
AcDbEntity
  8
0
 62
7
100
AcDbLine
 10
7.389925
 20
-39.551797
 30
0.0
 11
15.618903
 21
-50.877993
 31
0.0
  0
LINE
  5
1b9
100
AcDbEntity
  8
0
 62
7
100
AcDbLine
 10
15.618903
 20
-50.877993
 30
0.0
 11
26.945099
 21
-42.648996
 31
0.0
  0
LINE
  5
1ba
100
AcDbEntity
  8
0
 62
7
100
AcDbLine
 10
0.333808
 20
-11.628607
 30
0.0
 11
0.333808
 21
-11.628607
 31
0.0
  0
LINE
  5
1bb
100
AcDbEntity
  8
0
 62
7
100
AcDbLine
 10
0.333808
 20
-11.628607
 30
0.0
 11
0.333808
 21
-11.628607
 31
0.0
  0
LINE
  5
1bc
100
AcDbEntity
  8
0
 62
7
100
AcDbLine
 10
0.333808
 20
-11.628607
 30
0.0
 11
0.333808
 21
-11.628607
 31
0.0
  0
LINE
  5
1bd
100
AcDbEntity
  8
0
 62
7
100
AcDbLine
 10
0.333808
 20
-11.628607
 30
0.0
 11
0.333808
 21
-11.628607
 31
0.0
  0
LINE
  5
1be
100
AcDbEntity
  8
0
 62
7
100
AcDbLine
 10
0.333808
 20
-11.628607
 30
0.0
 11
0.333808
 21
-11.628607
 31
0.0
  0
LINE
  5
1bf
100
AcDbEntity
  8
0
 62
7
100
AcDbLine
 10
0.333808
 20
-11.628607
 30
0.0
 11
0.333808
 21
-11.628607
 31
0.0
  0
LINE
  5
1c0
100
AcDbEntity
  8
0
 62
7
100
AcDbLine
 10
0.333808
 20
-11.628607
 30
0.0
 11
0.333808
 21
-11.628607
 31
0.0
  0
LINE
  5
1c1
100
AcDbEntity
  8
0
 62
7
100
AcDbLine
 10
0.333808
 20
-11.628607
 30
0.0
 11
0.333808
 21
-11.628607
 31
0.0
  0
LINE
  5
1c2
100
AcDbEntity
  8
0
 62
7
100
AcDbLine
 10
67.287185
 20
-41.555297
 30
0.0
 11
68.019884
 21
-27.574501
 31
0.0
  0
LINE
  5
1c3
100
AcDbEntity
  8
0
 62
7
100
AcDbLine
 10
68.019884
 20
-27.574501
 30
0.0
 11
54.039089
 21
-26.841802
 31
0.0
  0
LINE
  5
1c4
100
AcDbEntity
  8
0
 62
7
100
AcDbLine
 10
54.039089
 20
-26.841802
 30
0.0
 11
53.306390
 21
-40.822597
 31
0.0
  0
LINE
  5
1c5
100
AcDbEntity
  8
0
 62
7
100
AcDbLine
 10
53.306390
 20
-40.822597
 30
0.0
 11
67.287185
 21
-41.555297
 31
0.0
  0
LINE
  5
1c6
100
AcDbEntity
  8
0
 62
7
100
AcDbLine
 10
0.333808
 20
-11.628607
 30
0.0
 11
0.333808
 21
-11.628607
 31
0.0
  0
LINE
  5
1c7
100
AcDbEntity
  8
0
 62
7
100
AcDbLine
 10
0.333808
 20
-11.628607
 30
0.0
 11
0.333808
 21
-11.628607
 31
0.0
  0
LINE
  5
1c8
100
AcDbEntity
  8
0
 62
7
100
AcDbLine
 10
0.333808
 20
-11.628607
 30
0.0
 11
0.333808
 21
-11.628607
 31
0.0
  0
LINE
  5
1c9
100
AcDbEntity
  8
0
 62
7
100
AcDbLine
 10
0.333808
 20
-11.628607
 30
0.0
 11
0.333808
 21
-11.628607
 31
0.0
  0
LINE
  5
1ca
100
AcDbEntity
  8
0
 62
7
100
AcDbLine
 10
0.333808
 20
-11.628607
 30
0.0
 11
0.333808
 21
-11.628607
 31
0.0
  0
LINE
  5
1cb
100
AcDbEntity
  8
0
 62
7
100
AcDbLine
 10
0.333808
 20
-11.628607
 30
0.0
 11
0.333808
 21
-11.628607
 31
0.0
  0
LINE
  5
1cc
100
AcDbEntity
  8
0
 62
7
100
AcDbLine
 10
0.333808
 20
-11.628607
 30
0.0
 11
0.333808
 21
-11.628607
 31
0.0
  0
LINE
  5
1cd
100
AcDbEntity
  8
0
 62
7
100
AcDbLine
 10
0.333808
 20
-11.628607
 30
0.0
 11
0.333808
 21
-11.628607
 31
0.0
  0
LINE
  5
1ce
100
AcDbEntity
  8
0
 62
7
100
AcDbLine
 10
0.333808
 20
-11.628607
 30
0.0
 11
0.333808
 21
-11.628607
 31
0.0
  0
LINE
  5
1cf
100
AcDbEntity
  8
0
 62
7
100
AcDbLine
 10
0.333808
 20
-11.628607
 30
0.0
 11
0.333808
 21
-11.628607
 31
0.0
  0
LINE
  5
1d0
100
AcDbEntity
  8
0
 62
7
100
AcDbLine
 10
0.333808
 20
-11.628607
 30
0.0
 11
0.333808
 21
-11.628607
 31
0.0
  0
LINE
  5
1d1
100
AcDbEntity
  8
0
 62
7
100
AcDbLine
 10
0.333808
 20
-11.628607
 30
0.0
 11
0.333808
 21
-11.628607
 31
0.0
  0
LINE
  5
1d2
100
AcDbEntity
  8
0
 62
7
100
AcDbLine
 10
118.333767
 20
-28.341801
 30
0.0
 11
118.333767
 21
-14.341796
 31
0.0
  0
LINE
  5
1d3
100
AcDbEntity
  8
0
 62
7
100
AcDbLine
 10
118.333767
 20
-14.341796
 30
0.0
 11
104.333772
 21
-14.341796
 31
0.0
  0
LINE
  5
1d4
100
AcDbEntity
  8
0
 62
7
100
AcDbLine
 10
104.333772
 20
-14.341796
 30
0.0
 11
104.333772
 21
-28.341801
 31
0.0
  0
LINE
  5
1d5
100
AcDbEntity
  8
0
 62
7
100
AcDbLine
 10
104.333772
 20
-28.341801
 30
0.0
 11
118.333767
 21
-28.341801
 31
0.0
  0
LINE
  5
1d6
100
AcDbEntity
  8
0
 62
7
100
AcDbLine
 10
0.333808
 20
-11.628607
 30
0.0
 11
0.333808
 21
-11.628607
 31
0.0
  0
LINE
  5
1d7
100
AcDbEntity
  8
0
 62
7
100
AcDbLine
 10
0.333808
 20
-11.628607
 30
0.0
 11
0.333808
 21
-11.628607
 31
0.0
  0
LINE
  5
1d8
100
AcDbEntity
  8
0
 62
7
100
AcDbLine
 10
0.333808
 20
-11.628607
 30
0.0
 11
0.333808
 21
-11.628607
 31
0.0
  0
LINE
  5
1d9
100
AcDbEntity
  8
0
 62
7
100
AcDbLine
 10
0.333808
 20
-11.628607
 30
0.0
 11
0.333808
 21
-11.628607
 31
0.0
  0
LINE
  5
1da
100
AcDbEntity
  8
0
 62
7
100
AcDbLine
 10
0.333808
 20
-11.628607
 30
0.0
 11
0.333808
 21
-11.628607
 31
0.0
  0
LINE
  5
1db
100
AcDbEntity
  8
0
 62
7
100
AcDbLine
 10
0.333808
 20
-11.628607
 30
0.0
 11
0.333808
 21
-11.628607
 31
0.0
  0
LINE
  5
1dc
100
AcDbEntity
  8
0
 62
7
100
AcDbLine
 10
0.333808
 20
-11.628607
 30
0.0
 11
0.333808
 21
-11.628607
 31
0.0
  0
LINE
  5
1dd
100
AcDbEntity
  8
0
 62
7
100
AcDbLine
 10
0.333808
 20
-11.628607
 30
0.0
 11
0.333808
 21
-11.628607
 31
0.0
  0
LINE
  5
1de
100
AcDbEntity
  8
0
 62
7
100
AcDbLine
 10
64.333786
 20
-2.341800
 30
0.0
 11
64.333786
 21
11.658185
 31
0.0
  0
LINE
  5
1df
100
AcDbEntity
  8
0
 62
7
100
AcDbLine
 10
64.333786
 20
11.658185
 30
0.0
 11
50.333791
 21
11.658185
 31
0.0
  0
LINE
  5
1e0
100
AcDbEntity
  8
0
 62
7
100
AcDbLine
 10
50.333791
 20
11.658185
 30
0.0
 11
50.333791
 21
-2.341800
 31
0.0
  0
LINE
  5
1e1
100
AcDbEntity
  8
0
 62
7
100
AcDbLine
 10
50.333791
 20
-2.341800
 30
0.0
 11
64.333786
 21
-2.341800
 31
0.0
  0
LINE
  5
1e2
100
AcDbEntity
  8
0
 62
7
100
AcDbLine
 10
0.333808
 20
-11.628607
 30
0.0
 11
0.333808
 21
-11.628607
 31
0.0
  0
LINE
  5
1e3
100
AcDbEntity
  8
0
 62
7
100
AcDbLine
 10
0.333808
 20
-11.628607
 30
0.0
 11
0.333808
 21
-11.628607
 31
0.0
  0
LINE
  5
1e4
100
AcDbEntity
  8
0
 62
7
100
AcDbLine
 10
0.333808
 20
-11.628607
 30
0.0
 11
0.333808
 21
-11.628607
 31
0.0
  0
LINE
  5
1e5
100
AcDbEntity
  8
0
 62
7
100
AcDbLine
 10
0.333808
 20
-11.628607
 30
0.0
 11
0.333808
 21
-11.628607
 31
0.0
  0
LINE
  5
1e6
100
AcDbEntity
  8
0
 62
7
100
AcDbLine
 10
0.333808
 20
-11.628607
 30
0.0
 11
0.333808
 21
-11.628607
 31
0.0
  0
LINE
  5
1e7
100
AcDbEntity
  8
0
 62
7
100
AcDbLine
 10
0.333808
 20
-11.628607
 30
0.0
 11
0.333808
 21
-11.628607
 31
0.0
  0
LINE
  5
1e8
100
AcDbEntity
  8
0
 62
7
100
AcDbLine
 10
0.333808
 20
-11.628607
 30
0.0
 11
0.333808
 21
-11.628607
 31
0.0
  0
LINE
  5
1e9
100
AcDbEntity
  8
0
 62
7
100
AcDbLine
 10
0.333808
 20
-11.628607
 30
0.0
 11
0.333808
 21
-11.628607
 31
0.0
  0
LINE
  5
1ea
100
AcDbEntity
  8
0
 62
7
100
AcDbLine
 10
82.333779
 20
17.658183
 30
0.0
 11
82.333779
 21
31.658178
 31
0.0
  0
LINE
  5
1eb
100
AcDbEntity
  8
0
 62
7
100
AcDbLine
 10
82.333779
 20
31.658178
 30
0.0
 11
68.333784
 21
31.658178
 31
0.0
  0
LINE
  5
1ec
100
AcDbEntity
  8
0
 62
7
100
AcDbLine
 10
68.333784
 20
31.658178
 30
0.0
 11
68.333784
 21
17.658183
 31
0.0
  0
LINE
  5
1ed
100
AcDbEntity
  8
0
 62
7
100
AcDbLine
 10
68.333784
 20
17.658183
 30
0.0
 11
82.333779
 21
17.658183
 31
0.0
  0
LINE
  5
1ee
100
AcDbEntity
  8
0
 62
7
100
AcDbLine
 10
0.333808
 20
-11.628607
 30
0.0
 11
0.333808
 21
-11.628607
 31
0.0
  0
LINE
  5
1ef
100
AcDbEntity
  8
0
 62
7
100
AcDbLine
 10
0.333808
 20
-11.628607
 30
0.0
 11
0.333808
 21
-11.628607
 31
0.0
  0
LINE
  5
1f0
100
AcDbEntity
  8
0
 62
7
100
AcDbLine
 10
0.333808
 20
-11.628607
 30
0.0
 11
0.333808
 21
-11.628607
 31
0.0
  0
LINE
  5
1f1
100
AcDbEntity
  8
0
 62
7
100
AcDbLine
 10
0.333808
 20
-11.628607
 30
0.0
 11
0.333808
 21
-11.628607
 31
0.0
  0
LINE
  5
1f2
100
AcDbEntity
  8
0
 62
7
100
AcDbLine
 10
0.333808
 20
-11.628607
 30
0.0
 11
0.333808
 21
-11.628607
 31
0.0
  0
LINE
  5
1f3
100
AcDbEntity
  8
0
 62
7
100
AcDbLine
 10
0.333808
 20
-11.628607
 30
0.0
 11
0.333808
 21
-11.628607
 31
0.0
  0
LINE
  5
1f4
100
AcDbEntity
  8
0
 62
7
100
AcDbLine
 10
0.333808
 20
-11.628607
 30
0.0
 11
0.333808
 21
-11.628607
 31
0.0
  0
LINE
  5
1f5
100
AcDbEntity
  8
0
 62
7
100
AcDbLine
 10
0.333808
 20
-11.628607
 30
0.0
 11
0.333808
 21
-11.628607
 31
0.0
  0
LINE
  5
1f6
100
AcDbEntity
  8
0
 62
7
100
AcDbLine
 10
118.333767
 20
5.658187
 30
0.0
 11
118.333767
 21
19.658182
 31
0.0
  0
LINE
  5
1f7
100
AcDbEntity
  8
0
 62
7
100
AcDbLine
 10
118.333767
 20
19.658182
 30
0.0
 11
104.333772
 21
19.658182
 31
0.0
  0
LINE
  5
1f8
100
AcDbEntity
  8
0
 62
7
100
AcDbLine
 10
104.333772
 20
19.658182
 30
0.0
 11
104.333772
 21
5.658187
 31
0.0
  0
LINE
  5
1f9
100
AcDbEntity
  8
0
 62
7
100
AcDbLine
 10
104.333772
 20
5.658187
 30
0.0
 11
118.333767
 21
5.658187
 31
0.0
  0
LINE
  5
1fa
100
AcDbEntity
  8
0
 62
7
100
AcDbLine
 10
0.333808
 20
-11.628607
 30
0.0
 11
0.333808
 21
-11.628607
 31
0.0
  0
LINE
  5
1fb
100
AcDbEntity
  8
0
 62
7
100
AcDbLine
 10
0.333808
 20
-11.628607
 30
0.0
 11
0.333808
 21
-11.628607
 31
0.0
  0
LINE
  5
1fc
100
AcDbEntity
  8
0
 62
7
100
AcDbLine
 10
0.333808
 20
-11.628607
 30
0.0
 11
0.333808
 21
-11.628607
 31
0.0
  0
LINE
  5
1fd
100
AcDbEntity
  8
0
 62
7
100
AcDbLine
 10
0.333808
 20
-11.628607
 30
0.0
 11
0.333808
 21
-11.628607
 31
0.0
  0
SPLINE
  5
1fe
100
AcDbEntity
  8
0
 62
7
100
AcDbSpline
 70
8
 71
3
 72
8
 73
4
 74
0
 40
0
 40
0
 40
0
 40
0
 40
1
 40
1
 40
1
 40
1
 10
120.333766
 20
-29.341801
 30
0.0
 10
120.333766
 20
-29.894101
 30
0.0
 10
119.885766
 20
-30.341800
 30
0.0
 10
119.333767
 20
-30.341800
 30
0.0
  0
LINE
  5
1ff
100
AcDbEntity
  8
0
 62
7
100
AcDbLine
 10
120.333766
 20
-29.341801
 30
0.0
 11
120.333766
 21
20.658182
 31
0.0
  0
SPLINE
  5
200
100
AcDbEntity
  8
0
 62
7
100
AcDbSpline
 70
8
 71
3
 72
8
 73
4
 74
0
 40
0
 40
0
 40
0
 40
0
 40
1
 40
1
 40
1
 40
1
 10
119.333767
 20
21.658182
 30
0.0
 10
119.885766
 20
21.658182
 30
0.0
 10
120.333766
 20
21.210482
 30
0.0
 10
120.333766
 20
20.658182
 30
0.0
  0
LINE
  5
201
100
AcDbEntity
  8
0
 62
7
100
AcDbLine
 10
119.333767
 20
21.658182
 30
0.0
 11
102.833772
 21
21.658182
 31
0.0
  0
SPLINE
  5
202
100
AcDbEntity
  8
0
 62
7
100
AcDbSpline
 70
8
 71
3
 72
8
 73
4
 74
0
 40
0
 40
0
 40
0
 40
0
 40
1
 40
1
 40
1
 40
1
 10
102.833772
 20
21.658182
 30
0.0
 10
102.557772
 20
21.658182
 30
0.0
 10
102.333773
 20
21.882082
 30
0.0
 10
102.333773
 20
22.158181
 30
0.0
  0
LINE
  5
203
100
AcDbEntity
  8
0
 62
7
100
AcDbLine
 10
102.333773
 20
22.158181
 30
0.0
 11
102.333773
 21
30.158179
 31
0.0
  0
SPLINE
  5
204
100
AcDbEntity
  8
0
 62
7
100
AcDbSpline
 70
8
 71
3
 72
8
 73
4
 74
0
 40
0
 40
0
 40
0
 40
0
 40
1
 40
1
 40
1
 40
1
 10
101.833773
 20
30.658178
 30
0.0
 10
102.109773
 20
30.658178
 30
0.0
 10
102.333773
 20
30.434279
 30
0.0
 10
102.333773
 20
30.158179
 30
0.0
  0
LINE
  5
205
100
AcDbEntity
  8
0
 62
7
100
AcDbLine
 10
101.833773
 20
30.658178
 30
0.0
 11
84.833779
 21
30.658178
 31
0.0
  0
SPLINE
  5
206
100
AcDbEntity
  8
0
 62
7
100
AcDbSpline
 70
8
 71
3
 72
8
 73
4
 74
0
 40
0
 40
0
 40
0
 40
0
 40
1
 40
1
 40
1
 40
1
 10
84.833779
 20
30.658178
 30
0.0
 10
84.557679
 20
30.658178
 30
0.0
 10
84.333779
 20
30.882078
 30
0.0
 10
84.333779
 20
31.158178
 30
0.0
  0
LINE
  5
207
100
AcDbEntity
  8
0
 62
7
100
AcDbLine
 10
84.333779
 20
31.158178
 30
0.0
 11
84.333779
 21
33.158178
 31
0.0
  0
SPLINE
  5
208
100
AcDbEntity
  8
0
 62
7
100
AcDbSpline
 70
8
 71
3
 72
8
 73
4
 74
0
 40
0
 40
0
 40
0
 40
0
 40
1
 40
1
 40
1
 40
1
 10
83.833779
 20
33.658177
 30
0.0
 10
84.109879
 20
33.658177
 30
0.0
 10
84.333779
 20
33.434278
 30
0.0
 10
84.333779
 20
33.158178
 30
0.0
  0
LINE
  5
209
100
AcDbEntity
  8
0
 62
7
100
AcDbLine
 10
83.833779
 20
33.658177
 30
0.0
 11
66.833785
 21
33.658177
 31
0.0
  0
SPLINE
  5
20a
100
AcDbEntity
  8
0
 62
7
100
AcDbSpline
 70
8
 71
3
 72
8
 73
4
 74
0
 40
0
 40
0
 40
0
 40
0
 40
1
 40
1
 40
1
 40
1
 10
66.333785
 20
33.158178
 30
0.0
 10
66.333785
 20
33.434278
 30
0.0
 10
66.557685
 20
33.658177
 30
0.0
 10
66.833785
 20
33.658177
 30
0.0
  0
LINE
  5
20b
100
AcDbEntity
  8
0
 62
7
100
AcDbLine
 10
66.333785
 20
33.158178
 30
0.0
 11
66.333785
 21
31.158178
 31
0.0
  0
SPLINE
  5
20c
100
AcDbEntity
  8
0
 62
7
100
AcDbSpline
 70
8
 71
3
 72
8
 73
4
 74
0
 40
0
 40
0
 40
0
 40
0
 40
1
 40
1
 40
1
 40
1
 10
66.333785
 20
31.158178
 30
0.0
 10
66.333785
 20
30.882078
 30
0.0
 10
66.109885
 20
30.658178
 30
0.0
 10
65.833785
 20
30.658178
 30
0.0
  0
LINE
  5
20d
100
AcDbEntity
  8
0
 62
7
100
AcDbLine
 10
65.833785
 20
30.658178
 30
0.0
 11
48.833791
 21
30.658178
 31
0.0
  0
SPLINE
  5
20e
100
AcDbEntity
  8
0
 62
7
100
AcDbSpline
 70
8
 71
3
 72
8
 73
4
 74
0
 40
0
 40
0
 40
0
 40
0
 40
1
 40
1
 40
1
 40
1
 10
48.333791
 20
30.158179
 30
0.0
 10
48.333791
 20
30.434279
 30
0.0
 10
48.557691
 20
30.658178
 30
0.0
 10
48.833791
 20
30.658178
 30
0.0
  0
LINE
  5
20f
100
AcDbEntity
  8
0
 62
7
100
AcDbLine
 10
48.333791
 20
30.158179
 30
0.0
 11
48.333791
 21
28.658179
 31
0.0
  0
SPLINE
  5
210
100
AcDbEntity
  8
0
 62
7
100
AcDbSpline
 70
8
 71
3
 72
8
 73
4
 74
0
 40
0
 40
0
 40
0
 40
0
 40
1
 40
1
 40
1
 40
1
 10
48.333791
 20
28.658179
 30
0.0
 10
48.333791
 20
28.382079
 30
0.0
 10
48.109891
 20
28.158179
 30
0.0
 10
47.833791
 20
28.158179
 30
0.0
  0
LINE
  5
211
100
AcDbEntity
  8
0
 62
7
100
AcDbLine
 10
47.833791
 20
28.158179
 30
0.0
 11
31.333797
 21
28.158179
 31
0.0
  0
SPLINE
  5
212
100
AcDbEntity
  8
0
 62
7
100
AcDbSpline
 70
8
 71
3
 72
8
 73
4
 74
0
 40
0
 40
0
 40
0
 40
0
 40
1
 40
1
 40
1
 40
1
 10
30.333797
 20
27.158180
 30
0.0
 10
30.333797
 20
27.710480
 30
0.0
 10
30.781497
 20
28.158179
 30
0.0
 10
31.333797
 20
28.158179
 30
0.0
  0
LINE
  5
213
100
AcDbEntity
  8
0
 62
7
100
AcDbLine
 10
30.333797
 20
27.158180
 30
0.0
 11
30.333797
 21
-14.847646
 31
0.0
  0
LINE
  5
214
100
AcDbEntity
  8
0
 62
7
100
AcDbLine
 10
2.760307
 20
-34.880999
 30
0.0
 11
30.333797
 21
-14.847646
 31
0.0
  0
SPLINE
  5
215
100
AcDbEntity
  8
0
 62
7
100
AcDbSpline
 70
8
 71
3
 72
8
 73
4
 74
0
 40
0
 40
0
 40
0
 40
0
 40
1
 40
1
 40
1
 40
1
 10
2.539067
 20
-36.277798
 30
0.0
 10
2.214447
 20
-35.830998
 30
0.0
 10
2.313497
 20
-35.205599
 30
0.0
 10
2.760307
 20
-34.880999
 30
0.0
  0
LINE
  5
216
100
AcDbEntity
  8
0
 62
7
100
AcDbLine
 10
2.539067
 20
-36.277798
 30
0.0
 11
17.233702
 21
-56.503191
 31
0.0
  0
SPLINE
  5
217
100
AcDbEntity
  8
0
 62
7
100
AcDbSpline
 70
8
 71
3
 72
8
 73
4
 74
0
 40
0
 40
0
 40
0
 40
0
 40
1
 40
1
 40
1
 40
1
 10
18.630502
 20
-56.724391
 30
0.0
 10
18.183702
 20
-57.048991
 30
0.0
 10
17.558302
 20
-56.949991
 30
0.0
 10
17.233702
 20
-56.503191
 30
0.0
  0
LINE
  5
218
100
AcDbEntity
  8
0
 62
7
100
AcDbLine
 10
18.630502
 20
-56.724391
 30
0.0
 11
31.412997
 21
-47.437394
 31
0.0
  0
LINE
  5
219
100
AcDbEntity
  8
0
 62
7
100
AcDbLine
 10
31.412997
 20
-47.437394
 30
0.0
 11
69.287184
 21
-43.456696
 31
0.0
  0
LINE
  5
21a
100
AcDbEntity
  8
0
 62
7
100
AcDbLine
 10
69.287184
 20
-43.456696
 30
0.0
 11
78.470381
 21
-30.341800
 31
0.0
  0
LINE
  5
21b
100
AcDbEntity
  8
0
 62
7
100
AcDbLine
 10
119.333767
 20
-30.341800
 30
0.0
 11
78.470381
 21
-30.341800
 31
0.0
  0
LINE
  5
21c
100
AcDbEntity
  8
0
 62
7
100
AcDbLine
 10
7.389925
 20
-39.551797
 30
0.0
 11
15.618903
 21
-50.877993
 31
0.0
  0
LINE
  5
21d
100
AcDbEntity
  8
0
 62
7
100
AcDbLine
 10
18.716202
 20
-31.322800
 30
0.0
 11
7.389925
 21
-39.551797
 31
0.0
  0
LINE
  5
21e
100
AcDbEntity
  8
0
 62
7
100
AcDbLine
 10
26.945099
 20
-42.648996
 30
0.0
 11
18.716202
 21
-31.322800
 31
0.0
  0
LINE
  5
21f
100
AcDbEntity
  8
0
 62
7
100
AcDbLine
 10
15.618903
 20
-50.877993
 30
0.0
 11
26.945099
 21
-42.648996
 31
0.0
  0
LINE
  5
220
100
AcDbEntity
  8
0
 62
7
100
AcDbLine
 10
31.187397
 20
-31.445800
 30
0.0
 11
34.810796
 21
-44.968695
 31
0.0
  0
LINE
  5
221
100
AcDbEntity
  8
0
 62
7
100
AcDbLine
 10
44.710293
 20
-27.822301
 30
0.0
 11
31.187397
 21
-31.445800
 31
0.0
  0
LINE
  5
222
100
AcDbEntity
  8
0
 62
7
100
AcDbLine
 10
48.333791
 20
-41.345297
 30
0.0
 11
44.710293
 21
-27.822301
 31
0.0
  0
LINE
  5
223
100
AcDbEntity
  8
0
 62
7
100
AcDbLine
 10
34.810796
 20
-44.968695
 30
0.0
 11
48.333791
 21
-41.345297
 31
0.0
  0
LINE
  5
224
100
AcDbEntity
  8
0
 62
7
100
AcDbLine
 10
54.039089
 20
-26.841802
 30
0.0
 11
53.306390
 21
-40.822597
 31
0.0
  0
LINE
  5
225
100
AcDbEntity
  8
0
 62
7
100
AcDbLine
 10
68.019884
 20
-27.574501
 30
0.0
 11
54.039089
 21
-26.841802
 31
0.0
  0
LINE
  5
226
100
AcDbEntity
  8
0
 62
7
100
AcDbLine
 10
67.287185
 20
-41.555297
 30
0.0
 11
68.019884
 21
-27.574501
 31
0.0
  0
LINE
  5
227
100
AcDbEntity
  8
0
 62
7
100
AcDbLine
 10
53.306390
 20
-40.822597
 30
0.0
 11
67.287185
 21
-41.555297
 31
0.0
  0
LINE
  5
228
100
AcDbEntity
  8
0
 62
7
100
AcDbLine
 10
118.333767
 20
5.658187
 30
0.0
 11
118.333767
 21
19.658182
 31
0.0
  0
LINE
  5
229
100
AcDbEntity
  8
0
 62
7
100
AcDbLine
 10
104.333772
 20
5.658187
 30
0.0
 11
118.333767
 21
5.658187
 31
0.0
  0
LINE
  5
22a
100
AcDbEntity
  8
0
 62
7
100
AcDbLine
 10
104.333772
 20
19.658182
 30
0.0
 11
104.333772
 21
5.658187
 31
0.0
  0
LINE
  5
22b
100
AcDbEntity
  8
0
 62
7
100
AcDbLine
 10
118.333767
 20
19.658182
 30
0.0
 11
104.333772
 21
19.658182
 31
0.0
  0
LINE
  5
22c
100
AcDbEntity
  8
0
 62
7
100
AcDbLine
 10
118.333767
 20
-28.341801
 30
0.0
 11
118.333767
 21
-14.341796
 31
0.0
  0
LINE
  5
22d
100
AcDbEntity
  8
0
 62
7
100
AcDbLine
 10
104.333772
 20
-28.341801
 30
0.0
 11
118.333767
 21
-28.341801
 31
0.0
  0
LINE
  5
22e
100
AcDbEntity
  8
0
 62
7
100
AcDbLine
 10
104.333772
 20
-14.341796
 30
0.0
 11
104.333772
 21
-28.341801
 31
0.0
  0
LINE
  5
22f
100
AcDbEntity
  8
0
 62
7
100
AcDbLine
 10
118.333767
 20
-14.341796
 30
0.0
 11
104.333772
 21
-14.341796
 31
0.0
  0
LINE
  5
230
100
AcDbEntity
  8
0
 62
7
100
AcDbLine
 10
100.333773
 20
14.658184
 30
0.0
 11
100.333773
 21
28.658179
 31
0.0
  0
LINE
  5
231
100
AcDbEntity
  8
0
 62
7
100
AcDbLine
 10
86.333778
 20
14.658184
 30
0.0
 11
100.333773
 21
14.658184
 31
0.0
  0
LINE
  5
232
100
AcDbEntity
  8
0
 62
7
100
AcDbLine
 10
86.333778
 20
28.658179
 30
0.0
 11
86.333778
 21
14.658184
 31
0.0
  0
LINE
  5
233
100
AcDbEntity
  8
0
 62
7
100
AcDbLine
 10
100.333773
 20
28.658179
 30
0.0
 11
86.333778
 21
28.658179
 31
0.0
  0
LINE
  5
234
100
AcDbEntity
  8
0
 62
7
100
AcDbLine
 10
100.333773
 20
-2.341800
 30
0.0
 11
100.333773
 21
11.658185
 31
0.0
  0
LINE
  5
235
100
AcDbEntity
  8
0
 62
7
100
AcDbLine
 10
86.333778
 20
-2.341800
 30
0.0
 11
100.333773
 21
-2.341800
 31
0.0
  0
LINE
  5
236
100
AcDbEntity
  8
0
 62
7
100
AcDbLine
 10
86.333778
 20
11.658185
 30
0.0
 11
86.333778
 21
-2.341800
 31
0.0
  0
LINE
  5
237
100
AcDbEntity
  8
0
 62
7
100
AcDbLine
 10
100.333773
 20
11.658185
 30
0.0
 11
86.333778
 21
11.658185
 31
0.0
  0
LINE
  5
238
100
AcDbEntity
  8
0
 62
7
100
AcDbLine
 10
100.333773
 20
-19.341794
 30
0.0
 11
100.333773
 21
-5.341799
 31
0.0
  0
LINE
  5
239
100
AcDbEntity
  8
0
 62
7
100
AcDbLine
 10
86.333778
 20
-19.341794
 30
0.0
 11
100.333773
 21
-19.341794
 31
0.0
  0
LINE
  5
23a
100
AcDbEntity
  8
0
 62
7
100
AcDbLine
 10
86.333778
 20
-5.341799
 30
0.0
 11
86.333778
 21
-19.341794
 31
0.0
  0
LINE
  5
23b
100
AcDbEntity
  8
0
 62
7
100
AcDbLine
 10
100.333773
 20
-5.341799
 30
0.0
 11
86.333778
 21
-5.341799
 31
0.0
  0
LINE
  5
23c
100
AcDbEntity
  8
0
 62
7
100
AcDbLine
 10
82.333779
 20
17.658183
 30
0.0
 11
82.333779
 21
31.658178
 31
0.0
  0
LINE
  5
23d
100
AcDbEntity
  8
0
 62
7
100
AcDbLine
 10
68.333784
 20
17.658183
 30
0.0
 11
82.333779
 21
17.658183
 31
0.0
  0
LINE
  5
23e
100
AcDbEntity
  8
0
 62
7
100
AcDbLine
 10
68.333784
 20
31.658178
 30
0.0
 11
68.333784
 21
17.658183
 31
0.0
  0
LINE
  5
23f
100
AcDbEntity
  8
0
 62
7
100
AcDbLine
 10
82.333779
 20
31.658178
 30
0.0
 11
68.333784
 21
31.658178
 31
0.0
  0
LINE
  5
240
100
AcDbEntity
  8
0
 62
7
100
AcDbLine
 10
82.333779
 20
0.658189
 30
0.0
 11
82.333779
 21
14.658184
 31
0.0
  0
LINE
  5
241
100
AcDbEntity
  8
0
 62
7
100
AcDbLine
 10
68.333784
 20
0.658189
 30
0.0
 11
82.333779
 21
0.658189
 31
0.0
  0
LINE
  5
242
100
AcDbEntity
  8
0
 62
7
100
AcDbLine
 10
68.333784
 20
14.658184
 30
0.0
 11
68.333784
 21
0.658189
 31
0.0
  0
LINE
  5
243
100
AcDbEntity
  8
0
 62
7
100
AcDbLine
 10
82.333779
 20
14.658184
 30
0.0
 11
68.333784
 21
14.658184
 31
0.0
  0
LINE
  5
244
100
AcDbEntity
  8
0
 62
7
100
AcDbLine
 10
82.333779
 20
-16.341795
 30
0.0
 11
82.333779
 21
-2.341800
 31
0.0
  0
LINE
  5
245
100
AcDbEntity
  8
0
 62
7
100
AcDbLine
 10
68.333784
 20
-16.341795
 30
0.0
 11
82.333779
 21
-16.341795
 31
0.0
  0
LINE
  5
246
100
AcDbEntity
  8
0
 62
7
100
AcDbLine
 10
68.333784
 20
-2.341800
 30
0.0
 11
68.333784
 21
-16.341795
 31
0.0
  0
LINE
  5
247
100
AcDbEntity
  8
0
 62
7
100
AcDbLine
 10
82.333779
 20
-2.341800
 30
0.0
 11
68.333784
 21
-2.341800
 31
0.0
  0
LINE
  5
248
100
AcDbEntity
  8
0
 62
7
100
AcDbLine
 10
64.333786
 20
14.658184
 30
0.0
 11
64.333786
 21
28.658179
 31
0.0
  0
LINE
  5
249
100
AcDbEntity
  8
0
 62
7
100
AcDbLine
 10
50.333791
 20
14.658184
 30
0.0
 11
64.333786
 21
14.658184
 31
0.0
  0
LINE
  5
24a
100
AcDbEntity
  8
0
 62
7
100
AcDbLine
 10
50.333791
 20
28.658179
 30
0.0
 11
50.333791
 21
14.658184
 31
0.0
  0
LINE
  5
24b
100
AcDbEntity
  8
0
 62
7
100
AcDbLine
 10
64.333786
 20
28.658179
 30
0.0
 11
50.333791
 21
28.658179
 31
0.0
  0
LINE
  5
24c
100
AcDbEntity
  8
0
 62
7
100
AcDbLine
 10
64.333786
 20
-2.341800
 30
0.0
 11
64.333786
 21
11.658185
 31
0.0
  0
LINE
  5
24d
100
AcDbEntity
  8
0
 62
7
100
AcDbLine
 10
50.333791
 20
-2.341800
 30
0.0
 11
64.333786
 21
-2.341800
 31
0.0
  0
LINE
  5
24e
100
AcDbEntity
  8
0
 62
7
100
AcDbLine
 10
50.333791
 20
11.658185
 30
0.0
 11
50.333791
 21
-2.341800
 31
0.0
  0
LINE
  5
24f
100
AcDbEntity
  8
0
 62
7
100
AcDbLine
 10
64.333786
 20
11.658185
 30
0.0
 11
50.333791
 21
11.658185
 31
0.0
  0
LINE
  5
250
100
AcDbEntity
  8
0
 62
7
100
AcDbLine
 10
64.333786
 20
-19.341794
 30
0.0
 11
64.333786
 21
-5.341799
 31
0.0
  0
LINE
  5
251
100
AcDbEntity
  8
0
 62
7
100
AcDbLine
 10
50.333791
 20
-19.341794
 30
0.0
 11
64.333786
 21
-19.341794
 31
0.0
  0
LINE
  5
252
100
AcDbEntity
  8
0
 62
7
100
AcDbLine
 10
50.333791
 20
-5.341799
 30
0.0
 11
50.333791
 21
-19.341794
 31
0.0
  0
LINE
  5
253
100
AcDbEntity
  8
0
 62
7
100
AcDbLine
 10
64.333786
 20
-5.341799
 30
0.0
 11
50.333791
 21
-5.341799
 31
0.0
  0
LINE
  5
254
100
AcDbEntity
  8
0
 62
7
100
AcDbLine
 10
46.333792
 20
12.158185
 30
0.0
 11
46.333792
 21
26.158180
 31
0.0
  0
LINE
  5
255
100
AcDbEntity
  8
0
 62
7
100
AcDbLine
 10
32.333797
 20
12.158185
 30
0.0
 11
46.333792
 21
12.158185
 31
0.0
  0
LINE
  5
256
100
AcDbEntity
  8
0
 62
7
100
AcDbLine
 10
32.333797
 20
26.158180
 30
0.0
 11
32.333797
 21
12.158185
 31
0.0
  0
LINE
  5
257
100
AcDbEntity
  8
0
 62
7
100
AcDbLine
 10
46.333792
 20
26.158180
 30
0.0
 11
32.333797
 21
26.158180
 31
0.0
  0
LINE
  5
258
100
AcDbEntity
  8
0
 62
7
100
AcDbLine
 10
46.333792
 20
-4.841799
 30
0.0
 11
46.333792
 21
9.158186
 31
0.0
  0
LINE
  5
259
100
AcDbEntity
  8
0
 62
7
100
AcDbLine
 10
32.333797
 20
-4.841799
 30
0.0
 11
46.333792
 21
-4.841799
 31
0.0
  0
LINE
  5
25a
100
AcDbEntity
  8
0
 62
7
100
AcDbLine
 10
32.333797
 20
9.158186
 30
0.0
 11
32.333797
 21
-4.841799
 31
0.0
  0
LINE
  5
25b
100
AcDbEntity
  8
0
 62
7
100
AcDbLine
 10
46.333792
 20
9.158186
 30
0.0
 11
32.333797
 21
9.158186
 31
0.0
  0
LINE
  5
25c
100
AcDbEntity
  8
0
 62
7
100
AcDbLine
 10
46.333792
 20
-21.841803
 30
0.0
 11
46.333792
 21
-7.841798
 31
0.0
  0
LINE
  5
25d
100
AcDbEntity
  8
0
 62
7
100
AcDbLine
 10
32.333797
 20
-21.841803
 30
0.0
 11
46.333792
 21
-21.841803
 31
0.0
  0
LINE
  5
25e
100
AcDbEntity
  8
0
 62
7
100
AcDbLine
 10
32.333797
 20
-7.841798
 30
0.0
 11
32.333797
 21
-21.841803
 31
0.0
  0
LINE
  5
25f
100
AcDbEntity
  8
0
 62
7
100
AcDbLine
 10
46.333792
 20
-7.841798
 30
0.0
 11
32.333797
 21
-7.841798
 31
0.0
  0
LINE
  5
260
100
AcDbEntity
  8
0
 62
7
100
AcDbLine
 10
118.333767
 20
-11.341802
 30
0.0
 11
118.333767
 21
2.658188
 31
0.0
  0
LINE
  5
261
100
AcDbEntity
  8
0
 62
7
100
AcDbLine
 10
104.333772
 20
-11.341802
 30
0.0
 11
118.333767
 21
-11.341802
 31
0.0
  0
LINE
  5
262
100
AcDbEntity
  8
0
 62
7
100
AcDbLine
 10
104.333772
 20
2.658188
 30
0.0
 11
104.333772
 21
-11.341802
 31
0.0
  0
LINE
  5
263
100
AcDbEntity
  8
0
 62
7
100
AcDbLine
 10
118.333767
 20
2.658188
 30
0.0
 11
104.333772
 21
2.658188
 31
0.0
  0
ENDSEC
  0
SECTION
  2
OBJECTS
  0
DICTIONARY
  5
C
330
0
100
AcDbDictionary
  3
ACAD_GROUP
350
D
  3
ACAD_MLINESTYLE
350
17
  0
DICTIONARY
  5
D
330
C
100
AcDbDictionary
  0
DICTIONARY
  5
1A
330
C
100
AcDbDictionary
  0
DICTIONARY
  5
17
330
C
100
AcDbDictionary
  3
STANDARD
350
18
  0
DICTIONARY
  5
19
330
C
100
AcDbDictionary
  0
ENDSEC
  0
EOF
