  0
SECTION
  2
HEADER
  9
$ACADVER
  1
AC1014
  9
$HANDSEED
  5
FFFF
  9
$MEASUREMENT
 70
     1
  0
ENDSEC
  0
SECTION
  2
TABLES
  0
TABLE
  2
VPORT
  5
8
330
0
100
AcDbSymbolTable
 70
     4
  0
VPORT
  5
2E
330
8
100
AcDbSymbolTableRecord
100
AcDbViewportTableRecord
  2
*ACTIVE
 70
     0
 10
0.0
 20
0.0
 11
1.0
 21
1.0
 12
210.0
 22
148.5
 13
0.0
 23
0.0
 14
10.0
 24
10.0
 15
10.0
 25
10.0
 16
0.0
 26
0.0
 36
1.0
 17
0.0
 27
0.0
 37
0.0
 40
341.0
 41
1.24
 42
50.0
 43
0.0
 44
0.0
 50
0.0
 51
0.0
 71
     0
 72
   100
 73
     1
 74
     3
 75
     0
 76
     0
 77
     0
 78
     0
  0
ENDTAB
  0
TABLE
  2
LTYPE
  5
5
330
0
100
AcDbSymbolTable
 70
     1
  0
LTYPE
  5
14
330
5
100
AcDbSymbolTableRecord
100
AcDbLinetypeTableRecord
  2
BYBLOCK
 70
     0
  3

 72
    65
 73
     0
 40
0.0
  0
LTYPE
  5
15
330
5
100
AcDbSymbolTableRecord
100
AcDbLinetypeTableRecord
  2
BYLAYER
 70
     0
  3

 72
    65
 73
     0
 40
0.0
  0
LTYPE
  5
16
330
5
100
AcDbSymbolTableRecord
100
AcDbLinetypeTableRecord
  2
CONTINUOUS
 70
     0
  3
Solid line
 72
    65
 73
     0
 40
0.0
  0
ENDTAB
  0
TABLE
  2
LAYER
  5
2
100
AcDbSymbolTable
 70
1
  0
LAYER
  5
50
100
AcDbSymbolTableRecord
100
AcDbLayerTableRecord
  2
0
 70
0
  6
CONTINUOUS
  0
ENDTAB
  0
TABLE
  2
STYLE
  5
3
330
0
100
AcDbSymbolTable
 70
     1
  0
STYLE
  5
11
330
3
100
AcDbSymbolTableRecord
100
AcDbTextStyleTableRecord
  2
STANDARD
 70
     0
 40
0.0
 41
1.0
 50
0.0
 71
     0
 42
2.5
  3
txt
  4

  0
ENDTAB
  0
TABLE
  2
VIEW
  5
6
330
0
100
AcDbSymbolTable
 70
     0
  0
ENDTAB
  0
TABLE
  2
UCS
  5
7
330
0
100
AcDbSymbolTable
 70
     0
  0
ENDTAB
  0
TABLE
  2
APPID
  5
9
330
0
100
AcDbSymbolTable
 70
     2
  0
APPID
  5
12
330
9
100
AcDbSymbolTableRecord
100
AcDbRegAppTableRecord
  2
ACAD
 70
     0
  0
ENDTAB
  0
TABLE
  2
DIMSTYLE
  5
A
330
0
100
AcDbSymbolTable
 70
     1
  0
DIMSTYLE
105
27
330
A
100
AcDbSymbolTableRecord
100
AcDbDimStyleTableRecord
  2
ISO-25
 70
     0
  3

  4

  5

  6

  7

 40
1.0
 41
2.5
 42
0.625
 43
3.75
 44
1.25
 45
0.0
 46
0.0
 47
0.0
 48
0.0
140
2.5
141
2.5
142
0.0
143
0.03937007874016
144
1.0
145
0.0
146
1.0
147
0.625
 71
     0
 72
     0
 73
     0
 74
     0
 75
     0
 76
     0
 77
     1
 78
     8
170
     0
171
     3
172
     1
173
     0
174
     0
175
     0
176
     0
177
     0
178
     0
270
     2
271
     2
272
     2
273
     2
274
     3
340
11
275
     0
280
     0
281
     0
282
     0
283
     0
284
     8
285
     0
286
     0
287
     3
288
     0
  0
ENDTAB
  0
TABLE
  2
BLOCK_RECORD
  5
1
330
0
100
AcDbSymbolTable
 70
     1
  0
BLOCK_RECORD
  5
1F
330
1
100
AcDbSymbolTableRecord
100
AcDbBlockTableRecord
  2
*MODEL_SPACE
  0
BLOCK_RECORD
  5
1B
330
1
100
AcDbSymbolTableRecord
100
AcDbBlockTableRecord
  2
*PAPER_SPACE
  0
ENDTAB
  0
ENDSEC
  0
SECTION
  2
BLOCKS
  0
BLOCK
  5
20
330
1F
100
AcDbEntity
  8
0
100
AcDbBlockBegin
  2
*MODEL_SPACE
 70
     0
 10
0.0
 20
0.0
 30
0.0
  3
*MODEL_SPACE
  1

  0
ENDBLK
  5
21
330
1F
100
AcDbEntity
  8
0
100
AcDbBlockEnd
  0
BLOCK
  5
1C
330
1B
100
AcDbEntity
 67
     1
  8
0
100
AcDbBlockBegin
  2
*PAPER_SPACE
  1

  0
ENDBLK
  5
1D
330
1B
100
AcDbEntity
 67
     1
  8
0
100
AcDbBlockEnd
  0
ENDSEC
  0
SECTION
  2
ENTITIES
  0
LWPOLYLINE
  5
100
100
AcDbEntity
  8
0
 62
7
100
AcDbPolyline
 90
152
 70
1
 10
122.349958
 20
-11.628607
 30
0.0
 10
122.349958
 20
-11.628607
 30
0.0
 10
122.349958
 20
-11.628607
 30
0.0
 10
122.349958
 20
-11.628607
 30
0.0
 10
122.349958
 20
-11.628607
 30
0.0
 10
122.349958
 20
-11.628607
 30
0.0
 10
122.349958
 20
-11.628607
 30
0.0
 10
122.349958
 20
-11.628607
 30
0.0
 10
122.349958
 20
-11.628607
 30
0.0
 10
122.349958
 20
-11.628607
 30
0.0
 10
122.349958
 20
-11.628607
 30
0.0
 10
122.349958
 20
-11.628607
 30
0.0
 10
122.349958
 20
-11.628607
 30
0.0
 10
122.349958
 20
-11.628607
 30
0.0
 10
122.349958
 20
-11.628607
 30
0.0
 10
122.349958
 20
-11.628607
 30
0.0
 10
122.349958
 20
-11.628607
 30
0.0
 10
122.349958
 20
-11.628607
 30
0.0
 10
122.349958
 20
-11.628607
 30
0.0
 10
122.349958
 20
-11.628607
 30
0.0
 10
122.349958
 20
-11.628607
 30
0.0
 10
122.349958
 20
-11.628607
 30
0.0
 10
122.349958
 20
-11.628607
 30
0.0
 10
122.349958
 20
-11.628607
 30
0.0
 10
122.349958
 20
-11.628607
 30
0.0
 10
122.349958
 20
-11.628607
 30
0.0
 10
122.349958
 20
-11.628607
 30
0.0
 10
122.349958
 20
-11.628607
 30
0.0
 10
122.349958
 20
-11.628607
 30
0.0
 10
122.349958
 20
-11.628607
 30
0.0
 10
122.349958
 20
-11.628607
 30
0.0
 10
122.349958
 20
-11.628607
 30
0.0
 10
122.349958
 20
-11.628607
 30
0.0
 10
122.349958
 20
-11.628607
 30
0.0
 10
122.349958
 20
-11.628607
 30
0.0
 10
122.349958
 20
-11.628607
 30
0.0
 10
122.349958
 20
-11.628607
 30
0.0
 10
122.349958
 20
-11.628607
 30
0.0
 10
122.349958
 20
-11.628607
 30
0.0
 10
122.349958
 20
-11.628607
 30
0.0
 10
122.349958
 20
-11.628607
 30
0.0
 10
122.349958
 20
-11.628607
 30
0.0
 10
122.349958
 20
-11.628607
 30
0.0
 10
122.349958
 20
-11.628607
 30
0.0
 10
122.349958
 20
-11.628607
 30
0.0
 10
122.349958
 20
-11.628607
 30
0.0
 10
122.349958
 20
-11.628607
 30
0.0
 10
122.349958
 20
-11.628607
 30
0.0
 10
122.349958
 20
-11.628607
 30
0.0
 10
122.349958
 20
-11.628607
 30
0.0
 10
122.349958
 20
-11.628607
 30
0.0
 10
122.349958
 20
-11.628607
 30
0.0
 10
122.349958
 20
-11.628607
 30
0.0
 10
122.349958
 20
-11.628607
 30
0.0
 10
122.349958
 20
-11.628607
 30
0.0
 10
122.349958
 20
-11.628607
 30
0.0
 10
122.349958
 20
-11.628607
 30
0.0
 10
122.349958
 20
-11.628607
 30
0.0
 10
122.349958
 20
-11.628607
 30
0.0
 10
122.349958
 20
-11.628607
 30
0.0
 10
122.349958
 20
-11.628607
 30
0.0
 10
122.349958
 20
-11.628607
 30
0.0
 10
122.349958
 20
-11.628607
 30
0.0
 10
122.349958
 20
-11.628607
 30
0.0
 10
122.349958
 20
-11.628607
 30
0.0
 10
122.349958
 20
-11.628607
 30
0.0
 10
122.349958
 20
-11.628607
 30
0.0
 10
122.349958
 20
-11.628607
 30
0.0
 10
122.349958
 20
-11.628607
 30
0.0
 10
122.349958
 20
-11.628607
 30
0.0
 10
122.349958
 20
-11.628607
 30
0.0
 10
122.349958
 20
-11.628607
 30
0.0
 10
122.349958
 20
-11.628607
 30
0.0
 10
122.349958
 20
-11.628607
 30
0.0
 10
122.349958
 20
-11.628607
 30
0.0
 10
122.349958
 20
-11.628607
 30
0.0
 10
122.349958
 20
-11.628607
 30
0.0
 10
122.349958
 20
-11.628607
 30
0.0
 10
122.349958
 20
-11.628607
 30
0.0
 10
122.349958
 20
-11.628607
 30
0.0
 10
122.349958
 20
-11.628607
 30
0.0
 10
122.349958
 20
-11.628607
 30
0.0
 10
122.349958
 20
-11.628607
 30
0.0
 10
122.349958
 20
-11.628607
 30
0.0
 10
122.349958
 20
-11.628607
 30
0.0
 10
122.349958
 20
-11.628607
 30
0.0
 10
122.349958
 20
-11.628607
 30
0.0
 10
122.349958
 20
-11.628607
 30
0.0
 10
122.349958
 20
-11.628607
 30
0.0
 10
122.349958
 20
-11.628607
 30
0.0
 10
122.349958
 20
-11.628607
 30
0.0
 10
122.349958
 20
-11.628607
 30
0.0
 10
122.349958
 20
-11.628607
 30
0.0
 10
122.349958
 20
-11.628607
 30
0.0
 10
122.349958
 20
-11.628607
 30
0.0
 10
122.349958
 20
-11.628607
 30
0.0
 10
122.349958
 20
-11.628607
 30
0.0
 10
122.349958
 20
-11.628607
 30
0.0
 10
122.349958
 20
-11.628607
 30
0.0
 10
122.349958
 20
-11.628607
 30
0.0
 10
122.349958
 20
-11.628607
 30
0.0
 10
122.349958
 20
-11.628607
 30
0.0
 10
122.349958
 20
-11.628607
 30
0.0
 10
122.349958
 20
-11.628607
 30
0.0
 10
122.349958
 20
-11.628607
 30
0.0
 10
122.349958
 20
-11.628607
 30
0.0
 10
122.349958
 20
-11.628607
 30
0.0
 10
122.349958
 20
-11.628607
 30
0.0
 10
122.349958
 20
-11.628607
 30
0.0
 10
122.349958
 20
-11.628607
 30
0.0
 10
122.349958
 20
-11.628607
 30
0.0
 10
122.349958
 20
-11.628607
 30
0.0
 10
122.349958
 20
-11.628607
 30
0.0
 10
122.349958
 20
-11.628607
 30
0.0
 10
122.349958
 20
-11.628607
 30
0.0
 10
122.349958
 20
-11.628607
 30
0.0
 10
122.349958
 20
-11.628607
 30
0.0
 10
122.349958
 20
-11.628607
 30
0.0
 10
122.349958
 20
-11.628607
 30
0.0
 10
122.349958
 20
-11.628607
 30
0.0
 10
122.349958
 20
-11.628607
 30
0.0
 10
122.349958
 20
-11.628607
 30
0.0
 10
122.349958
 20
-11.628607
 30
0.0
 10
122.349958
 20
-11.628607
 30
0.0
 10
122.349958
 20
-11.628607
 30
0.0
 10
122.349958
 20
-11.628607
 30
0.0
 10
122.349958
 20
-11.628607
 30
0.0
 10
122.349958
 20
-11.628607
 30
0.0
 10
122.349958
 20
-11.628607
 30
0.0
 10
122.349958
 20
-11.628607
 30
0.0
 10
122.349958
 20
-11.628607
 30
0.0
 10
122.349958
 20
-11.628607
 30
0.0
 10
122.349958
 20
-11.628607
 30
0.0
 10
122.349958
 20
-11.628607
 30
0.0
 10
122.349958
 20
-11.628607
 30
0.0
 10
122.349958
 20
-11.628607
 30
0.0
 10
122.349958
 20
-11.628607
 30
0.0
 10
122.349958
 20
-11.628607
 30
0.0
 10
122.349958
 20
-11.628607
 30
0.0
 10
122.349958
 20
-11.628607
 30
0.0
 10
122.349958
 20
-11.628607
 30
0.0
 10
122.349958
 20
-11.628607
 30
0.0
 10
122.349958
 20
-11.628607
 30
0.0
 10
122.349958
 20
-11.628607
 30
0.0
 10
122.349958
 20
-11.628607
 30
0.0
 10
122.349958
 20
-11.628607
 30
0.0
 10
122.349958
 20
-11.628607
 30
0.0
 10
122.349958
 20
-11.628607
 30
0.0
 10
122.349958
 20
-11.628607
 30
0.0
 10
122.349958
 20
-11.628607
 30
0.0
 10
122.349958
 20
-11.628607
 30
0.0
 10
122.349958
 20
-11.628607
 30
0.0
  0
LWPOLYLINE
  5
101
100
AcDbEntity
  8
0
 62
7
100
AcDbPolyline
 90
4
 70
1
 10
243.524916
 20
2.658188
 30
0.0
 10
229.524920
 20
2.658188
 30
0.0
 10
229.524920
 20
-11.341802
 30
0.0
 10
243.524916
 20
-11.341802
 30
0.0
  0
LWPOLYLINE
  5
102
100
AcDbEntity
  8
0
 62
7
100
AcDbPolyline
 90
4
 70
1
 10
171.524941
 20
-7.841798
 30
0.0
 10
157.524945
 20
-7.841798
 30
0.0
 10
157.524945
 20
-21.841803
 30
0.0
 10
171.524941
 20
-21.841803
 30
0.0
  0
LWPOLYLINE
  5
103
100
AcDbEntity
  8
0
 62
7
100
AcDbPolyline
 90
4
 70
1
 10
171.524941
 20
9.158186
 30
0.0
 10
157.524945
 20
9.158186
 30
0.0
 10
157.524945
 20
-4.841799
 30
0.0
 10
171.524941
 20
-4.841799
 30
0.0
  0
LWPOLYLINE
  5
104
100
AcDbEntity
  8
0
 62
7
100
AcDbPolyline
 90
4
 70
1
 10
171.524941
 20
26.158180
 30
0.0
 10
157.524945
 20
26.158180
 30
0.0
 10
157.524945
 20
12.158185
 30
0.0
 10
171.524941
 20
12.158185
 30
0.0
  0
LWPOLYLINE
  5
105
100
AcDbEntity
  8
0
 62
7
100
AcDbPolyline
 90
4
 70
1
 10
189.524934
 20
-5.341799
 30
0.0
 10
175.524939
 20
-5.341799
 30
0.0
 10
175.524939
 20
-19.341794
 30
0.0
 10
189.524934
 20
-19.341794
 30
0.0
  0
LWPOLYLINE
  5
106
100
AcDbEntity
  8
0
 62
7
100
AcDbPolyline
 90
4
 70
1
 10
189.524934
 20
11.658185
 30
0.0
 10
175.524939
 20
11.658185
 30
0.0
 10
175.524939
 20
-2.341800
 30
0.0
 10
189.524934
 20
-2.341800
 30
0.0
  0
LWPOLYLINE
  5
107
100
AcDbEntity
  8
0
 62
7
100
AcDbPolyline
 90
4
 70
1
 10
189.524934
 20
28.658179
 30
0.0
 10
175.524939
 20
28.658179
 30
0.0
 10
175.524939
 20
14.658184
 30
0.0
 10
189.524934
 20
14.658184
 30
0.0
  0
LWPOLYLINE
  5
108
100
AcDbEntity
  8
0
 62
7
100
AcDbPolyline
 90
4
 70
1
 10
207.524928
 20
-2.341800
 30
0.0
 10
193.524933
 20
-2.341800
 30
0.0
 10
193.524933
 20
-16.341795
 30
0.0
 10
207.524928
 20
-16.341795
 30
0.0
  0
LWPOLYLINE
  5
109
100
AcDbEntity
  8
0
 62
7
100
AcDbPolyline
 90
4
 70
1
 10
207.524928
 20
14.658184
 30
0.0
 10
193.524933
 20
14.658184
 30
0.0
 10
193.524933
 20
0.658189
 30
0.0
 10
207.524928
 20
0.658189
 30
0.0
  0
LWPOLYLINE
  5
10a
100
AcDbEntity
  8
0
 62
7
100
AcDbPolyline
 90
4
 70
1
 10
207.524928
 20
31.658178
 30
0.0
 10
193.524933
 20
31.658178
 30
0.0
 10
193.524933
 20
17.658183
 30
0.0
 10
207.524928
 20
17.658183
 30
0.0
  0
LWPOLYLINE
  5
10b
100
AcDbEntity
  8
0
 62
7
100
AcDbPolyline
 90
4
 70
1
 10
225.524922
 20
-5.341799
 30
0.0
 10
211.524927
 20
-5.341799
 30
0.0
 10
211.524927
 20
-19.341794
 30
0.0
 10
225.524922
 20
-19.341794
 30
0.0
  0
LWPOLYLINE
  5
10c
100
AcDbEntity
  8
0
 62
7
100
AcDbPolyline
 90
4
 70
1
 10
225.524922
 20
11.658185
 30
0.0
 10
211.524927
 20
11.658185
 30
0.0
 10
211.524927
 20
-2.341800
 30
0.0
 10
225.524922
 20
-2.341800
 30
0.0
  0
LWPOLYLINE
  5
10d
100
AcDbEntity
  8
0
 62
7
100
AcDbPolyline
 90
4
 70
1
 10
225.524922
 20
28.658179
 30
0.0
 10
211.524927
 20
28.658179
 30
0.0
 10
211.524927
 20
14.658184
 30
0.0
 10
225.524922
 20
14.658184
 30
0.0
  0
LWPOLYLINE
  5
10e
100
AcDbEntity
  8
0
 62
7
100
AcDbPolyline
 90
4
 70
1
 10
243.524916
 20
-14.341796
 30
0.0
 10
229.524920
 20
-14.341796
 30
0.0
 10
229.524920
 20
-28.341801
 30
0.0
 10
243.524916
 20
-28.341801
 30
0.0
  0
LWPOLYLINE
  5
10f
100
AcDbEntity
  8
0
 62
7
100
AcDbPolyline
 90
4
 70
1
 10
243.524916
 20
19.658182
 30
0.0
 10
229.524920
 20
19.658182
 30
0.0
 10
229.524920
 20
5.658187
 30
0.0
 10
243.524916
 20
5.658187
 30
0.0
  0
LWPOLYLINE
  5
110
100
AcDbEntity
  8
0
 62
7
100
AcDbPolyline
 90
4
 70
1
 10
178.497538
 20
-40.822597
 30
0.0
 10
192.478333
 20
-41.555297
 30
0.0
 10
193.211033
 20
-27.574501
 30
0.0
 10
179.230238
 20
-26.841802
 30
0.0
  0
LWPOLYLINE
  5
111
100
AcDbEntity
  8
0
 62
7
100
AcDbPolyline
 90
4
 70
1
 10
160.001945
 20
-44.968695
 30
0.0
 10
173.524940
 20
-41.345297
 30
0.0
 10
169.901441
 20
-27.822301
 30
0.0
 10
156.378546
 20
-31.445800
 30
0.0
  0
LWPOLYLINE
  5
112
100
AcDbEntity
  8
0
 62
7
100
AcDbPolyline
 90
4
 70
1
 10
140.810051
 20
-50.877993
 30
0.0
 10
152.136247
 20
-42.648996
 30
0.0
 10
143.907350
 20
-31.322800
 30
0.0
 10
132.581074
 20
-39.551797
 30
0.0
  0
LWPOLYLINE
  5
113
100
AcDbEntity
  8
0
 62
7
100
AcDbPolyline
 90
2
 70
0
 10
244.524915
 20
-30.341800
 30
0.0
 10
203.661529
 20
-30.341800
 30
0.0
  0
LWPOLYLINE
  5
114
100
AcDbEntity
  8
0
 62
7
100
AcDbPolyline
 90
2
 70
0
 10
194.478333
 20
-43.456696
 30
0.0
 10
203.661529
 20
-30.341800
 30
0.0
  0
LWPOLYLINE
  5
115
100
AcDbEntity
  8
0
 62
7
100
AcDbPolyline
 90
2
 70
0
 10
156.604146
 20
-47.437394
 30
0.0
 10
194.478333
 20
-43.456696
 30
0.0
  0
SPLINE
  5
116
100
AcDbEntity
  8
0
 62
7
100
AcDbSpline
 70
8
 71
3
 72
8
 73
4
 74
0
 40
0
 40
0
 40
0
 40
0
 40
1
 40
1
 40
1
 40
1
 10
143.821650
 20
-56.724391
 30
0.0
 10
143.374850
 20
-57.048991
 30
0.0
 10
142.749451
 20
-56.949991
 30
0.0
 10
142.424851
 20
-56.503191
 30
0.0
  0
LWPOLYLINE
  5
117
100
AcDbEntity
  8
0
 62
7
100
AcDbPolyline
 90
2
 70
0
 10
143.821650
 20
-56.724391
 30
0.0
 10
156.604146
 20
-47.437394
 30
0.0
  0
SPLINE
  5
118
100
AcDbEntity
  8
0
 62
7
100
AcDbSpline
 70
8
 71
3
 72
8
 73
4
 74
0
 40
0
 40
0
 40
0
 40
0
 40
1
 40
1
 40
1
 40
1
 10
127.730216
 20
-36.277798
 30
0.0
 10
127.405596
 20
-35.830998
 30
0.0
 10
127.504646
 20
-35.205599
 30
0.0
 10
127.951456
 20
-34.880999
 30
0.0
  0
LWPOLYLINE
  5
119
100
AcDbEntity
  8
0
 62
7
100
AcDbPolyline
 90
2
 70
0
 10
127.730216
 20
-36.277798
 30
0.0
 10
142.424851
 20
-56.503191
 30
0.0
  0
LWPOLYLINE
  5
11a
100
AcDbEntity
  8
0
 62
7
100
AcDbPolyline
 90
2
 70
0
 10
127.951456
 20
-34.880999
 30
0.0
 10
155.524946
 20
-14.847646
 30
0.0
  0
SPLINE
  5
11b
100
AcDbEntity
  8
0
 62
7
100
AcDbSpline
 70
8
 71
3
 72
8
 73
4
 74
0
 40
0
 40
0
 40
0
 40
0
 40
1
 40
1
 40
1
 40
1
 10
155.524946
 20
27.158180
 30
0.0
 10
155.524946
 20
27.710480
 30
0.0
 10
155.972646
 20
28.158179
 30
0.0
 10
156.524946
 20
28.158179
 30
0.0
  0
LWPOLYLINE
  5
11c
100
AcDbEntity
  8
0
 62
7
100
AcDbPolyline
 90
2
 70
0
 10
155.524946
 20
27.158180
 30
0.0
 10
155.524946
 20
-14.847646
 30
0.0
  0
SPLINE
  5
11d
100
AcDbEntity
  8
0
 62
7
100
AcDbSpline
 70
8
 71
3
 72
8
 73
4
 74
0
 40
0
 40
0
 40
0
 40
0
 40
1
 40
1
 40
1
 40
1
 10
173.524940
 20
28.658179
 30
0.0
 10
173.524940
 20
28.382079
 30
0.0
 10
173.301040
 20
28.158179
 30
0.0
 10
173.024940
 20
28.158179
 30
0.0
  0
LWPOLYLINE
  5
11e
100
AcDbEntity
  8
0
 62
7
100
AcDbPolyline
 90
2
 70
0
 10
173.024940
 20
28.158179
 30
0.0
 10
156.524946
 20
28.158179
 30
0.0
  0
SPLINE
  5
11f
100
AcDbEntity
  8
0
 62
7
100
AcDbSpline
 70
8
 71
3
 72
8
 73
4
 74
0
 40
0
 40
0
 40
0
 40
0
 40
1
 40
1
 40
1
 40
1
 10
173.524940
 20
30.158179
 30
0.0
 10
173.524940
 20
30.434279
 30
0.0
 10
173.748840
 20
30.658178
 30
0.0
 10
174.024940
 20
30.658178
 30
0.0
  0
LWPOLYLINE
  5
120
100
AcDbEntity
  8
0
 62
7
100
AcDbPolyline
 90
2
 70
0
 10
173.524940
 20
30.158179
 30
0.0
 10
173.524940
 20
28.658179
 30
0.0
  0
SPLINE
  5
121
100
AcDbEntity
  8
0
 62
7
100
AcDbSpline
 70
8
 71
3
 72
8
 73
4
 74
0
 40
0
 40
0
 40
0
 40
0
 40
1
 40
1
 40
1
 40
1
 10
191.524934
 20
31.158178
 30
0.0
 10
191.524934
 20
30.882078
 30
0.0
 10
191.301034
 20
30.658178
 30
0.0
 10
191.024934
 20
30.658178
 30
0.0
  0
LWPOLYLINE
  5
122
100
AcDbEntity
  8
0
 62
7
100
AcDbPolyline
 90
2
 70
0
 10
191.024934
 20
30.658178
 30
0.0
 10
174.024940
 20
30.658178
 30
0.0
  0
SPLINE
  5
123
100
AcDbEntity
  8
0
 62
7
100
AcDbSpline
 70
8
 71
3
 72
8
 73
4
 74
0
 40
0
 40
0
 40
0
 40
0
 40
1
 40
1
 40
1
 40
1
 10
191.524934
 20
33.158178
 30
0.0
 10
191.524934
 20
33.434278
 30
0.0
 10
191.748834
 20
33.658177
 30
0.0
 10
192.024933
 20
33.658177
 30
0.0
  0
LWPOLYLINE
  5
124
100
AcDbEntity
  8
0
 62
7
100
AcDbPolyline
 90
2
 70
0
 10
191.524934
 20
33.158178
 30
0.0
 10
191.524934
 20
31.158178
 30
0.0
  0
SPLINE
  5
125
100
AcDbEntity
  8
0
 62
7
100
AcDbSpline
 70
8
 71
3
 72
8
 73
4
 74
0
 40
0
 40
0
 40
0
 40
0
 40
1
 40
1
 40
1
 40
1
 10
209.024928
 20
33.658177
 30
0.0
 10
209.301028
 20
33.658177
 30
0.0
 10
209.524927
 20
33.434278
 30
0.0
 10
209.524927
 20
33.158178
 30
0.0
  0
LWPOLYLINE
  5
126
100
AcDbEntity
  8
0
 62
7
100
AcDbPolyline
 90
2
 70
0
 10
209.024928
 20
33.658177
 30
0.0
 10
192.024933
 20
33.658177
 30
0.0
  0
SPLINE
  5
127
100
AcDbEntity
  8
0
 62
7
100
AcDbSpline
 70
8
 71
3
 72
8
 73
4
 74
0
 40
0
 40
0
 40
0
 40
0
 40
1
 40
1
 40
1
 40
1
 10
210.024927
 20
30.658178
 30
0.0
 10
209.748827
 20
30.658178
 30
0.0
 10
209.524927
 20
30.882078
 30
0.0
 10
209.524927
 20
31.158178
 30
0.0
  0
LWPOLYLINE
  5
128
100
AcDbEntity
  8
0
 62
7
100
AcDbPolyline
 90
2
 70
0
 10
209.524927
 20
31.158178
 30
0.0
 10
209.524927
 20
33.158178
 30
0.0
  0
SPLINE
  5
129
100
AcDbEntity
  8
0
 62
7
100
AcDbSpline
 70
8
 71
3
 72
8
 73
4
 74
0
 40
0
 40
0
 40
0
 40
0
 40
1
 40
1
 40
1
 40
1
 10
227.024921
 20
30.658178
 30
0.0
 10
227.300921
 20
30.658178
 30
0.0
 10
227.524921
 20
30.434279
 30
0.0
 10
227.524921
 20
30.158179
 30
0.0
  0
LWPOLYLINE
  5
12a
100
AcDbEntity
  8
0
 62
7
100
AcDbPolyline
 90
2
 70
0
 10
227.024921
 20
30.658178
 30
0.0
 10
210.024927
 20
30.658178
 30
0.0
  0
SPLINE
  5
12b
100
AcDbEntity
  8
0
 62
7
100
AcDbSpline
 70
8
 71
3
 72
8
 73
4
 74
0
 40
0
 40
0
 40
0
 40
0
 40
1
 40
1
 40
1
 40
1
 10
228.024921
 20
21.658182
 30
0.0
 10
227.748921
 20
21.658182
 30
0.0
 10
227.524921
 20
21.882082
 30
0.0
 10
227.524921
 20
22.158181
 30
0.0
  0
LWPOLYLINE
  5
12c
100
AcDbEntity
  8
0
 62
7
100
AcDbPolyline
 90
2
 70
0
 10
227.524921
 20
22.158181
 30
0.0
 10
227.524921
 20
30.158179
 30
0.0
  0
SPLINE
  5
12d
100
AcDbEntity
  8
0
 62
7
100
AcDbSpline
 70
8
 71
3
 72
8
 73
4
 74
0
 40
0
 40
0
 40
0
 40
0
 40
1
 40
1
 40
1
 40
1
 10
244.524915
 20
21.658182
 30
0.0
 10
245.076915
 20
21.658182
 30
0.0
 10
245.524915
 20
21.210482
 30
0.0
 10
245.524915
 20
20.658182
 30
0.0
  0
LWPOLYLINE
  5
12e
100
AcDbEntity
  8
0
 62
7
100
AcDbPolyline
 90
2
 70
0
 10
244.524915
 20
21.658182
 30
0.0
 10
228.024921
 20
21.658182
 30
0.0
  0
SPLINE
  5
12f
100
AcDbEntity
  8
0
 62
7
100
AcDbSpline
 70
8
 71
3
 72
8
 73
4
 74
0
 40
0
 40
0
 40
0
 40
0
 40
1
 40
1
 40
1
 40
1
 10
245.524915
 20
-29.341801
 30
0.0
 10
245.524915
 20
-29.894101
 30
0.0
 10
245.076915
 20
-30.341800
 30
0.0
 10
244.524915
 20
-30.341800
 30
0.0
  0
LWPOLYLINE
  5
130
100
AcDbEntity
  8
0
 62
7
100
AcDbPolyline
 90
2
 70
0
 10
245.524915
 20
-29.341801
 30
0.0
 10
245.524915
 20
20.658182
 30
0.0
  0
LWPOLYLINE
  5
131
100
AcDbEntity
  8
0
 62
7
100
AcDbPolyline
 90
4
 70
1
 10
76.349954
 20
-7.841798
 30
0.0
 10
90.349949
 20
-7.841798
 30
0.0
 10
90.349949
 20
-21.841803
 30
0.0
 10
76.349954
 20
-21.841803
 30
0.0
  0
LWPOLYLINE
  5
132
100
AcDbEntity
  8
0
 62
7
100
AcDbPolyline
 90
4
 70
1
 10
4.349978
 20
2.658188
 30
0.0
 10
18.349974
 20
2.658188
 30
0.0
 10
18.349974
 20
-11.341802
 30
0.0
 10
4.349978
 20
-11.341802
 30
0.0
  0
LWPOLYLINE
  5
133
100
AcDbEntity
  8
0
 62
7
100
AcDbPolyline
 90
4
 70
1
 10
76.349954
 20
9.158186
 30
0.0
 10
90.349949
 20
9.158186
 30
0.0
 10
90.349949
 20
-4.841799
 30
0.0
 10
76.349954
 20
-4.841799
 30
0.0
  0
LWPOLYLINE
  5
134
100
AcDbEntity
  8
0
 62
7
100
AcDbPolyline
 90
4
 70
1
 10
76.349954
 20
26.158180
 30
0.0
 10
90.349949
 20
26.158180
 30
0.0
 10
90.349949
 20
12.158185
 30
0.0
 10
76.349954
 20
12.158185
 30
0.0
  0
LWPOLYLINE
  5
135
100
AcDbEntity
  8
0
 62
7
100
AcDbPolyline
 90
4
 70
1
 10
58.349960
 20
-5.341799
 30
0.0
 10
72.349955
 20
-5.341799
 30
0.0
 10
72.349955
 20
-19.341794
 30
0.0
 10
58.349960
 20
-19.341794
 30
0.0
  0
LWPOLYLINE
  5
136
100
AcDbEntity
  8
0
 62
7
100
AcDbPolyline
 90
4
 70
1
 10
58.349960
 20
11.658185
 30
0.0
 10
72.349955
 20
11.658185
 30
0.0
 10
72.349955
 20
-2.341800
 30
0.0
 10
58.349960
 20
-2.341800
 30
0.0
  0
LWPOLYLINE
  5
137
100
AcDbEntity
  8
0
 62
7
100
AcDbPolyline
 90
4
 70
1
 10
58.349960
 20
28.658179
 30
0.0
 10
72.349955
 20
28.658179
 30
0.0
 10
72.349955
 20
14.658184
 30
0.0
 10
58.349960
 20
14.658184
 30
0.0
  0
LWPOLYLINE
  5
138
100
AcDbEntity
  8
0
 62
7
100
AcDbPolyline
 90
4
 70
1
 10
40.349966
 20
-2.341800
 30
0.0
 10
54.349961
 20
-2.341800
 30
0.0
 10
54.349961
 20
-16.341795
 30
0.0
 10
40.349966
 20
-16.341795
 30
0.0
  0
LWPOLYLINE
  5
139
100
AcDbEntity
  8
0
 62
7
100
AcDbPolyline
 90
4
 70
1
 10
40.349966
 20
14.658184
 30
0.0
 10
54.349961
 20
14.658184
 30
0.0
 10
54.349961
 20
0.658189
 30
0.0
 10
40.349966
 20
0.658189
 30
0.0
  0
LWPOLYLINE
  5
13a
100
AcDbEntity
  8
0
 62
7
100
AcDbPolyline
 90
4
 70
1
 10
40.349966
 20
31.658178
 30
0.0
 10
54.349961
 20
31.658178
 30
0.0
 10
54.349961
 20
17.658183
 30
0.0
 10
40.349966
 20
17.658183
 30
0.0
  0
LWPOLYLINE
  5
13b
100
AcDbEntity
  8
0
 62
7
100
AcDbPolyline
 90
4
 70
1
 10
22.349972
 20
-5.341799
 30
0.0
 10
36.349967
 20
-5.341799
 30
0.0
 10
36.349967
 20
-19.341794
 30
0.0
 10
22.349972
 20
-19.341794
 30
0.0
  0
LWPOLYLINE
  5
13c
100
AcDbEntity
  8
0
 62
7
100
AcDbPolyline
 90
4
 70
1
 10
22.349972
 20
11.658185
 30
0.0
 10
36.349967
 20
11.658185
 30
0.0
 10
36.349967
 20
-2.341800
 30
0.0
 10
22.349972
 20
-2.341800
 30
0.0
  0
LWPOLYLINE
  5
13d
100
AcDbEntity
  8
0
 62
7
100
AcDbPolyline
 90
4
 70
1
 10
22.349972
 20
28.658179
 30
0.0
 10
36.349967
 20
28.658179
 30
0.0
 10
36.349967
 20
14.658184
 30
0.0
 10
22.349972
 20
14.658184
 30
0.0
  0
LWPOLYLINE
  5
13e
100
AcDbEntity
  8
0
 62
7
100
AcDbPolyline
 90
4
 70
1
 10
4.349978
 20
-14.341796
 30
0.0
 10
18.349974
 20
-14.341796
 30
0.0
 10
18.349974
 20
-28.341801
 30
0.0
 10
4.349978
 20
-28.341801
 30
0.0
  0
LWPOLYLINE
  5
13f
100
AcDbEntity
  8
0
 62
7
100
AcDbPolyline
 90
4
 70
1
 10
4.349978
 20
19.658182
 30
0.0
 10
18.349974
 20
19.658182
 30
0.0
 10
18.349974
 20
5.658187
 30
0.0
 10
4.349978
 20
5.658187
 30
0.0
  0
LWPOLYLINE
  5
140
100
AcDbEntity
  8
0
 62
7
100
AcDbPolyline
 90
4
 70
1
 10
69.377356
 20
-40.822597
 30
0.0
 10
55.396561
 20
-41.555297
 30
0.0
 10
54.663861
 20
-27.574501
 30
0.0
 10
68.644656
 20
-26.841802
 30
0.0
  0
LWPOLYLINE
  5
141
100
AcDbEntity
  8
0
 62
7
100
AcDbPolyline
 90
4
 70
1
 10
87.872950
 20
-44.968695
 30
0.0
 10
74.349954
 20
-41.345297
 30
0.0
 10
77.973453
 20
-27.822301
 30
0.0
 10
91.496348
 20
-31.445800
 30
0.0
  0
LWPOLYLINE
  5
142
100
AcDbEntity
  8
0
 62
7
100
AcDbPolyline
 90
4
 70
1
 10
107.064843
 20
-50.877993
 30
0.0
 10
95.738647
 20
-42.648996
 30
0.0
 10
103.967544
 20
-31.322800
 30
0.0
 10
115.293820
 20
-39.551797
 30
0.0
  0
LWPOLYLINE
  5
143
100
AcDbEntity
  8
0
 62
7
100
AcDbPolyline
 90
2
 70
0
 10
3.349979
 20
-30.341800
 30
0.0
 10
44.213365
 20
-30.341800
 30
0.0
  0
LWPOLYLINE
  5
144
100
AcDbEntity
  8
0
 62
7
100
AcDbPolyline
 90
2
 70
0
 10
53.396562
 20
-43.456696
 30
0.0
 10
44.213365
 20
-30.341800
 30
0.0
  0
LWPOLYLINE
  5
145
100
AcDbEntity
  8
0
 62
7
100
AcDbPolyline
 90
2
 70
0
 10
91.270748
 20
-47.437394
 30
0.0
 10
53.396562
 20
-43.456696
 30
0.0
  0
SPLINE
  5
146
100
AcDbEntity
  8
0
 62
7
100
AcDbSpline
 70
8
 71
3
 72
8
 73
4
 74
0
 40
0
 40
0
 40
0
 40
0
 40
1
 40
1
 40
1
 40
1
 10
104.053244
 20
-56.724391
 30
0.0
 10
104.500044
 20
-57.048991
 30
0.0
 10
105.125444
 20
-56.949991
 30
0.0
 10
105.450043
 20
-56.503191
 30
0.0
  0
LWPOLYLINE
  5
147
100
AcDbEntity
  8
0
 62
7
100
AcDbPolyline
 90
2
 70
0
 10
104.053244
 20
-56.724391
 30
0.0
 10
91.270748
 20
-47.437394
 30
0.0
  0
SPLINE
  5
148
100
AcDbEntity
  8
0
 62
7
100
AcDbSpline
 70
8
 71
3
 72
8
 73
4
 74
0
 40
0
 40
0
 40
0
 40
0
 40
1
 40
1
 40
1
 40
1
 10
120.144678
 20
-36.277798
 30
0.0
 10
120.469298
 20
-35.830998
 30
0.0
 10
120.370248
 20
-35.205599
 30
0.0
 10
119.923438
 20
-34.880999
 30
0.0
  0
LWPOLYLINE
  5
149
100
AcDbEntity
  8
0
 62
7
100
AcDbPolyline
 90
2
 70
0
 10
120.144678
 20
-36.277798
 30
0.0
 10
105.450043
 20
-56.503191
 30
0.0
  0
LWPOLYLINE
  5
14a
100
AcDbEntity
  8
0
 62
7
100
AcDbPolyline
 90
2
 70
0
 10
119.923438
 20
-34.880999
 30
0.0
 10
92.349948
 20
-14.847646
 30
0.0
  0
SPLINE
  5
14b
100
AcDbEntity
  8
0
 62
7
100
AcDbSpline
 70
8
 71
3
 72
8
 73
4
 74
0
 40
0
 40
0
 40
0
 40
0
 40
1
 40
1
 40
1
 40
1
 10
92.349948
 20
27.158180
 30
0.0
 10
92.349948
 20
27.710480
 30
0.0
 10
91.902248
 20
28.158179
 30
0.0
 10
91.349948
 20
28.158179
 30
0.0
  0
LWPOLYLINE
  5
14c
100
AcDbEntity
  8
0
 62
7
100
AcDbPolyline
 90
2
 70
0
 10
92.349948
 20
27.158180
 30
0.0
 10
92.349948
 20
-14.847646
 30
0.0
  0
SPLINE
  5
14d
100
AcDbEntity
  8
0
 62
7
100
AcDbSpline
 70
8
 71
3
 72
8
 73
4
 74
0
 40
0
 40
0
 40
0
 40
0
 40
1
 40
1
 40
1
 40
1
 10
74.349954
 20
28.658179
 30
0.0
 10
74.349954
 20
28.382079
 30
0.0
 10
74.573854
 20
28.158179
 30
0.0
 10
74.849954
 20
28.158179
 30
0.0
  0
LWPOLYLINE
  5
14e
100
AcDbEntity
  8
0
 62
7
100
AcDbPolyline
 90
2
 70
0
 10
74.849954
 20
28.158179
 30
0.0
 10
91.349948
 20
28.158179
 30
0.0
  0
SPLINE
  5
14f
100
AcDbEntity
  8
0
 62
7
100
AcDbSpline
 70
8
 71
3
 72
8
 73
4
 74
0
 40
0
 40
0
 40
0
 40
0
 40
1
 40
1
 40
1
 40
1
 10
74.349954
 20
30.158179
 30
0.0
 10
74.349954
 20
30.434279
 30
0.0
 10
74.126054
 20
30.658178
 30
0.0
 10
73.849954
 20
30.658178
 30
0.0
  0
LWPOLYLINE
  5
150
100
AcDbEntity
  8
0
 62
7
100
AcDbPolyline
 90
2
 70
0
 10
74.349954
 20
30.158179
 30
0.0
 10
74.349954
 20
28.658179
 30
0.0
  0
SPLINE
  5
151
100
AcDbEntity
  8
0
 62
7
100
AcDbSpline
 70
8
 71
3
 72
8
 73
4
 74
0
 40
0
 40
0
 40
0
 40
0
 40
1
 40
1
 40
1
 40
1
 10
56.349960
 20
31.158178
 30
0.0
 10
56.349960
 20
30.882078
 30
0.0
 10
56.573860
 20
30.658178
 30
0.0
 10
56.849960
 20
30.658178
 30
0.0
  0
LWPOLYLINE
  5
152
100
AcDbEntity
  8
0
 62
7
100
AcDbPolyline
 90
2
 70
0
 10
56.849960
 20
30.658178
 30
0.0
 10
73.849954
 20
30.658178
 30
0.0
  0
SPLINE
  5
153
100
AcDbEntity
  8
0
 62
7
100
AcDbSpline
 70
8
 71
3
 72
8
 73
4
 74
0
 40
0
 40
0
 40
0
 40
0
 40
1
 40
1
 40
1
 40
1
 10
56.349960
 20
33.158178
 30
0.0
 10
56.349960
 20
33.434278
 30
0.0
 10
56.126061
 20
33.658177
 30
0.0
 10
55.849961
 20
33.658177
 30
0.0
  0
LWPOLYLINE
  5
154
100
AcDbEntity
  8
0
 62
7
100
AcDbPolyline
 90
2
 70
0
 10
56.349960
 20
33.158178
 30
0.0
 10
56.349960
 20
31.158178
 30
0.0
  0
SPLINE
  5
155
100
AcDbEntity
  8
0
 62
7
100
AcDbSpline
 70
8
 71
3
 72
8
 73
4
 74
0
 40
0
 40
0
 40
0
 40
0
 40
1
 40
1
 40
1
 40
1
 10
38.849967
 20
33.658177
 30
0.0
 10
38.573867
 20
33.658177
 30
0.0
 10
38.349967
 20
33.434278
 30
0.0
 10
38.349967
 20
33.158178
 30
0.0
  0
LWPOLYLINE
  5
156
100
AcDbEntity
  8
0
 62
7
100
AcDbPolyline
 90
2
 70
0
 10
38.849967
 20
33.658177
 30
0.0
 10
55.849961
 20
33.658177
 30
0.0
  0
SPLINE
  5
157
100
AcDbEntity
  8
0
 62
7
100
AcDbSpline
 70
8
 71
3
 72
8
 73
4
 74
0
 40
0
 40
0
 40
0
 40
0
 40
1
 40
1
 40
1
 40
1
 10
37.849967
 20
30.658178
 30
0.0
 10
38.126067
 20
30.658178
 30
0.0
 10
38.349967
 20
30.882078
 30
0.0
 10
38.349967
 20
31.158178
 30
0.0
  0
LWPOLYLINE
  5
158
100
AcDbEntity
  8
0
 62
7
100
AcDbPolyline
 90
2
 70
0
 10
38.349967
 20
31.158178
 30
0.0
 10
38.349967
 20
33.158178
 30
0.0
  0
SPLINE
  5
159
100
AcDbEntity
  8
0
 62
7
100
AcDbSpline
 70
8
 71
3
 72
8
 73
4
 74
0
 40
0
 40
0
 40
0
 40
0
 40
1
 40
1
 40
1
 40
1
 10
20.849973
 20
30.658178
 30
0.0
 10
20.573973
 20
30.658178
 30
0.0
 10
20.349973
 20
30.434279
 30
0.0
 10
20.349973
 20
30.158179
 30
0.0
  0
LWPOLYLINE
  5
15a
100
AcDbEntity
  8
0
 62
7
100
AcDbPolyline
 90
2
 70
0
 10
20.849973
 20
30.658178
 30
0.0
 10
37.849967
 20
30.658178
 30
0.0
  0
SPLINE
  5
15b
100
AcDbEntity
  8
0
 62
7
100
AcDbSpline
 70
8
 71
3
 72
8
 73
4
 74
0
 40
0
 40
0
 40
0
 40
0
 40
1
 40
1
 40
1
 40
1
 10
19.849973
 20
28.158179
 30
0.0
 10
20.125973
 20
28.158179
 30
0.0
 10
20.349973
 20
28.382079
 30
0.0
 10
20.349973
 20
28.658179
 30
0.0
  0
LWPOLYLINE
  5
15c
100
AcDbEntity
  8
0
 62
7
100
AcDbPolyline
 90
2
 70
0
 10
20.349973
 20
28.658179
 30
0.0
 10
20.349973
 20
30.158179
 30
0.0
  0
SPLINE
  5
15d
100
AcDbEntity
  8
0
 62
7
100
AcDbSpline
 70
8
 71
3
 72
8
 73
4
 74
0
 40
0
 40
0
 40
0
 40
0
 40
1
 40
1
 40
1
 40
1
 10
3.349979
 20
28.158179
 30
0.0
 10
2.797979
 20
28.158179
 30
0.0
 10
2.349979
 20
27.710480
 30
0.0
 10
2.349979
 20
27.158180
 30
0.0
  0
LWPOLYLINE
  5
15e
100
AcDbEntity
  8
0
 62
7
100
AcDbPolyline
 90
2
 70
0
 10
3.349979
 20
28.158179
 30
0.0
 10
19.849973
 20
28.158179
 30
0.0
  0
SPLINE
  5
15f
100
AcDbEntity
  8
0
 62
7
100
AcDbSpline
 70
8
 71
3
 72
8
 73
4
 74
0
 40
0
 40
0
 40
0
 40
0
 40
1
 40
1
 40
1
 40
1
 10
2.349979
 20
-29.341801
 30
0.0
 10
2.349979
 20
-29.894101
 30
0.0
 10
2.797979
 20
-30.341800
 30
0.0
 10
3.349979
 20
-30.341800
 30
0.0
  0
LWPOLYLINE
  5
160
100
AcDbEntity
  8
0
 62
7
100
AcDbPolyline
 90
2
 70
0
 10
2.349979
 20
-29.341801
 30
0.0
 10
2.349979
 20
27.158180
 30
0.0
  0
LWPOLYLINE
  5
161
100
AcDbEntity
  8
0
 62
7
100
AcDbPolyline
 90
4
 70
1
 10
243.524916
 20
5.658187
 30
0.0
 10
243.524916
 20
19.658182
 30
0.0
 10
229.524920
 20
19.658182
 30
0.0
 10
229.524920
 20
5.658187
 30
0.0
  0
LWPOLYLINE
  5
162
100
AcDbEntity
  8
0
 62
7
100
AcDbPolyline
 90
4
 70
1
 10
18.349974
 20
19.658182
 30
0.0
 10
18.349974
 20
5.658187
 30
0.0
 10
4.349978
 20
5.658187
 30
0.0
 10
4.349978
 20
19.658182
 30
0.0
  0
LWPOLYLINE
  5
163
100
AcDbEntity
  8
0
 62
7
100
AcDbPolyline
 90
4
 70
1
 10
207.524928
 20
17.658183
 30
0.0
 10
207.524928
 20
31.658178
 30
0.0
 10
193.524933
 20
31.658178
 30
0.0
 10
193.524933
 20
17.658183
 30
0.0
  0
LWPOLYLINE
  5
164
100
AcDbEntity
  8
0
 62
7
100
AcDbPolyline
 90
4
 70
1
 10
54.349961
 20
31.658178
 30
0.0
 10
54.349961
 20
17.658183
 30
0.0
 10
40.349966
 20
17.658183
 30
0.0
 10
40.349966
 20
31.658178
 30
0.0
  0
LWPOLYLINE
  5
165
100
AcDbEntity
  8
0
 62
7
100
AcDbPolyline
 90
4
 70
1
 10
189.524934
 20
-2.341800
 30
0.0
 10
189.524934
 20
11.658185
 30
0.0
 10
175.524939
 20
11.658185
 30
0.0
 10
175.524939
 20
-2.341800
 30
0.0
  0
LWPOLYLINE
  5
166
100
AcDbEntity
  8
0
 62
7
100
AcDbPolyline
 90
4
 70
1
 10
72.349955
 20
11.658185
 30
0.0
 10
72.349955
 20
-2.341800
 30
0.0
 10
58.349960
 20
-2.341800
 30
0.0
 10
58.349960
 20
11.658185
 30
0.0
  0
LWPOLYLINE
  5
167
100
AcDbEntity
  8
0
 62
7
100
AcDbPolyline
 90
4
 70
1
 10
243.524916
 20
-28.341801
 30
0.0
 10
243.524916
 20
-14.341796
 30
0.0
 10
229.524920
 20
-14.341796
 30
0.0
 10
229.524920
 20
-28.341801
 30
0.0
  0
LWPOLYLINE
  5
168
100
AcDbEntity
  8
0
 62
7
100
AcDbPolyline
 90
4
 70
1
 10
68.644656
 20
-26.841802
 30
0.0
 10
69.377356
 20
-40.822597
 30
0.0
 10
55.396561
 20
-41.555297
 30
0.0
 10
54.663861
 20
-27.574501
 30
0.0
  0
LWPOLYLINE
  5
169
100
AcDbEntity
  8
0
 62
7
100
AcDbPolyline
 90
4
 70
1
 10
18.349974
 20
-14.341796
 30
0.0
 10
18.349974
 20
-28.341801
 30
0.0
 10
4.349978
 20
-28.341801
 30
0.0
 10
4.349978
 20
-14.341796
 30
0.0
  0
LWPOLYLINE
  5
16a
100
AcDbEntity
  8
0
 62
7
100
AcDbPolyline
 90
4
 70
1
 10
192.478333
 20
-41.555297
 30
0.0
 10
193.211033
 20
-27.574501
 30
0.0
 10
179.230238
 20
-26.841802
 30
0.0
 10
178.497538
 20
-40.822597
 30
0.0
  0
LWPOLYLINE
  5
16b
100
AcDbEntity
  8
0
 62
7
100
AcDbPolyline
 90
4
 70
1
 10
91.496348
 20
-31.445800
 30
0.0
 10
87.872950
 20
-44.968695
 30
0.0
 10
74.349954
 20
-41.345297
 30
0.0
 10
77.973453
 20
-27.822301
 30
0.0
  0
LWPOLYLINE
  5
16c
100
AcDbEntity
  8
0
 62
7
100
AcDbPolyline
 90
4
 70
1
 10
152.136247
 20
-42.648996
 30
0.0
 10
143.907350
 20
-31.322800
 30
0.0
 10
132.581074
 20
-39.551797
 30
0.0
 10
140.810051
 20
-50.877993
 30
0.0
  0
LWPOLYLINE
  5
16d
100
AcDbEntity
  8
0
 62
7
100
AcDbPolyline
 90
4
 70
1
 10
90.349949
 20
-7.841798
 30
0.0
 10
90.349949
 20
-21.841803
 30
0.0
 10
76.349954
 20
-21.841803
 30
0.0
 10
76.349954
 20
-7.841798
 30
0.0
  0
LWPOLYLINE
  5
16e
100
AcDbEntity
  8
0
 62
7
100
AcDbPolyline
 90
4
 70
1
 10
115.293820
 20
-39.551797
 30
0.0
 10
107.064843
 20
-50.877993
 30
0.0
 10
95.738647
 20
-42.648996
 30
0.0
 10
103.967544
 20
-31.322800
 30
0.0
  0
LWPOLYLINE
  5
16f
100
AcDbEntity
  8
0
 62
7
100
AcDbPolyline
 90
4
 70
1
 10
173.524940
 20
-41.345297
 30
0.0
 10
169.901441
 20
-27.822301
 30
0.0
 10
156.378546
 20
-31.445800
 30
0.0
 10
160.001945
 20
-44.968695
 30
0.0
  0
LWPOLYLINE
  5
170
100
AcDbEntity
  8
0
 62
7
100
AcDbPolyline
 90
4
 70
1
 10
207.524928
 20
-16.341795
 30
0.0
 10
207.524928
 20
-2.341800
 30
0.0
 10
193.524933
 20
-2.341800
 30
0.0
 10
193.524933
 20
-16.341795
 30
0.0
  0
LWPOLYLINE
  5
171
100
AcDbEntity
  8
0
 62
7
100
AcDbPolyline
 90
4
 70
1
 10
171.524941
 20
-4.841799
 30
0.0
 10
171.524941
 20
9.158186
 30
0.0
 10
157.524945
 20
9.158186
 30
0.0
 10
157.524945
 20
-4.841799
 30
0.0
  0
LWPOLYLINE
  5
172
100
AcDbEntity
  8
0
 62
7
100
AcDbPolyline
 90
4
 70
1
 10
189.524934
 20
14.658184
 30
0.0
 10
189.524934
 20
28.658179
 30
0.0
 10
175.524939
 20
28.658179
 30
0.0
 10
175.524939
 20
14.658184
 30
0.0
  0
LWPOLYLINE
  5
173
100
AcDbEntity
  8
0
 62
7
100
AcDbPolyline
 90
4
 70
1
 10
36.349967
 20
28.658179
 30
0.0
 10
36.349967
 20
14.658184
 30
0.0
 10
22.349972
 20
14.658184
 30
0.0
 10
22.349972
 20
28.658179
 30
0.0
  0
LWPOLYLINE
  5
174
100
AcDbEntity
  8
0
 62
7
100
AcDbPolyline
 90
4
 70
1
 10
189.524934
 20
-19.341794
 30
0.0
 10
189.524934
 20
-5.341799
 30
0.0
 10
175.524939
 20
-5.341799
 30
0.0
 10
175.524939
 20
-19.341794
 30
0.0
  0
LWPOLYLINE
  5
175
100
AcDbEntity
  8
0
 62
7
100
AcDbPolyline
 90
4
 70
1
 10
225.524922
 20
14.658184
 30
0.0
 10
225.524922
 20
28.658179
 30
0.0
 10
211.524927
 20
28.658179
 30
0.0
 10
211.524927
 20
14.658184
 30
0.0
  0
LWPOLYLINE
  5
176
100
AcDbEntity
  8
0
 62
7
100
AcDbPolyline
 90
4
 70
1
 10
225.524922
 20
-19.341794
 30
0.0
 10
225.524922
 20
-5.341799
 30
0.0
 10
211.524927
 20
-5.341799
 30
0.0
 10
211.524927
 20
-19.341794
 30
0.0
  0
LWPOLYLINE
  5
177
100
AcDbEntity
  8
0
 62
7
100
AcDbPolyline
 90
4
 70
1
 10
171.524941
 20
-21.841803
 30
0.0
 10
171.524941
 20
-7.841798
 30
0.0
 10
157.524945
 20
-7.841798
 30
0.0
 10
157.524945
 20
-21.841803
 30
0.0
  0
LWPOLYLINE
  5
178
100
AcDbEntity
  8
0
 62
7
100
AcDbPolyline
 90
4
 70
1
 10
171.524941
 20
12.158185
 30
0.0
 10
171.524941
 20
26.158180
 30
0.0
 10
157.524945
 20
26.158180
 30
0.0
 10
157.524945
 20
12.158185
 30
0.0
  0
LWPOLYLINE
  5
179
100
AcDbEntity
  8
0
 62
7
100
AcDbPolyline
 90
4
 70
1
 10
90.349949
 20
26.158180
 30
0.0
 10
90.349949
 20
12.158185
 30
0.0
 10
76.349954
 20
12.158185
 30
0.0
 10
76.349954
 20
26.158180
 30
0.0
  0
LWPOLYLINE
  5
17a
100
AcDbEntity
  8
0
 62
7
100
AcDbPolyline
 90
4
 70
1
 10
72.349955
 20
-5.341799
 30
0.0
 10
72.349955
 20
-19.341794
 30
0.0
 10
58.349960
 20
-19.341794
 30
0.0
 10
58.349960
 20
-5.341799
 30
0.0
  0
LWPOLYLINE
  5
17b
100
AcDbEntity
  8
0
 62
7
100
AcDbPolyline
 90
4
 70
1
 10
72.349955
 20
28.658179
 30
0.0
 10
72.349955
 20
14.658184
 30
0.0
 10
58.349960
 20
14.658184
 30
0.0
 10
58.349960
 20
28.658179
 30
0.0
  0
LWPOLYLINE
  5
17c
100
AcDbEntity
  8
0
 62
7
100
AcDbPolyline
 90
4
 70
1
 10
36.349967
 20
-5.341799
 30
0.0
 10
36.349967
 20
-19.341794
 30
0.0
 10
22.349972
 20
-19.341794
 30
0.0
 10
22.349972
 20
-5.341799
 30
0.0
  0
LWPOLYLINE
  5
17d
100
AcDbEntity
  8
0
 62
7
100
AcDbPolyline
 90
4
 70
1
 10
90.349949
 20
9.158186
 30
0.0
 10
90.349949
 20
-4.841799
 30
0.0
 10
76.349954
 20
-4.841799
 30
0.0
 10
76.349954
 20
9.158186
 30
0.0
  0
LWPOLYLINE
  5
17e
100
AcDbEntity
  8
0
 62
7
100
AcDbPolyline
 90
4
 70
1
 10
207.524928
 20
0.658189
 30
0.0
 10
207.524928
 20
14.658184
 30
0.0
 10
193.524933
 20
14.658184
 30
0.0
 10
193.524933
 20
0.658189
 30
0.0
  0
LWPOLYLINE
  5
17f
100
AcDbEntity
  8
0
 62
7
100
AcDbPolyline
 90
4
 70
1
 10
54.349961
 20
-2.341800
 30
0.0
 10
54.349961
 20
-16.341795
 30
0.0
 10
40.349966
 20
-16.341795
 30
0.0
 10
40.349966
 20
-2.341800
 30
0.0
  0
LWPOLYLINE
  5
180
100
AcDbEntity
  8
0
 62
7
100
AcDbPolyline
 90
4
 70
1
 10
243.524916
 20
-11.341802
 30
0.0
 10
243.524916
 20
2.658188
 30
0.0
 10
229.524920
 20
2.658188
 30
0.0
 10
229.524920
 20
-11.341802
 30
0.0
  0
LWPOLYLINE
  5
181
100
AcDbEntity
  8
0
 62
7
100
AcDbPolyline
 90
4
 70
1
 10
54.349961
 20
14.658184
 30
0.0
 10
54.349961
 20
0.658189
 30
0.0
 10
40.349966
 20
0.658189
 30
0.0
 10
40.349966
 20
14.658184
 30
0.0
  0
LWPOLYLINE
  5
182
100
AcDbEntity
  8
0
 62
7
100
AcDbPolyline
 90
4
 70
1
 10
18.349974
 20
2.658188
 30
0.0
 10
18.349974
 20
-11.341802
 30
0.0
 10
4.349978
 20
-11.341802
 30
0.0
 10
4.349978
 20
2.658188
 30
0.0
  0
LWPOLYLINE
  5
183
100
AcDbEntity
  8
0
 62
7
100
AcDbPolyline
 90
4
 70
1
 10
36.349967
 20
11.658185
 30
0.0
 10
36.349967
 20
-2.341800
 30
0.0
 10
22.349972
 20
-2.341800
 30
0.0
 10
22.349972
 20
11.658185
 30
0.0
  0
LWPOLYLINE
  5
184
100
AcDbEntity
  8
0
 62
7
100
AcDbPolyline
 90
4
 70
1
 10
225.524922
 20
-2.341800
 30
0.0
 10
225.524922
 20
11.658185
 30
0.0
 10
211.524927
 20
11.658185
 30
0.0
 10
211.524927
 20
-2.341800
 30
0.0
  0
SPLINE
  5
185
100
AcDbEntity
  8
0
 62
7
100
AcDbSpline
 70
8
 71
3
 72
8
 73
4
 74
0
 40
0
 40
0
 40
0
 40
0
 40
1
 40
1
 40
1
 40
1
 10
245.524915
 20
20.658182
 30
0.0
 10
245.524915
 20
21.210482
 30
0.0
 10
245.076915
 20
21.658182
 30
0.0
 10
244.524915
 20
21.658182
 30
0.0
  0
LWPOLYLINE
  5
186
100
AcDbEntity
  8
0
 62
7
100
AcDbPolyline
 90
2
 70
0
 10
245.524915
 20
-29.341801
 30
0.0
 10
245.524915
 20
20.658182
 30
0.0
  0
SPLINE
  5
187
100
AcDbEntity
  8
0
 62
7
100
AcDbSpline
 70
8
 71
3
 72
8
 73
4
 74
0
 40
0
 40
0
 40
0
 40
0
 40
1
 40
1
 40
1
 40
1
 10
228.024921
 20
21.658182
 30
0.0
 10
227.748921
 20
21.658182
 30
0.0
 10
227.524921
 20
21.882082
 30
0.0
 10
227.524921
 20
22.158181
 30
0.0
  0
LWPOLYLINE
  5
188
100
AcDbEntity
  8
0
 62
7
100
AcDbPolyline
 90
2
 70
0
 10
244.524915
 20
21.658182
 30
0.0
 10
228.024921
 20
21.658182
 30
0.0
  0
SPLINE
  5
189
100
AcDbEntity
  8
0
 62
7
100
AcDbSpline
 70
8
 71
3
 72
8
 73
4
 74
0
 40
0
 40
0
 40
0
 40
0
 40
1
 40
1
 40
1
 40
1
 10
227.524921
 20
30.158179
 30
0.0
 10
227.524921
 20
30.434279
 30
0.0
 10
227.300921
 20
30.658178
 30
0.0
 10
227.024921
 20
30.658178
 30
0.0
  0
LWPOLYLINE
  5
18a
100
AcDbEntity
  8
0
 62
7
100
AcDbPolyline
 90
2
 70
0
 10
227.524921
 20
22.158181
 30
0.0
 10
227.524921
 20
30.158179
 30
0.0
  0
SPLINE
  5
18b
100
AcDbEntity
  8
0
 62
7
100
AcDbSpline
 70
8
 71
3
 72
8
 73
4
 74
0
 40
0
 40
0
 40
0
 40
0
 40
1
 40
1
 40
1
 40
1
 10
210.024927
 20
30.658178
 30
0.0
 10
209.748827
 20
30.658178
 30
0.0
 10
209.524927
 20
30.882078
 30
0.0
 10
209.524927
 20
31.158178
 30
0.0
  0
LWPOLYLINE
  5
18c
100
AcDbEntity
  8
0
 62
7
100
AcDbPolyline
 90
2
 70
0
 10
227.024921
 20
30.658178
 30
0.0
 10
210.024927
 20
30.658178
 30
0.0
  0
SPLINE
  5
18d
100
AcDbEntity
  8
0
 62
7
100
AcDbSpline
 70
8
 71
3
 72
8
 73
4
 74
0
 40
0
 40
0
 40
0
 40
0
 40
1
 40
1
 40
1
 40
1
 10
209.524927
 20
33.158178
 30
0.0
 10
209.524927
 20
33.434278
 30
0.0
 10
209.301028
 20
33.658177
 30
0.0
 10
209.024928
 20
33.658177
 30
0.0
  0
LWPOLYLINE
  5
18e
100
AcDbEntity
  8
0
 62
7
100
AcDbPolyline
 90
2
 70
0
 10
209.524927
 20
31.158178
 30
0.0
 10
209.524927
 20
33.158178
 30
0.0
  0
SPLINE
  5
18f
100
AcDbEntity
  8
0
 62
7
100
AcDbSpline
 70
8
 71
3
 72
8
 73
4
 74
0
 40
0
 40
0
 40
0
 40
0
 40
1
 40
1
 40
1
 40
1
 10
192.024933
 20
33.658177
 30
0.0
 10
191.748834
 20
33.658177
 30
0.0
 10
191.524934
 20
33.434278
 30
0.0
 10
191.524934
 20
33.158178
 30
0.0
  0
LWPOLYLINE
  5
190
100
AcDbEntity
  8
0
 62
7
100
AcDbPolyline
 90
2
 70
0
 10
209.024928
 20
33.658177
 30
0.0
 10
192.024933
 20
33.658177
 30
0.0
  0
SPLINE
  5
191
100
AcDbEntity
  8
0
 62
7
100
AcDbSpline
 70
8
 71
3
 72
8
 73
4
 74
0
 40
0
 40
0
 40
0
 40
0
 40
1
 40
1
 40
1
 40
1
 10
191.524934
 20
31.158178
 30
0.0
 10
191.524934
 20
30.882078
 30
0.0
 10
191.301034
 20
30.658178
 30
0.0
 10
191.024934
 20
30.658178
 30
0.0
  0
LWPOLYLINE
  5
192
100
AcDbEntity
  8
0
 62
7
100
AcDbPolyline
 90
2
 70
0
 10
191.524934
 20
33.158178
 30
0.0
 10
191.524934
 20
31.158178
 30
0.0
  0
SPLINE
  5
193
100
AcDbEntity
  8
0
 62
7
100
AcDbSpline
 70
8
 71
3
 72
8
 73
4
 74
0
 40
0
 40
0
 40
0
 40
0
 40
1
 40
1
 40
1
 40
1
 10
174.024940
 20
30.658178
 30
0.0
 10
173.748840
 20
30.658178
 30
0.0
 10
173.524940
 20
30.434279
 30
0.0
 10
173.524940
 20
30.158179
 30
0.0
  0
LWPOLYLINE
  5
194
100
AcDbEntity
  8
0
 62
7
100
AcDbPolyline
 90
2
 70
0
 10
191.024934
 20
30.658178
 30
0.0
 10
174.024940
 20
30.658178
 30
0.0
  0
SPLINE
  5
195
100
AcDbEntity
  8
0
 62
7
100
AcDbSpline
 70
8
 71
3
 72
8
 73
4
 74
0
 40
0
 40
0
 40
0
 40
0
 40
1
 40
1
 40
1
 40
1
 10
173.524940
 20
28.658179
 30
0.0
 10
173.524940
 20
28.382079
 30
0.0
 10
173.301040
 20
28.158179
 30
0.0
 10
173.024940
 20
28.158179
 30
0.0
  0
LWPOLYLINE
  5
196
100
AcDbEntity
  8
0
 62
7
100
AcDbPolyline
 90
2
 70
0
 10
173.524940
 20
30.158179
 30
0.0
 10
173.524940
 20
28.658179
 30
0.0
  0
SPLINE
  5
197
100
AcDbEntity
  8
0
 62
7
100
AcDbSpline
 70
8
 71
3
 72
8
 73
4
 74
0
 40
0
 40
0
 40
0
 40
0
 40
1
 40
1
 40
1
 40
1
 10
156.524946
 20
28.158179
 30
0.0
 10
155.972646
 20
28.158179
 30
0.0
 10
155.524946
 20
27.710480
 30
0.0
 10
155.524946
 20
27.158180
 30
0.0
  0
LWPOLYLINE
  5
198
100
AcDbEntity
  8
0
 62
7
100
AcDbPolyline
 90
2
 70
0
 10
173.024940
 20
28.158179
 30
0.0
 10
156.524946
 20
28.158179
 30
0.0
  0
SPLINE
  5
199
100
AcDbEntity
  8
0
 62
7
100
AcDbSpline
 70
8
 71
3
 72
8
 73
4
 74
0
 40
0
 40
0
 40
0
 40
0
 40
1
 40
1
 40
1
 40
1
 10
127.951456
 20
-34.880999
 30
0.0
 10
127.504646
 20
-35.205599
 30
0.0
 10
127.405596
 20
-35.830998
 30
0.0
 10
127.730216
 20
-36.277798
 30
0.0
  0
LWPOLYLINE
  5
19a
100
AcDbEntity
  8
0
 62
7
100
AcDbPolyline
 90
3
 70
0
 10
155.524946
 20
27.158180
 30
0.0
 10
155.524946
 20
-14.847646
 30
0.0
 10
127.951456
 20
-34.880999
 30
0.0
  0
SPLINE
  5
19b
100
AcDbEntity
  8
0
 62
7
100
AcDbSpline
 70
8
 71
3
 72
8
 73
4
 74
0
 40
0
 40
0
 40
0
 40
0
 40
1
 40
1
 40
1
 40
1
 10
142.424851
 20
-56.503191
 30
0.0
 10
142.749451
 20
-56.949991
 30
0.0
 10
143.374850
 20
-57.048991
 30
0.0
 10
143.821650
 20
-56.724391
 30
0.0
  0
LWPOLYLINE
  5
19c
100
AcDbEntity
  8
0
 62
7
100
AcDbPolyline
 90
2
 70
0
 10
127.730216
 20
-36.277798
 30
0.0
 10
142.424851
 20
-56.503191
 30
0.0
  0
SPLINE
  5
19d
100
AcDbEntity
  8
0
 62
7
100
AcDbSpline
 70
8
 71
3
 72
8
 73
4
 74
0
 40
0
 40
0
 40
0
 40
0
 40
1
 40
1
 40
1
 40
1
 10
244.524915
 20
-30.341800
 30
0.0
 10
245.076915
 20
-30.341800
 30
0.0
 10
245.524915
 20
-29.894101
 30
0.0
 10
245.524915
 20
-29.341801
 30
0.0
  0
SPLINE
  5
19e
100
AcDbEntity
  8
0
 62
7
100
AcDbSpline
 70
8
 71
3
 72
8
 73
4
 74
0
 40
0
 40
0
 40
0
 40
0
 40
1
 40
1
 40
1
 40
1
 10
120.144678
 20
-36.277798
 30
0.0
 10
120.469298
 20
-35.830998
 30
0.0
 10
120.370248
 20
-35.205599
 30
0.0
 10
119.923438
 20
-34.880999
 30
0.0
  0
LWPOLYLINE
  5
19f
100
AcDbEntity
  8
0
 62
7
100
AcDbPolyline
 90
5
 70
0
 10
143.821650
 20
-56.724391
 30
0.0
 10
156.604146
 20
-47.437394
 30
0.0
 10
194.478333
 20
-43.456696
 30
0.0
 10
203.661529
 20
-30.341800
 30
0.0
 10
244.524915
 20
-30.341800
 30
0.0
  0
SPLINE
  5
1a0
100
AcDbEntity
  8
0
 62
7
100
AcDbSpline
 70
8
 71
3
 72
8
 73
4
 74
0
 40
0
 40
0
 40
0
 40
0
 40
1
 40
1
 40
1
 40
1
 10
92.349948
 20
27.158180
 30
0.0
 10
92.349948
 20
27.710480
 30
0.0
 10
91.902248
 20
28.158179
 30
0.0
 10
91.349948
 20
28.158179
 30
0.0
  0
LWPOLYLINE
  5
1a1
100
AcDbEntity
  8
0
 62
7
100
AcDbPolyline
 90
3
 70
0
 10
119.923438
 20
-34.880999
 30
0.0
 10
92.349948
 20
-14.847646
 30
0.0
 10
92.349948
 20
27.158180
 30
0.0
  0
SPLINE
  5
1a2
100
AcDbEntity
  8
0
 62
7
100
AcDbSpline
 70
8
 71
3
 72
8
 73
4
 74
0
 40
0
 40
0
 40
0
 40
0
 40
1
 40
1
 40
1
 40
1
 10
74.849954
 20
28.158179
 30
0.0
 10
74.573854
 20
28.158179
 30
0.0
 10
74.349954
 20
28.382079
 30
0.0
 10
74.349954
 20
28.658179
 30
0.0
  0
LWPOLYLINE
  5
1a3
100
AcDbEntity
  8
0
 62
7
100
AcDbPolyline
 90
2
 70
0
 10
91.349948
 20
28.158179
 30
0.0
 10
74.849954
 20
28.158179
 30
0.0
  0
SPLINE
  5
1a4
100
AcDbEntity
  8
0
 62
7
100
AcDbSpline
 70
8
 71
3
 72
8
 73
4
 74
0
 40
0
 40
0
 40
0
 40
0
 40
1
 40
1
 40
1
 40
1
 10
74.349954
 20
30.158179
 30
0.0
 10
74.349954
 20
30.434279
 30
0.0
 10
74.126054
 20
30.658178
 30
0.0
 10
73.849954
 20
30.658178
 30
0.0
  0
LWPOLYLINE
  5
1a5
100
AcDbEntity
  8
0
 62
7
100
AcDbPolyline
 90
2
 70
0
 10
74.349954
 20
28.658179
 30
0.0
 10
74.349954
 20
30.158179
 30
0.0
  0
SPLINE
  5
1a6
100
AcDbEntity
  8
0
 62
7
100
AcDbSpline
 70
8
 71
3
 72
8
 73
4
 74
0
 40
0
 40
0
 40
0
 40
0
 40
1
 40
1
 40
1
 40
1
 10
56.849960
 20
30.658178
 30
0.0
 10
56.573860
 20
30.658178
 30
0.0
 10
56.349960
 20
30.882078
 30
0.0
 10
56.349960
 20
31.158178
 30
0.0
  0
LWPOLYLINE
  5
1a7
100
AcDbEntity
  8
0
 62
7
100
AcDbPolyline
 90
2
 70
0
 10
73.849954
 20
30.658178
 30
0.0
 10
56.849960
 20
30.658178
 30
0.0
  0
SPLINE
  5
1a8
100
AcDbEntity
  8
0
 62
7
100
AcDbSpline
 70
8
 71
3
 72
8
 73
4
 74
0
 40
0
 40
0
 40
0
 40
0
 40
1
 40
1
 40
1
 40
1
 10
56.349960
 20
33.158178
 30
0.0
 10
56.349960
 20
33.434278
 30
0.0
 10
56.126061
 20
33.658177
 30
0.0
 10
55.849961
 20
33.658177
 30
0.0
  0
LWPOLYLINE
  5
1a9
100
AcDbEntity
  8
0
 62
7
100
AcDbPolyline
 90
2
 70
0
 10
56.349960
 20
31.158178
 30
0.0
 10
56.349960
 20
33.158178
 30
0.0
  0
SPLINE
  5
1aa
100
AcDbEntity
  8
0
 62
7
100
AcDbSpline
 70
8
 71
3
 72
8
 73
4
 74
0
 40
0
 40
0
 40
0
 40
0
 40
1
 40
1
 40
1
 40
1
 10
38.849967
 20
33.658177
 30
0.0
 10
38.573867
 20
33.658177
 30
0.0
 10
38.349967
 20
33.434278
 30
0.0
 10
38.349967
 20
33.158178
 30
0.0
  0
LWPOLYLINE
  5
1ab
100
AcDbEntity
  8
0
 62
7
100
AcDbPolyline
 90
2
 70
0
 10
55.849961
 20
33.658177
 30
0.0
 10
38.849967
 20
33.658177
 30
0.0
  0
SPLINE
  5
1ac
100
AcDbEntity
  8
0
 62
7
100
AcDbSpline
 70
8
 71
3
 72
8
 73
4
 74
0
 40
0
 40
0
 40
0
 40
0
 40
1
 40
1
 40
1
 40
1
 10
38.349967
 20
31.158178
 30
0.0
 10
38.349967
 20
30.882078
 30
0.0
 10
38.126067
 20
30.658178
 30
0.0
 10
37.849967
 20
30.658178
 30
0.0
  0
LWPOLYLINE
  5
1ad
100
AcDbEntity
  8
0
 62
7
100
AcDbPolyline
 90
2
 70
0
 10
38.349967
 20
33.158178
 30
0.0
 10
38.349967
 20
31.158178
 30
0.0
  0
SPLINE
  5
1ae
100
AcDbEntity
  8
0
 62
7
100
AcDbSpline
 70
8
 71
3
 72
8
 73
4
 74
0
 40
0
 40
0
 40
0
 40
0
 40
1
 40
1
 40
1
 40
1
 10
20.849973
 20
30.658178
 30
0.0
 10
20.573973
 20
30.658178
 30
0.0
 10
20.349973
 20
30.434279
 30
0.0
 10
20.349973
 20
30.158179
 30
0.0
  0
LWPOLYLINE
  5
1af
100
AcDbEntity
  8
0
 62
7
100
AcDbPolyline
 90
2
 70
0
 10
37.849967
 20
30.658178
 30
0.0
 10
20.849973
 20
30.658178
 30
0.0
  0
SPLINE
  5
1b0
100
AcDbEntity
  8
0
 62
7
100
AcDbSpline
 70
8
 71
3
 72
8
 73
4
 74
0
 40
0
 40
0
 40
0
 40
0
 40
1
 40
1
 40
1
 40
1
 10
20.349973
 20
28.658179
 30
0.0
 10
20.349973
 20
28.382079
 30
0.0
 10
20.125973
 20
28.158179
 30
0.0
 10
19.849973
 20
28.158179
 30
0.0
  0
LWPOLYLINE
  5
1b1
100
AcDbEntity
  8
0
 62
7
100
AcDbPolyline
 90
2
 70
0
 10
20.349973
 20
30.158179
 30
0.0
 10
20.349973
 20
28.658179
 30
0.0
  0
SPLINE
  5
1b2
100
AcDbEntity
  8
0
 62
7
100
AcDbSpline
 70
8
 71
3
 72
8
 73
4
 74
0
 40
0
 40
0
 40
0
 40
0
 40
1
 40
1
 40
1
 40
1
 10
3.349979
 20
28.158179
 30
0.0
 10
2.797979
 20
28.158179
 30
0.0
 10
2.349979
 20
27.710480
 30
0.0
 10
2.349979
 20
27.158180
 30
0.0
  0
LWPOLYLINE
  5
1b3
100
AcDbEntity
  8
0
 62
7
100
AcDbPolyline
 90
2
 70
0
 10
19.849973
 20
28.158179
 30
0.0
 10
3.349979
 20
28.158179
 30
0.0
  0
SPLINE
  5
1b4
100
AcDbEntity
  8
0
 62
7
100
AcDbSpline
 70
8
 71
3
 72
8
 73
4
 74
0
 40
0
 40
0
 40
0
 40
0
 40
1
 40
1
 40
1
 40
1
 10
2.349979
 20
-29.341801
 30
0.0
 10
2.349979
 20
-29.894101
 30
0.0
 10
2.797979
 20
-30.341800
 30
0.0
 10
3.349979
 20
-30.341800
 30
0.0
  0
LWPOLYLINE
  5
1b5
100
AcDbEntity
  8
0
 62
7
100
AcDbPolyline
 90
2
 70
0
 10
2.349979
 20
27.158180
 30
0.0
 10
2.349979
 20
-29.341801
 30
0.0
  0
SPLINE
  5
1b6
100
AcDbEntity
  8
0
 62
7
100
AcDbSpline
 70
8
 71
3
 72
8
 73
4
 74
0
 40
0
 40
0
 40
0
 40
0
 40
1
 40
1
 40
1
 40
1
 10
104.053244
 20
-56.724391
 30
0.0
 10
104.500044
 20
-57.048991
 30
0.0
 10
105.125444
 20
-56.949991
 30
0.0
 10
105.450043
 20
-56.503191
 30
0.0
  0
LWPOLYLINE
  5
1b7
100
AcDbEntity
  8
0
 62
7
100
AcDbPolyline
 90
5
 70
0
 10
3.349979
 20
-30.341800
 30
0.0
 10
44.213365
 20
-30.341800
 30
0.0
 10
53.396562
 20
-43.456696
 30
0.0
 10
91.270748
 20
-47.437394
 30
0.0
 10
104.053244
 20
-56.724391
 30
0.0
  0
LWPOLYLINE
  5
1b8
100
AcDbEntity
  8
0
 62
7
100
AcDbPolyline
 90
2
 70
0
 10
105.450043
 20
-56.503191
 30
0.0
 10
120.144678
 20
-36.277798
 30
0.0
  0
ENDSEC
  0
SECTION
  2
OBJECTS
  0
DICTIONARY
  5
C
330
0
100
AcDbDictionary
  3
ACAD_GROUP
350
D
  3
ACAD_MLINESTYLE
350
17
  0
DICTIONARY
  5
D
330
C
100
AcDbDictionary
  0
DICTIONARY
  5
1A
330
C
100
AcDbDictionary
  0
DICTIONARY
  5
17
330
C
100
AcDbDictionary
  3
STANDARD
350
18
  0
DICTIONARY
  5
19
330
C
100
AcDbDictionary
  0
ENDSEC
  0
EOF
