  0
SECTION
  2
HEADER
  9
$ACADVER
  1
AC1014
  9
$HANDSEED
  5
FFFF
  9
$MEASUREMENT
 70
     1
  0
ENDSEC
  0
SECTION
  2
TABLES
  0
TABLE
  2
VPORT
  5
8
330
0
100
AcDbSymbolTable
 70
     4
  0
VPORT
  5
2E
330
8
100
AcDbSymbolTableRecord
100
AcDbViewportTableRecord
  2
*ACTIVE
 70
     0
 10
0.0
 20
0.0
 11
1.0
 21
1.0
 12
210.0
 22
148.5
 13
0.0
 23
0.0
 14
10.0
 24
10.0
 15
10.0
 25
10.0
 16
0.0
 26
0.0
 36
1.0
 17
0.0
 27
0.0
 37
0.0
 40
341.0
 41
1.24
 42
50.0
 43
0.0
 44
0.0
 50
0.0
 51
0.0
 71
     0
 72
   100
 73
     1
 74
     3
 75
     0
 76
     0
 77
     0
 78
     0
  0
ENDTAB
  0
TABLE
  2
LTYPE
  5
5
330
0
100
AcDbSymbolTable
 70
     1
  0
LTYPE
  5
14
330
5
100
AcDbSymbolTableRecord
100
AcDbLinetypeTableRecord
  2
BYBLOCK
 70
     0
  3

 72
    65
 73
     0
 40
0.0
  0
LTYPE
  5
15
330
5
100
AcDbSymbolTableRecord
100
AcDbLinetypeTableRecord
  2
BYLAYER
 70
     0
  3

 72
    65
 73
     0
 40
0.0
  0
LTYPE
  5
16
330
5
100
AcDbSymbolTableRecord
100
AcDbLinetypeTableRecord
  2
CONTINUOUS
 70
     0
  3
Solid line
 72
    65
 73
     0
 40
0.0
  0
ENDTAB
  0
TABLE
  2
LAYER
  5
2
100
AcDbSymbolTable
 70
1
  0
LAYER
  5
50
100
AcDbSymbolTableRecord
100
AcDbLayerTableRecord
  2
0
 70
0
  6
CONTINUOUS
  0
ENDTAB
  0
TABLE
  2
STYLE
  5
3
330
0
100
AcDbSymbolTable
 70
     1
  0
STYLE
  5
11
330
3
100
AcDbSymbolTableRecord
100
AcDbTextStyleTableRecord
  2
STANDARD
 70
     0
 40
0.0
 41
1.0
 50
0.0
 71
     0
 42
2.5
  3
txt
  4

  0
ENDTAB
  0
TABLE
  2
VIEW
  5
6
330
0
100
AcDbSymbolTable
 70
     0
  0
ENDTAB
  0
TABLE
  2
UCS
  5
7
330
0
100
AcDbSymbolTable
 70
     0
  0
ENDTAB
  0
TABLE
  2
APPID
  5
9
330
0
100
AcDbSymbolTable
 70
     2
  0
APPID
  5
12
330
9
100
AcDbSymbolTableRecord
100
AcDbRegAppTableRecord
  2
ACAD
 70
     0
  0
ENDTAB
  0
TABLE
  2
DIMSTYLE
  5
A
330
0
100
AcDbSymbolTable
 70
     1
  0
DIMSTYLE
105
27
330
A
100
AcDbSymbolTableRecord
100
AcDbDimStyleTableRecord
  2
ISO-25
 70
     0
  3

  4

  5

  6

  7

 40
1.0
 41
2.5
 42
0.625
 43
3.75
 44
1.25
 45
0.0
 46
0.0
 47
0.0
 48
0.0
140
2.5
141
2.5
142
0.0
143
0.03937007874016
144
1.0
145
0.0
146
1.0
147
0.625
 71
     0
 72
     0
 73
     0
 74
     0
 75
     0
 76
     0
 77
     1
 78
     8
170
     0
171
     3
172
     1
173
     0
174
     0
175
     0
176
     0
177
     0
178
     0
270
     2
271
     2
272
     2
273
     2
274
     3
340
11
275
     0
280
     0
281
     0
282
     0
283
     0
284
     8
285
     0
286
     0
287
     3
288
     0
  0
ENDTAB
  0
TABLE
  2
BLOCK_RECORD
  5
1
330
0
100
AcDbSymbolTable
 70
     1
  0
BLOCK_RECORD
  5
1F
330
1
100
AcDbSymbolTableRecord
100
AcDbBlockTableRecord
  2
*MODEL_SPACE
  0
BLOCK_RECORD
  5
1B
330
1
100
AcDbSymbolTableRecord
100
AcDbBlockTableRecord
  2
*PAPER_SPACE
  0
ENDTAB
  0
ENDSEC
  0
SECTION
  2
BLOCKS
  0
BLOCK
  5
20
330
1F
100
AcDbEntity
  8
0
100
AcDbBlockBegin
  2
*MODEL_SPACE
 70
     0
 10
0.0
 20
0.0
 30
0.0
  3
*MODEL_SPACE
  1

  0
ENDBLK
  5
21
330
1F
100
AcDbEntity
  8
0
100
AcDbBlockEnd
  0
BLOCK
  5
1C
330
1B
100
AcDbEntity
 67
     1
  8
0
100
AcDbBlockBegin
  2
*PAPER_SPACE
  1

  0
ENDBLK
  5
1D
330
1B
100
AcDbEntity
 67
     1
  8
0
100
AcDbBlockEnd
  0
ENDSEC
  0
SECTION
  2
ENTITIES
  0
LWPOLYLINE
  5
100
100
AcDbEntity
  8
0
 62
7
100
AcDbPolyline
 90
152
 70
1
 10
147.782000
 20
0.568479
 30
0.0
 10
147.782000
 20
0.568479
 30
0.0
 10
147.782000
 20
0.568479
 30
0.0
 10
147.782000
 20
0.568479
 30
0.0
 10
147.782000
 20
0.568479
 30
0.0
 10
147.782000
 20
0.568479
 30
0.0
 10
147.782000
 20
0.568479
 30
0.0
 10
147.782000
 20
0.568479
 30
0.0
 10
147.782000
 20
0.568479
 30
0.0
 10
147.782000
 20
0.568479
 30
0.0
 10
147.782000
 20
0.568479
 30
0.0
 10
147.782000
 20
0.568479
 30
0.0
 10
147.782000
 20
0.568479
 30
0.0
 10
147.782000
 20
0.568479
 30
0.0
 10
147.782000
 20
0.568479
 30
0.0
 10
147.782000
 20
0.568479
 30
0.0
 10
147.782000
 20
0.568479
 30
0.0
 10
147.782000
 20
0.568479
 30
0.0
 10
147.782000
 20
0.568479
 30
0.0
 10
147.782000
 20
0.568479
 30
0.0
 10
147.782000
 20
0.568479
 30
0.0
 10
147.782000
 20
0.568479
 30
0.0
 10
147.782000
 20
0.568479
 30
0.0
 10
147.782000
 20
0.568479
 30
0.0
 10
147.782000
 20
0.568479
 30
0.0
 10
147.782000
 20
0.568479
 30
0.0
 10
147.782000
 20
0.568479
 30
0.0
 10
147.782000
 20
0.568479
 30
0.0
 10
147.782000
 20
0.568479
 30
0.0
 10
147.782000
 20
0.568479
 30
0.0
 10
147.782000
 20
0.568479
 30
0.0
 10
147.782000
 20
0.568479
 30
0.0
 10
147.782000
 20
0.568479
 30
0.0
 10
147.782000
 20
0.568479
 30
0.0
 10
147.782000
 20
0.568479
 30
0.0
 10
147.782000
 20
0.568479
 30
0.0
 10
147.782000
 20
0.568479
 30
0.0
 10
147.782000
 20
0.568479
 30
0.0
 10
147.782000
 20
0.568479
 30
0.0
 10
147.782000
 20
0.568479
 30
0.0
 10
147.782000
 20
0.568479
 30
0.0
 10
147.782000
 20
0.568479
 30
0.0
 10
147.782000
 20
0.568479
 30
0.0
 10
147.782000
 20
0.568479
 30
0.0
 10
147.782000
 20
0.568479
 30
0.0
 10
147.782000
 20
0.568479
 30
0.0
 10
147.782000
 20
0.568479
 30
0.0
 10
147.782000
 20
0.568479
 30
0.0
 10
147.782000
 20
0.568479
 30
0.0
 10
147.782000
 20
0.568479
 30
0.0
 10
147.782000
 20
0.568479
 30
0.0
 10
147.782000
 20
0.568479
 30
0.0
 10
147.782000
 20
0.568479
 30
0.0
 10
147.782000
 20
0.568479
 30
0.0
 10
147.782000
 20
0.568479
 30
0.0
 10
147.782000
 20
0.568479
 30
0.0
 10
147.782000
 20
0.568479
 30
0.0
 10
147.782000
 20
0.568479
 30
0.0
 10
147.782000
 20
0.568479
 30
0.0
 10
147.782000
 20
0.568479
 30
0.0
 10
147.782000
 20
0.568479
 30
0.0
 10
147.782000
 20
0.568479
 30
0.0
 10
147.782000
 20
0.568479
 30
0.0
 10
147.782000
 20
0.568479
 30
0.0
 10
147.782000
 20
0.568479
 30
0.0
 10
147.782000
 20
0.568479
 30
0.0
 10
147.782000
 20
0.568479
 30
0.0
 10
147.782000
 20
0.568479
 30
0.0
 10
147.782000
 20
0.568479
 30
0.0
 10
147.782000
 20
0.568479
 30
0.0
 10
147.782000
 20
0.568479
 30
0.0
 10
147.782000
 20
0.568479
 30
0.0
 10
147.782000
 20
0.568479
 30
0.0
 10
147.782000
 20
0.568479
 30
0.0
 10
147.782000
 20
0.568479
 30
0.0
 10
147.782000
 20
0.568479
 30
0.0
 10
147.782000
 20
0.568479
 30
0.0
 10
147.782000
 20
0.568479
 30
0.0
 10
147.782000
 20
0.568479
 30
0.0
 10
147.782000
 20
0.568479
 30
0.0
 10
147.782000
 20
0.568479
 30
0.0
 10
147.782000
 20
0.568479
 30
0.0
 10
147.782000
 20
0.568479
 30
0.0
 10
147.782000
 20
0.568479
 30
0.0
 10
147.782000
 20
0.568479
 30
0.0
 10
147.782000
 20
0.568479
 30
0.0
 10
147.782000
 20
0.568479
 30
0.0
 10
147.782000
 20
0.568479
 30
0.0
 10
147.782000
 20
0.568479
 30
0.0
 10
147.782000
 20
0.568479
 30
0.0
 10
147.782000
 20
0.568479
 30
0.0
 10
147.782000
 20
0.568479
 30
0.0
 10
147.782000
 20
0.568479
 30
0.0
 10
147.782000
 20
0.568479
 30
0.0
 10
147.782000
 20
0.568479
 30
0.0
 10
147.782000
 20
0.568479
 30
0.0
 10
147.782000
 20
0.568479
 30
0.0
 10
147.782000
 20
0.568479
 30
0.0
 10
147.782000
 20
0.568479
 30
0.0
 10
147.782000
 20
0.568479
 30
0.0
 10
147.782000
 20
0.568479
 30
0.0
 10
147.782000
 20
0.568479
 30
0.0
 10
147.782000
 20
0.568479
 30
0.0
 10
147.782000
 20
0.568479
 30
0.0
 10
147.782000
 20
0.568479
 30
0.0
 10
147.782000
 20
0.568479
 30
0.0
 10
147.782000
 20
0.568479
 30
0.0
 10
147.782000
 20
0.568479
 30
0.0
 10
147.782000
 20
0.568479
 30
0.0
 10
147.782000
 20
0.568479
 30
0.0
 10
147.782000
 20
0.568479
 30
0.0
 10
147.782000
 20
0.568479
 30
0.0
 10
147.782000
 20
0.568479
 30
0.0
 10
147.782000
 20
0.568479
 30
0.0
 10
147.782000
 20
0.568479
 30
0.0
 10
147.782000
 20
0.568479
 30
0.0
 10
147.782000
 20
0.568479
 30
0.0
 10
147.782000
 20
0.568479
 30
0.0
 10
147.782000
 20
0.568479
 30
0.0
 10
147.782000
 20
0.568479
 30
0.0
 10
147.782000
 20
0.568479
 30
0.0
 10
147.782000
 20
0.568479
 30
0.0
 10
147.782000
 20
0.568479
 30
0.0
 10
147.782000
 20
0.568479
 30
0.0
 10
147.782000
 20
0.568479
 30
0.0
 10
147.782000
 20
0.568479
 30
0.0
 10
147.782000
 20
0.568479
 30
0.0
 10
147.782000
 20
0.568479
 30
0.0
 10
147.782000
 20
0.568479
 30
0.0
 10
147.782000
 20
0.568479
 30
0.0
 10
147.782000
 20
0.568479
 30
0.0
 10
147.782000
 20
0.568479
 30
0.0
 10
147.782000
 20
0.568479
 30
0.0
 10
147.782000
 20
0.568479
 30
0.0
 10
147.782000
 20
0.568479
 30
0.0
 10
147.782000
 20
0.568479
 30
0.0
 10
147.782000
 20
0.568479
 30
0.0
 10
147.782000
 20
0.568479
 30
0.0
 10
147.782000
 20
0.568479
 30
0.0
 10
147.782000
 20
0.568479
 30
0.0
 10
147.782000
 20
0.568479
 30
0.0
 10
147.782000
 20
0.568479
 30
0.0
 10
147.782000
 20
0.568479
 30
0.0
 10
147.782000
 20
0.568479
 30
0.0
 10
147.782000
 20
0.568479
 30
0.0
 10
147.782000
 20
0.568479
 30
0.0
 10
147.782000
 20
0.568479
 30
0.0
 10
147.782000
 20
0.568479
 30
0.0
 10
147.782000
 20
0.568479
 30
0.0
 10
147.782000
 20
0.568479
 30
0.0
 10
147.782000
 20
0.568479
 30
0.0
 10
147.782000
 20
0.568479
 30
0.0
  0
LWPOLYLINE
  5
101
100
AcDbEntity
  8
0
 62
7
100
AcDbPolyline
 90
2
 70
0
 10
269.957000
 20
-18.144721
 30
0.0
 10
229.093600
 20
-18.144721
 30
0.0
  0
LWPOLYLINE
  5
102
100
AcDbEntity
  8
0
 62
7
100
AcDbPolyline
 90
2
 70
0
 10
219.910400
 20
-31.259621
 30
0.0
 10
229.093600
 20
-18.144721
 30
0.0
  0
LWPOLYLINE
  5
103
100
AcDbEntity
  8
0
 62
7
100
AcDbPolyline
 90
2
 70
0
 10
182.036200
 20
-35.240321
 30
0.0
 10
219.910400
 20
-31.259621
 30
0.0
  0
SPLINE
  5
104
100
AcDbEntity
  8
0
 62
7
100
AcDbSpline
 70
8
 71
3
 72
8
 73
4
 74
0
 40
0
 40
0
 40
0
 40
0
 40
1
 40
1
 40
1
 40
1
 10
169.253700
 20
-44.527321
 30
0.0
 10
168.806900
 20
-44.851921
 30
0.0
 10
168.181500
 20
-44.752921
 30
0.0
 10
167.856900
 20
-44.306121
 30
0.0
  0
LWPOLYLINE
  5
105
100
AcDbEntity
  8
0
 62
7
100
AcDbPolyline
 90
2
 70
0
 10
169.253700
 20
-44.527321
 30
0.0
 10
182.036200
 20
-35.240321
 30
0.0
  0
SPLINE
  5
106
100
AcDbEntity
  8
0
 62
7
100
AcDbSpline
 70
8
 71
3
 72
8
 73
4
 74
0
 40
0
 40
0
 40
0
 40
0
 40
1
 40
1
 40
1
 40
1
 10
153.162260
 20
-24.080721
 30
0.0
 10
152.837640
 20
-23.633921
 30
0.0
 10
152.936690
 20
-23.008521
 30
0.0
 10
153.383500
 20
-22.683921
 30
0.0
  0
LWPOLYLINE
  5
107
100
AcDbEntity
  8
0
 62
7
100
AcDbPolyline
 90
2
 70
0
 10
153.162260
 20
-24.080721
 30
0.0
 10
167.856900
 20
-44.306121
 30
0.0
  0
LWPOLYLINE
  5
108
100
AcDbEntity
  8
0
 62
7
100
AcDbPolyline
 90
2
 70
0
 10
153.383500
 20
-22.683921
 30
0.0
 10
180.957000
 20
-2.650561
 30
0.0
  0
SPLINE
  5
109
100
AcDbEntity
  8
0
 62
7
100
AcDbSpline
 70
8
 71
3
 72
8
 73
4
 74
0
 40
0
 40
0
 40
0
 40
0
 40
1
 40
1
 40
1
 40
1
 10
180.957000
 20
39.355279
 30
0.0
 10
180.957000
 20
39.907579
 30
0.0
 10
181.404700
 20
40.355279
 30
0.0
 10
181.957000
 20
40.355279
 30
0.0
  0
LWPOLYLINE
  5
10a
100
AcDbEntity
  8
0
 62
7
100
AcDbPolyline
 90
2
 70
0
 10
180.957000
 20
39.355279
 30
0.0
 10
180.957000
 20
-2.650561
 30
0.0
  0
SPLINE
  5
10b
100
AcDbEntity
  8
0
 62
7
100
AcDbSpline
 70
8
 71
3
 72
8
 73
4
 74
0
 40
0
 40
0
 40
0
 40
0
 40
1
 40
1
 40
1
 40
1
 10
198.957000
 20
40.855279
 30
0.0
 10
198.957000
 20
40.579179
 30
0.0
 10
198.733100
 20
40.355279
 30
0.0
 10
198.457000
 20
40.355279
 30
0.0
  0
LWPOLYLINE
  5
10c
100
AcDbEntity
  8
0
 62
7
100
AcDbPolyline
 90
2
 70
0
 10
198.457000
 20
40.355279
 30
0.0
 10
181.957000
 20
40.355279
 30
0.0
  0
SPLINE
  5
10d
100
AcDbEntity
  8
0
 62
7
100
AcDbSpline
 70
8
 71
3
 72
8
 73
4
 74
0
 40
0
 40
0
 40
0
 40
0
 40
1
 40
1
 40
1
 40
1
 10
198.957000
 20
42.355279
 30
0.0
 10
198.957000
 20
42.631379
 30
0.0
 10
199.180900
 20
42.855279
 30
0.0
 10
199.457000
 20
42.855279
 30
0.0
  0
LWPOLYLINE
  5
10e
100
AcDbEntity
  8
0
 62
7
100
AcDbPolyline
 90
2
 70
0
 10
198.957000
 20
42.355279
 30
0.0
 10
198.957000
 20
40.855279
 30
0.0
  0
SPLINE
  5
10f
100
AcDbEntity
  8
0
 62
7
100
AcDbSpline
 70
8
 71
3
 72
8
 73
4
 74
0
 40
0
 40
0
 40
0
 40
0
 40
1
 40
1
 40
1
 40
1
 10
216.957000
 20
43.355279
 30
0.0
 10
216.957000
 20
43.079179
 30
0.0
 10
216.733100
 20
42.855279
 30
0.0
 10
216.457000
 20
42.855279
 30
0.0
  0
LWPOLYLINE
  5
110
100
AcDbEntity
  8
0
 62
7
100
AcDbPolyline
 90
2
 70
0
 10
216.457000
 20
42.855279
 30
0.0
 10
199.457000
 20
42.855279
 30
0.0
  0
SPLINE
  5
111
100
AcDbEntity
  8
0
 62
7
100
AcDbSpline
 70
8
 71
3
 72
8
 73
4
 74
0
 40
0
 40
0
 40
0
 40
0
 40
1
 40
1
 40
1
 40
1
 10
216.957000
 20
45.355279
 30
0.0
 10
216.957000
 20
45.631379
 30
0.0
 10
217.180900
 20
45.855279
 30
0.0
 10
217.457000
 20
45.855279
 30
0.0
  0
LWPOLYLINE
  5
112
100
AcDbEntity
  8
0
 62
7
100
AcDbPolyline
 90
2
 70
0
 10
216.957000
 20
45.355279
 30
0.0
 10
216.957000
 20
43.355279
 30
0.0
  0
SPLINE
  5
113
100
AcDbEntity
  8
0
 62
7
100
AcDbSpline
 70
8
 71
3
 72
8
 73
4
 74
0
 40
0
 40
0
 40
0
 40
0
 40
1
 40
1
 40
1
 40
1
 10
234.457000
 20
45.855279
 30
0.0
 10
234.733100
 20
45.855279
 30
0.0
 10
234.957000
 20
45.631379
 30
0.0
 10
234.957000
 20
45.355279
 30
0.0
  0
LWPOLYLINE
  5
114
100
AcDbEntity
  8
0
 62
7
100
AcDbPolyline
 90
2
 70
0
 10
234.457000
 20
45.855279
 30
0.0
 10
217.457000
 20
45.855279
 30
0.0
  0
SPLINE
  5
115
100
AcDbEntity
  8
0
 62
7
100
AcDbSpline
 70
8
 71
3
 72
8
 73
4
 74
0
 40
0
 40
0
 40
0
 40
0
 40
1
 40
1
 40
1
 40
1
 10
235.457000
 20
42.855279
 30
0.0
 10
235.180900
 20
42.855279
 30
0.0
 10
234.957000
 20
43.079179
 30
0.0
 10
234.957000
 20
43.355279
 30
0.0
  0
LWPOLYLINE
  5
116
100
AcDbEntity
  8
0
 62
7
100
AcDbPolyline
 90
2
 70
0
 10
234.957000
 20
43.355279
 30
0.0
 10
234.957000
 20
45.355279
 30
0.0
  0
SPLINE
  5
117
100
AcDbEntity
  8
0
 62
7
100
AcDbSpline
 70
8
 71
3
 72
8
 73
4
 74
0
 40
0
 40
0
 40
0
 40
0
 40
1
 40
1
 40
1
 40
1
 10
252.457000
 20
42.855279
 30
0.0
 10
252.733000
 20
42.855279
 30
0.0
 10
252.957000
 20
42.631379
 30
0.0
 10
252.957000
 20
42.355279
 30
0.0
  0
LWPOLYLINE
  5
118
100
AcDbEntity
  8
0
 62
7
100
AcDbPolyline
 90
2
 70
0
 10
252.457000
 20
42.855279
 30
0.0
 10
235.457000
 20
42.855279
 30
0.0
  0
SPLINE
  5
119
100
AcDbEntity
  8
0
 62
7
100
AcDbSpline
 70
8
 71
3
 72
8
 73
4
 74
0
 40
0
 40
0
 40
0
 40
0
 40
1
 40
1
 40
1
 40
1
 10
253.457000
 20
33.855279
 30
0.0
 10
253.181000
 20
33.855279
 30
0.0
 10
252.957000
 20
34.079179
 30
0.0
 10
252.957000
 20
34.355279
 30
0.0
  0
LWPOLYLINE
  5
11a
100
AcDbEntity
  8
0
 62
7
100
AcDbPolyline
 90
2
 70
0
 10
252.957000
 20
34.355279
 30
0.0
 10
252.957000
 20
42.355279
 30
0.0
  0
SPLINE
  5
11b
100
AcDbEntity
  8
0
 62
7
100
AcDbSpline
 70
8
 71
3
 72
8
 73
4
 74
0
 40
0
 40
0
 40
0
 40
0
 40
1
 40
1
 40
1
 40
1
 10
269.957000
 20
33.855279
 30
0.0
 10
270.509000
 20
33.855279
 30
0.0
 10
270.957000
 20
33.407579
 30
0.0
 10
270.957000
 20
32.855279
 30
0.0
  0
LWPOLYLINE
  5
11c
100
AcDbEntity
  8
0
 62
7
100
AcDbPolyline
 90
2
 70
0
 10
269.957000
 20
33.855279
 30
0.0
 10
253.457000
 20
33.855279
 30
0.0
  0
SPLINE
  5
11d
100
AcDbEntity
  8
0
 62
7
100
AcDbSpline
 70
8
 71
3
 72
8
 73
4
 74
0
 40
0
 40
0
 40
0
 40
0
 40
1
 40
1
 40
1
 40
1
 10
270.957000
 20
-17.144721
 30
0.0
 10
270.957000
 20
-17.697021
 30
0.0
 10
270.509000
 20
-18.144721
 30
0.0
 10
269.957000
 20
-18.144721
 30
0.0
  0
LWPOLYLINE
  5
11e
100
AcDbEntity
  8
0
 62
7
100
AcDbPolyline
 90
2
 70
0
 10
270.957000
 20
-17.144721
 30
0.0
 10
270.957000
 20
32.855279
 30
0.0
  0
LWPOLYLINE
  5
11f
100
AcDbEntity
  8
0
 62
7
100
AcDbPolyline
 90
2
 70
0
 10
28.781980
 20
-18.144721
 30
0.0
 10
69.645380
 20
-18.144721
 30
0.0
  0
LWPOLYLINE
  5
120
100
AcDbEntity
  8
0
 62
7
100
AcDbPolyline
 90
2
 70
0
 10
78.828580
 20
-31.259621
 30
0.0
 10
69.645380
 20
-18.144721
 30
0.0
  0
LWPOLYLINE
  5
121
100
AcDbEntity
  8
0
 62
7
100
AcDbPolyline
 90
2
 70
0
 10
116.702780
 20
-35.240321
 30
0.0
 10
78.828580
 20
-31.259621
 30
0.0
  0
SPLINE
  5
122
100
AcDbEntity
  8
0
 62
7
100
AcDbSpline
 70
8
 71
3
 72
8
 73
4
 74
0
 40
0
 40
0
 40
0
 40
0
 40
1
 40
1
 40
1
 40
1
 10
129.485280
 20
-44.527321
 30
0.0
 10
129.932080
 20
-44.851921
 30
0.0
 10
130.557480
 20
-44.752921
 30
0.0
 10
130.882080
 20
-44.306121
 30
0.0
  0
LWPOLYLINE
  5
123
100
AcDbEntity
  8
0
 62
7
100
AcDbPolyline
 90
2
 70
0
 10
129.485280
 20
-44.527321
 30
0.0
 10
116.702780
 20
-35.240321
 30
0.0
  0
SPLINE
  5
124
100
AcDbEntity
  8
0
 62
7
100
AcDbSpline
 70
8
 71
3
 72
8
 73
4
 74
0
 40
0
 40
0
 40
0
 40
0
 40
1
 40
1
 40
1
 40
1
 10
145.576720
 20
-24.080721
 30
0.0
 10
145.901340
 20
-23.633921
 30
0.0
 10
145.802290
 20
-23.008521
 30
0.0
 10
145.355480
 20
-22.683921
 30
0.0
  0
LWPOLYLINE
  5
125
100
AcDbEntity
  8
0
 62
7
100
AcDbPolyline
 90
2
 70
0
 10
145.576720
 20
-24.080721
 30
0.0
 10
130.882080
 20
-44.306121
 30
0.0
  0
LWPOLYLINE
  5
126
100
AcDbEntity
  8
0
 62
7
100
AcDbPolyline
 90
2
 70
0
 10
145.355480
 20
-22.683921
 30
0.0
 10
117.781980
 20
-2.650561
 30
0.0
  0
SPLINE
  5
127
100
AcDbEntity
  8
0
 62
7
100
AcDbSpline
 70
8
 71
3
 72
8
 73
4
 74
0
 40
0
 40
0
 40
0
 40
0
 40
1
 40
1
 40
1
 40
1
 10
117.781980
 20
39.355279
 30
0.0
 10
117.781980
 20
39.907579
 30
0.0
 10
117.334280
 20
40.355279
 30
0.0
 10
116.781980
 20
40.355279
 30
0.0
  0
LWPOLYLINE
  5
128
100
AcDbEntity
  8
0
 62
7
100
AcDbPolyline
 90
2
 70
0
 10
117.781980
 20
39.355279
 30
0.0
 10
117.781980
 20
-2.650561
 30
0.0
  0
SPLINE
  5
129
100
AcDbEntity
  8
0
 62
7
100
AcDbSpline
 70
8
 71
3
 72
8
 73
4
 74
0
 40
0
 40
0
 40
0
 40
0
 40
1
 40
1
 40
1
 40
1
 10
99.781980
 20
40.855279
 30
0.0
 10
99.781980
 20
40.579179
 30
0.0
 10
100.005880
 20
40.355279
 30
0.0
 10
100.281980
 20
40.355279
 30
0.0
  0
LWPOLYLINE
  5
12a
100
AcDbEntity
  8
0
 62
7
100
AcDbPolyline
 90
2
 70
0
 10
100.281980
 20
40.355279
 30
0.0
 10
116.781980
 20
40.355279
 30
0.0
  0
SPLINE
  5
12b
100
AcDbEntity
  8
0
 62
7
100
AcDbSpline
 70
8
 71
3
 72
8
 73
4
 74
0
 40
0
 40
0
 40
0
 40
0
 40
1
 40
1
 40
1
 40
1
 10
99.781980
 20
42.355279
 30
0.0
 10
99.781980
 20
42.631379
 30
0.0
 10
99.558080
 20
42.855279
 30
0.0
 10
99.281980
 20
42.855279
 30
0.0
  0
LWPOLYLINE
  5
12c
100
AcDbEntity
  8
0
 62
7
100
AcDbPolyline
 90
2
 70
0
 10
99.781980
 20
42.355279
 30
0.0
 10
99.781980
 20
40.855279
 30
0.0
  0
SPLINE
  5
12d
100
AcDbEntity
  8
0
 62
7
100
AcDbSpline
 70
8
 71
3
 72
8
 73
4
 74
0
 40
0
 40
0
 40
0
 40
0
 40
1
 40
1
 40
1
 40
1
 10
81.781980
 20
43.355279
 30
0.0
 10
81.781980
 20
43.079179
 30
0.0
 10
82.005880
 20
42.855279
 30
0.0
 10
82.281980
 20
42.855279
 30
0.0
  0
LWPOLYLINE
  5
12e
100
AcDbEntity
  8
0
 62
7
100
AcDbPolyline
 90
2
 70
0
 10
82.281980
 20
42.855279
 30
0.0
 10
99.281980
 20
42.855279
 30
0.0
  0
SPLINE
  5
12f
100
AcDbEntity
  8
0
 62
7
100
AcDbSpline
 70
8
 71
3
 72
8
 73
4
 74
0
 40
0
 40
0
 40
0
 40
0
 40
1
 40
1
 40
1
 40
1
 10
81.781980
 20
45.355279
 30
0.0
 10
81.781980
 20
45.631379
 30
0.0
 10
81.558080
 20
45.855279
 30
0.0
 10
81.281980
 20
45.855279
 30
0.0
  0
LWPOLYLINE
  5
130
100
AcDbEntity
  8
0
 62
7
100
AcDbPolyline
 90
2
 70
0
 10
81.781980
 20
45.355279
 30
0.0
 10
81.781980
 20
43.355279
 30
0.0
  0
SPLINE
  5
131
100
AcDbEntity
  8
0
 62
7
100
AcDbSpline
 70
8
 71
3
 72
8
 73
4
 74
0
 40
0
 40
0
 40
0
 40
0
 40
1
 40
1
 40
1
 40
1
 10
64.281980
 20
45.855279
 30
0.0
 10
64.005880
 20
45.855279
 30
0.0
 10
63.781980
 20
45.631379
 30
0.0
 10
63.781980
 20
45.355279
 30
0.0
  0
LWPOLYLINE
  5
132
100
AcDbEntity
  8
0
 62
7
100
AcDbPolyline
 90
2
 70
0
 10
64.281980
 20
45.855279
 30
0.0
 10
81.281980
 20
45.855279
 30
0.0
  0
SPLINE
  5
133
100
AcDbEntity
  8
0
 62
7
100
AcDbSpline
 70
8
 71
3
 72
8
 73
4
 74
0
 40
0
 40
0
 40
0
 40
0
 40
1
 40
1
 40
1
 40
1
 10
63.281980
 20
42.855279
 30
0.0
 10
63.558080
 20
42.855279
 30
0.0
 10
63.781980
 20
43.079179
 30
0.0
 10
63.781980
 20
43.355279
 30
0.0
  0
LWPOLYLINE
  5
134
100
AcDbEntity
  8
0
 62
7
100
AcDbPolyline
 90
2
 70
0
 10
63.781980
 20
43.355279
 30
0.0
 10
63.781980
 20
45.355279
 30
0.0
  0
SPLINE
  5
135
100
AcDbEntity
  8
0
 62
7
100
AcDbSpline
 70
8
 71
3
 72
8
 73
4
 74
0
 40
0
 40
0
 40
0
 40
0
 40
1
 40
1
 40
1
 40
1
 10
46.281980
 20
42.855279
 30
0.0
 10
46.005980
 20
42.855279
 30
0.0
 10
45.781980
 20
42.631379
 30
0.0
 10
45.781980
 20
42.355279
 30
0.0
  0
LWPOLYLINE
  5
136
100
AcDbEntity
  8
0
 62
7
100
AcDbPolyline
 90
2
 70
0
 10
46.281980
 20
42.855279
 30
0.0
 10
63.281980
 20
42.855279
 30
0.0
  0
SPLINE
  5
137
100
AcDbEntity
  8
0
 62
7
100
AcDbSpline
 70
8
 71
3
 72
8
 73
4
 74
0
 40
0
 40
0
 40
0
 40
0
 40
1
 40
1
 40
1
 40
1
 10
45.281980
 20
40.355279
 30
0.0
 10
45.557980
 20
40.355279
 30
0.0
 10
45.781980
 20
40.579179
 30
0.0
 10
45.781980
 20
40.855279
 30
0.0
  0
LWPOLYLINE
  5
138
100
AcDbEntity
  8
0
 62
7
100
AcDbPolyline
 90
2
 70
0
 10
45.781980
 20
40.855279
 30
0.0
 10
45.781980
 20
42.355279
 30
0.0
  0
SPLINE
  5
139
100
AcDbEntity
  8
0
 62
7
100
AcDbSpline
 70
8
 71
3
 72
8
 73
4
 74
0
 40
0
 40
0
 40
0
 40
0
 40
1
 40
1
 40
1
 40
1
 10
28.781980
 20
40.355279
 30
0.0
 10
28.229980
 20
40.355279
 30
0.0
 10
27.781980
 20
39.907579
 30
0.0
 10
27.781980
 20
39.355279
 30
0.0
  0
LWPOLYLINE
  5
13a
100
AcDbEntity
  8
0
 62
7
100
AcDbPolyline
 90
2
 70
0
 10
28.781980
 20
40.355279
 30
0.0
 10
45.281980
 20
40.355279
 30
0.0
  0
SPLINE
  5
13b
100
AcDbEntity
  8
0
 62
7
100
AcDbSpline
 70
8
 71
3
 72
8
 73
4
 74
0
 40
0
 40
0
 40
0
 40
0
 40
1
 40
1
 40
1
 40
1
 10
27.781980
 20
-17.144721
 30
0.0
 10
27.781980
 20
-17.697021
 30
0.0
 10
28.229980
 20
-18.144721
 30
0.0
 10
28.781980
 20
-18.144721
 30
0.0
  0
LWPOLYLINE
  5
13c
100
AcDbEntity
  8
0
 62
7
100
AcDbPolyline
 90
2
 70
0
 10
27.781980
 20
-17.144721
 30
0.0
 10
27.781980
 20
39.355279
 30
0.0
  0
ENDSEC
  0
SECTION
  2
OBJECTS
  0
DICTIONARY
  5
C
330
0
100
AcDbDictionary
  3
ACAD_GROUP
350
D
  3
ACAD_MLINESTYLE
350
17
  0
DICTIONARY
  5
D
330
C
100
AcDbDictionary
  0
DICTIONARY
  5
1A
330
C
100
AcDbDictionary
  0
DICTIONARY
  5
17
330
C
100
AcDbDictionary
  3
STANDARD
350
18
  0
DICTIONARY
  5
19
330
C
100
AcDbDictionary
  0
ENDSEC
  0
EOF
